<svg width="1544.1" height="607.69" version="1.1" xmlns="http://www.w3.org/2000/svg"><defs><style>.cls-9{fill:#fefefe}.cls-10{fill:#fcfcfc}</style><style/><style>.cls-9{fill:#fefefe}.cls-10{fill:#fcfcfc}</style></defs><style>.st0{fill:#fff}</style><g transform="matrix(.77587 0 0 .77587 .0015517 262.81)" fill="#fff"><path d="m378.51 129.22h-0.207c-1.94 4.082-6.831 8.06-14.377 8.06-13.156 0-17.85-9.276-17.85-19.273v-30.904h12.24v24.781c0 5.405 0.408 14.384 8.975 14.384 8.056 0 11.22-5.917 11.22-12.444v-26.722h12.233v50.089h-12.234v-7.972m-172.25-22.625c-0.1-7.142-4.791-11.625-12.439-11.625-7.242 0-11.729 4.587-12.646 11.625zm-25.085 9.18c0.814 7.238 6.321 11.625 13.154 11.625 6.119 0 10.097-2.854 13.154-6.627l8.77 6.627c-5.71 7.036-12.95 9.792-20.703 9.792-14.785 0-26.615-10.3-26.615-25.701 0-15.402 11.83-25.702 26.615-25.702 13.67 0 22.95 9.588 22.95 26.622v3.365h-37.325m119.03-21.926h0.204c1.938-4.077 6.836-8.06 14.383-8.06 13.155 0 17.845 9.28 17.845 19.275v30.898h-12.237v-24.778c0-5.406-0.409-14.38-8.971-14.38-8.059 0-11.224 5.915-11.224 12.443v26.714h-12.236v-77.095h12.236v34.98m132.46 2.957c-8.973 0-14.375 7.038-14.375 14.686 0 7.65 5.402 14.685 14.374 14.685 8.976 0 14.385-7.035 14.385-14.685 0-7.648-5.409-14.686-14.385-14.686zm-26.205-37.936h12.234v34.366h0.31c2.548-3.16 7.442-7.445 16.621-7.445 13.972 0 23.657 11.22 23.657 25.702s-9.076 25.701-24.166 25.701c-6.833 0-13.26-2.657-16.826-8.571h-0.208v7.342h-11.622v-77.095m-127.8 95.804h-52v-10.666h51.999v10.666m180 0h-173.33v-10.666h173.33v10.666m-232.65-67.66h13.354l13.054 34.269h0.207l13.157-34.269h12.541l-19.271 48.951h-13.055l-19.987-48.95m-110.77 10.756c-8.761 0-14.04 6.866-14.04 14.336 0 7.462 5.28 14.336 14.04 14.336s14.043-6.874 14.043-14.336c0-7.47-5.282-14.336-14.043-14.336"/><path d="m140.82 135.99h-11.352v-7.167h-0.194c-3.488 5.782-9.763 8.367-16.434 8.367-14.733 0-23.598-10.95-23.598-25.089 0-14.14 9.463-25.091 23.102-25.091 8.96 0 13.744 4.18 16.23 7.268h0.3v-33.554h11.947zm-20.905-135.98h-119.92v120.74l38.064 33.919h121.93v-119.68l-40.075-34.987"/></g><path d="m864.97 159.16c-9.2177-2.1187-16.043-7.613-19.796-15.942-2.08-4.6118-2.9002-17.407-1.5273-23.802 2.08-9.7168 8.2311-17.449 16.403-20.625 6.6117-2.5734 18.643-2.612 24.182-0.0771 4.3919 2.0057 9.3217 6.3977 11.197 9.9724 2.7932 5.3309 4.2136 15.571 2.8586 20.622-0.4695 1.7473-0.5883 1.7591-18.661 1.9671l-18.192 0.21103 0.2585 2.7516c1.0103 10.757 15.184 15.057 19.541 5.9252l1.2658-2.6536 7.9429 2.817c4.3681 1.5511 8.1122 2.9566 8.3173 3.129 1.0311 0.85879-4.4484 9.1612-7.3724 11.173-6.6502 4.5761-17.859 6.4957-26.417 4.5316zm15.321-38.267c0.7904-1.2836-1.0549-6.7483-2.8229-8.3469-2.5496-2.3089-8.6174-2.0622-11.357 0.46646-1.9998 1.8453-4.2849 6.0233-4.2849 7.8359 0 1.0579 17.811 1.0996 18.465 0.0448zm166.67 38.145c-13.913-2.5258-22.75-11.09-26.417-25.594-1.4174-5.5924-1.6135-8.1004-1.2658-16.085 0.5943-13.58 3.7857-21.814 11.054-28.515 6.3858-5.8895 14.804-8.8224 25.383-8.8432 23.525-0.04799 37.251 14.349 37.367 39.2 0.083 18.349-6.0856 30.601-18.444 36.624-8.5907 4.1898-16.967 5.1585-27.677 3.2122zm15.098-16.988c3.0131-1.138 6.3471-4.4186 8.332-8.2014 2.0415-3.8926 2.8171-16.551 1.4026-22.872-2.4485-10.947-12.861-16.587-22.521-12.198-6.3293 2.8735-9.0066 8.3054-9.5623 19.398-0.6211 12.382 2.7338 20.619 9.6099 23.615 2.8913 1.2599 9.7228 1.3966 12.739 0.2585zm-365.33 16.002c7e-3 -0.3387 0.89144-3.4469 1.9671-6.9088 1.0727-3.4588 1.9523-6.5552 1.9523-6.879 0-0.32691-2.8289-0.59137-6.2877-0.59137h-6.2907v-13.363h17.048l0.96575-3.2241c0.53486-1.7769 1.1589-3.7203 1.3877-4.3264 0.34768-0.89741-1.1589-1.0965-8.3113-1.0965h-8.7303v-13.369h21.719l1.8186-6.2907 1.8186-6.2877h6.9771c3.8362 0 6.9771 0.29712 6.9771 0.66263 0 0.3655-0.70724 2.7189-1.5749 5.2328-2.3178 6.7513-2.3594 6.6859 3.7857 6.6859h5.3577l1.8186-6.2936 1.8156-6.2877h6.9771c3.8392 0 6.9801 0.29114 6.9801 0.64778 0 0.35654-0.86472 3.1884-1.9196 6.2906l-1.9196 5.64h14.058v13.315l-9.1522 0.22288-9.1523 0.21983-1.0578 3.5362c-0.57946 1.9492-1.0608 3.8036-1.0668 4.1304-7e-3 0.32684 4.0561 0.58831 9.0304 0.58831h9.0394v13.366h-22.688l-2.2405 7.2743-2.2405 7.2713-6.8553 0.22578c-3.7738 0.12774-6.8523-0.0503-6.8464-0.39223 7e-3 -0.34168 0.89147-3.4499 1.9642-6.9088 1.0757-3.4588 1.9552-6.5552 1.9552-6.879 0-0.32691-2.4515-0.59137-5.4498-0.59137h-5.4468l-2.2405 7.2743-2.2376 7.2713-6.8582 0.22578c-3.7738 0.12774-6.8523-0.0503-6.8464-0.39223zm34.517-30.969c0.5319-1.777 1.1618-3.7382 1.4026-4.3622 0.35658-0.93598-0.56459-1.0935-5.2804-0.90036l-5.7142 0.23176-1.0549 3.5391c-0.57943 1.9464-1.0579 3.8035-1.0668 4.1304-7e-3 0.32094 2.4069 0.58835 5.3695 0.58835h5.3784zm40.947-7.0544v-38.582l20.245 0.28233c18.62 0.26151 20.658 0.42786 25.356 2.0741 13.8 4.8257 20.842 15.164 21.781 31.967 1.0697 19.16-5.3547 32.621-18.468 38.698-6.6562 3.0845-14.59 4.0859-32.598 4.1156l-16.314 0.0298zm38.377 19.579c6.7869-3.3697 9.1404-9.2236 8.6412-21.484-0.35954-8.7986-1.8513-12.786-6.1213-16.382-3.2449-2.7278-6.992-3.6579-14.754-3.6638h-6.4868v44.255l7.5179-0.44581c5.631-0.33868 8.4391-0.90924 11.203-2.2791zm98.429-3.9937a6593.8 6593.8 0 0 0-10.694-30.292l-2.6238-7.2951 10.299 0.2199 10.296 0.21992 4.2107 14.055c4.2225 14.097 6.5908 23.962 6.5908 27.451 0 4.5167 1.2302 2.398 2.5109-4.3236 0.7637-4.0175 3.5807-14.106 6.255-22.42l4.8644-15.11 19.784-0.43982 0.2229-8.0587 0.2258-8.0588h60.482v16.465l-20.833 0.43982-0.208 30.072-0.205 30.072h-18.831l-0.208-30.072-0.205-30.072h-20.441l-9.5801 25.552c-5.2685 14.055-10.329 27.585-11.244 30.072l-1.667 4.5227h-20.934z" fill="#fff" stroke-width="2.9715"/><g transform="matrix(.29909 0 0 .29909 170.28 527.69)" fill="#fff"><path transform="translate(225.86,-267.26)" d="m-225.86 534.74v-267.48h1071.7v267.48zm535.86-257.09h-517c-8.28 0-8.28 0-8.28 8.25v229.49c0 8.84 0 8.84 8.85 8.84q518.72 0 1037.4 0.09c3.53 0 4.49-0.9 4.49-4.48q-0.18-117-0.1-234c0-8.2 0-8.2-8-8.2z"/><path transform="translate(225.86,-267.26)" d="m-137.89 516h-28v-174.8h26.59v14.8c0.87-0.11 1.32 0 1.43-0.19 11.09-16.49 27.65-20 45.74-18.28 25.63 2.41 43.41 17.91 50 42.79 5.28 19.89 4.78 39.67-3.08 58.83-13.71 33.44-55.9 44.63-83.87 22.41-2.94-2.34-5.61-5-8.86-7.94v62.38zm-1.66-111.29c1.49 7.29 2.24 14.82 4.61 21.81 4.74 14 16.91 22.76 30.63 23.22 15.47 0.52 26.51-6.65 32.25-20.56 7.27-17.62 7-35.67-2.44-52.5-12.09-21.56-42.69-22.84-56.39-2.68-6.21 9.11-7.66 19.68-8.66 30.68zm317.38-63.95c10.07 0 19.22-0.2 28.35 0.2 1.51 0.07 3.63 2.52 4.26 4.29 9.29 26 18.37 52.15 27.52 78.23 1.31 3.76 2.74 7.47 4.57 12.47 1-2.53 1.65-3.93 2.14-5.37 9.69-28.36 19.44-56.7 28.93-85.13 1.23-3.68 2.87-4.92 6.68-4.79 8 0.29 15.94 0.09 24.32 0.09a20.66 20.66 0 0 1-0.6 3.25q-27 72.49-54.16 145c-0.87 2.34-1.93 4.61-3 6.87-7.84 16.67-20.84 24.67-39.48 24.13-17.5-0.51-17.51-0.17-17.51-17.26v-8.08c5.22 0.48 9.81 1.12 14.41 1.27 7.4 0.24 13-3.07 15.85-9.92a124.36 124.36 0 0 0 5.53-16c0.5-1.83-0.39-4.22-1.13-6.18q-22.35-58.83-44.81-117.67c-0.58-1.53-1.07-3.09-1.87-5.4zm-134.03 131.68c-37.43 0-62.9-24.23-64.82-61.66-0.66-13 0.46-25.68 5.91-37.63 11.54-25.32 36.74-38.91 65.93-35.77 35.15 3.78 57.37 28.4 57.6 64.7a92.82 92.82 0 0 1-3.32 26.59c-8.35 28.33-30.65 43.76-61.3 43.77zm-36.49-63.92c0.73 3.47 1.4 10.55 3.75 17 5 13.85 14.56 23.06 30 24.1 15.75 1.05 27.21-6.07 33.65-20.16 8-17.53 7.78-35.49-1.47-52.45-11.13-20.44-39.24-23.17-54.78-5.9-8.68 9.66-10.69 21.5-11.15 37.41zm125.78 60.39v-176.72h27.84c0.09 1.9 0.24 3.67 0.24 5.44 0 55.11 0 110.23 0.12 165.34 0 4.88-1.41 6.29-6.16 6-7.13-0.35-14.27-0.06-22.04-0.06zm402.8-25.84c-17.49 24.15-38.31 32.87-66 27.1-18.55-3.88-28-15.19-28-33.41 0-19.55 9.64-32.22 28.25-35.47 11.11-1.94 22.51-2.17 33.77-3.37 6.77-0.73 13.63-1.32 20.21-2.93 7.91-1.93 11.17-6.73 11.65-14.85 1.34-23.09-10.49-36.17-33.57-36.23a80.75 80.75 0 0 0-22.63 2.79c-13.3 3.9-20.79 13.78-23.69 27.2-0.29 1.3-0.16 2.8-0.77 3.89s-2 2-3 3c-0.69-1.21-2.1-2.51-2-3.61 1.63-13 6.95-24.18 18.55-31 17.08-10.1 35.38-10.58 53.37-3.28 13.27 5.39 18.67 17.06 18.76 31 0.16 25.49 0 51 0 76.48 0 1.83 0 3.67 0.13 5.49 0.43 5.5 2.61 7.71 8.12 8.14 2 0.16 4-0.19 6 0.12a3 3 0 0 1 1.86 2.22 3.16 3.16 0 0 1-1.71 2.42c-10.27 3.41-19.33-3.11-19.36-13.82 0.05-3.95 0.06-7.95 0.06-11.88zm-0.27-48.07c-9.69 7-20.36 7.55-31 8.33-5.14 0.39-10.35 0.14-15.45 0.81-8.22 1.06-16.69 1.68-24.48 4.23-12 3.92-17 13.7-17.62 25.9-0.69 12.67 3.81 22.4 15.66 28.14 7.57 3.67 15.62 4.45 23.85 4.22 26.65-0.73 46.76-18.91 48.89-44.76 0.75-8.57 0.15-17.26 0.15-26.87zm163.1-102.45v121.61c2.51-2 4-3.13 5.52-4.36 26.43-21.88 52.8-43.82 79.34-65.57 2.26-1.85 5.58-2.41 8.41-3.57l1 2-57.35 47.44 62.36 78.02c-4.59 1.75-7.06 0.21-9.5-2.89q-26.5-33.57-53.16-66.93c-1.13-1.41-2.32-2.77-3.77-4.5-10.63 8.82-21.05 17.33-31.25 26.1-1.21 1-1.59 3.56-1.61 5.4-0.13 13 0 26-0.17 39 0 1.54-1.29 4.24-2.25 4.37-3.55 0.47-2.58-2.64-2.58-4.55q-0.08-83.7-0.05-167.4c0-3.02-0.17-6.07 5.06-4.17zm-372.39-0.1c4.53-1.67 4.81 0.73 4.8 3.84q-0.08 34.5 0 69v5.42c0.79-0.61 1.35-0.81 1.45-1.15 6.06-20.76 27.27-35.36 55.54-30.19 20.77 3.8 34.36 19.38 34.66 40.5 0.39 28.32 0.14 56.66 0 85 0 1.34-1.51 2.67-2.32 4-0.85-1.46-2.44-2.91-2.44-4.36-0.16-25.17 0-50.34-0.19-75.5a76.3 76.3 0 0 0-1.78-17.82c-3.56-14.19-12.85-23-27.19-26.27-25.43-5.78-48.07 7.46-54.74 32.65a100.83 100.83 0 0 0-2.88 23.71c-0.39 20.49-0.13 41-0.13 61.49a14.12 14.12 0 0 1-0.15 4c-0.26 0.85-1.52 2.08-2.11 2a4.81 4.81 0 0 1-2.61-2.09c-0.39-0.57-0.11-1.62-0.11-2.45v-168c0.01-1.23 0.12-2.36 0.2-3.78zm343.46 88.22c-1.3-1.11-3.43-2-3.77-3.36-4.64-18.27-15.58-30.23-34.54-33-20-2.89-38.24 2-49.7 19.57-16.46 25.28-18 52.39-3.4 79.11 9.42 17.21 25.39 24.48 44.82 23.53 18.46-0.91 32.41-9.35 40.41-26.38 1.67-3.57 2.37-7.61 3.36-11.47 0.8-3.12 0.69-3.15 5.73-2.8-1.07 4.56-1.66 9.14-3.21 13.37-6.85 18.76-20.64 29.17-40.08 31.76-31 4.09-55.12-11.74-62.79-42-6.1-24-3.78-47.52 10.94-68.36 15.21-21.64 46.44-28.71 69.86-16.64 13.58 7 23.58 22.13 22.37 36.67z"/></g><g fill="#fff"><path d="m527.3 345.18v-22.362l-34.641-20-11.347 6.5505 34.641 19.998-4e-3 9.2651-3.9206 2.2676v-9.2661l-17.408-10.05v20.1c6.4498 3.7224 12.895 7.448 19.345 11.169zm-49.913-33.548-19.37 11.185v40.001l11.348 6.5502v-39.998l8.022-4.6324 3.9258 2.2655-8.0223 4.6348v20.094l17.407-10.049v-22.337zm-4.0962 60.004 19.368 11.182 34.641-19.999v-13.103l-34.641 20.001-8.0202-4.6348v-4.531l8.0223 4.6317 17.406-10.052-17.409-10.049c-6.4464 3.7238-12.893 7.4493-19.342 11.169l-0.026 15.385m268.15-39.611c-2.4658-5.0235-7.7218-6.4648-12.791-6.4648-5.9997 0.0462-12.605 2.7906-12.605 9.4882 0 7.3025 6.14 9.0708 12.791 9.8613 4.3263 0.46505 7.5347 1.7207 7.5347 4.791 0 3.5347-3.6266 4.8836-7.4875 4.8836-3.9536 0-7.72-1.5818-9.1634-5.163l-5.1168 2.6514c2.4193 5.9536 7.5361 8.0001 14.188 8.0001 7.2547 0 13.674-3.1165 13.674-10.372 0-7.7686-6.3256-9.5354-13.117-10.373-3.907-0.46504-7.2554-1.256-7.2554-4.0931 0-2.4182 2.1864-4.3256 6.7431-4.3256 3.5357 0 6.605 1.7675 7.7221 3.6277zm37.702 21.164h-18.279v-7.349h17.628v-5.7211h-17.628v-7.5358h18.279v-5.9539h-24.371v32.606h24.372zm36.912-2.279c-2.1398 2.1385-5.349 3.3021-8.1861 3.3021-8.0462 0-11.163-5.6277-11.21-11.024-0.046-5.442 3.349-11.302 11.21-11.302 2.8371 0 5.7221 0.97589 7.8624 3.0689l4.0927-3.9535c-3.3504-3.3022-7.5368-4.9763-11.955-4.9763-11.768 0-17.303 8.6512-17.257 17.163 0.048 8.4652 5.1644 16.791 17.257 16.791 4.6973 0 9.0232-1.536 12.372-4.8378zm-250.5-18.42h9.2106c7.8141 0 7.8602 11.536 0 11.536h-9.2106zm9.2106-5.8609c-5.1165-0.0451-10.234 0-15.35 0v32.606h6.1392v-9.5819h9.2106c15.954 0 15.906-23.024 0-23.024zm46.215 0.0937v18.652c0 5.5812-2.885 8.977-7.9536 8.977-5.0707 0-8.42-3.1168-8.42-8.977v-18.652h-6.0931v18.652c0 9.8145 6.6518 14.559 14.466 14.559 8.1861 0 14.093-4.9312 14.093-14.559v-18.652zm48.633 32.093-9.8613-11.117c6.1864-1.2556 8.2326-5.7679 8.2326-10.255 0-5.6516-4.0462-10.769-11.721-10.815-5.1616 0.0468-10.325 0-15.488 0v32.606h6.1392v-10.884h5.9078l9.4879 10.884h7.3032zm-13.35-26.465c3.8605 0 5.5815 2.6133 5.5815 5.2321 0 2.6209-1.6738 5.2328-5.5815 5.2328h-9.3484v-10.465zm47.797 20.838h-18.279v-7.349h17.629v-5.7211h-17.63v-7.5358h18.279v-5.9539h-24.371v32.606h24.371v-6.0466" fill-rule="evenodd" stroke-width=".34705"/><path d="m357.07 157.33c-4.6667-1.7778-8.1852-4.1644-10.556-7.1667-2.3712-3-3.5556-6.3141-3.5556-9.9445 0-0.5926 0.073-1.4807 0.2222-2.6667 0.073-0.66666 0.3889-1.2222 0.9452-1.6667 0.5556-0.44369 1.1667-0.66591 1.8334-0.66591h14.889c0.9614 0 1.6837 0.14888 2.1667 0.44368 0.4815 0.29861 0.9807 0.81792 1.5 1.5579 0.5918 1.7778 1.7948 3.2408 3.6111 4.3889 1.8149 1.1497 4.3141 1.7222 7.5001 1.7222 4.0001 0 7.2393-0.61111 9.7223-1.8334 2.4808-1.2222 3.9808-2.9082 4.5001-5.0572 0.072-0.29551 0.1111-0.70139 0.1111-1.2222 0-1.8488-1.1497-3.2956-3.4444-4.3318-2.2971-1.0386-6.4445-2.2222-12.445-3.5556-14.741-3.0371-22.111-9.5564-22.111-19.557 0-1.7778 0.2222-3.5918 0.6667-5.4445 1.4807-6.9615 5.203-12.426 11.167-16.389 5.9623-3.9622 13.648-5.9445 23.056-5.9445 5.6281 0 10.667 1 15.111 3 4.4444 2.0008 7.9067 4.5386 10.389 7.6112 2.4808 3.0741 3.7223 6.1667 3.7223 9.2778 0 0.37114-0.075 1-0.2222 1.8881a3.6636 3.6636 0 0 1-0.8889 1.7222c-0.4445 0.48224-1 0.72222-1.6667 0.72222h-15.778c-1.6304 0-2.7416-0.6659-3.3334-2-0.1489-1.5556-1.0193-2.8696-2.6111-3.9437-1.5934-1.0733-3.686-1.6119-6.2779-1.6119-3.1852 0-5.7601 0.55632-7.7223 1.6667-1.9637 1.1111-3.2053 2.7415-3.7222 4.8889-0.075 0.29707-0.1112 0.70526-0.1112 1.2222 0 1.7786 1.0178 3.2053 3.0556 4.2778 2.037 1.0756 5.6845 2.1675 10.944 3.2778 8.3697 1.5563 14.482 3.8889 18.334 7 3.8504 3.1112 5.7779 7.2223 5.7779 12.332 0 2.0741-0.186 3.8889-0.5556 5.446-1.6304 7.6305-5.6111 13.408-11.944 17.334-6.3334 3.9275-14.797 5.8889-25.389 5.8889-6.5942 0-12.222-0.89044-16.89-2.6675zm55.555 0.77779c-0.4445-0.51777-0.5942-1.1829-0.4445-2.0008l15.334-72.112c0.1474-0.81405 0.5556-1.4992 1.2222-2.0556 0.6667-0.55556 1.4059-0.83256 2.2223-0.83256h52.445c0.8141 0 1.4252 0.277 1.8333 0.83256 0.406 0.55634 0.5364 1.2415 0.389 2.0556l-2.3318 11.001c-0.1497 0.8156-0.5572 1.4823-1.2223 2-0.6667 0.51929-1.4082 0.77778-2.2222 0.77778h-35.112l-3.1111 14.111h32.778c0.814 0 1.4251 0.27778 1.8333 0.83334 0.4059 0.55556 0.5363 1.2408 0.3889 2.0556l-2.1111 10.111c-0.1497 0.81636-0.5556 1.5-1.2222 2.0556-0.6667 0.55556-1.4083 0.83336-2.2223 0.83336h-32.778l-3 14.445h36c0.8141 0 1.4252 0.27778 1.8334 0.83333 0.4066 0.55634 0.5363 1.2415 0.3888 2.0556l-2.3333 11c-0.1488 0.81792-0.5555 1.483-1.2223 2.0008-0.6666 0.52007-1.3711 0.77933-2.1111 0.77933h-53.334c-0.8171 0-1.446-0.26158-1.8904-0.78009zm65.666 0c-0.4444-0.51777-0.5942-1.1829-0.4444-2.0008l15.333-72.112c0.1474-0.81405 0.5571-1.4992 1.2222-2.0556 0.6667-0.55556 1.4059-0.83256 2.2223-0.83256h52.446c0.814 0 1.4252 0.277 1.8333 0.83256 0.4043 0.55634 0.5347 1.2415 0.3889 2.0556l-2.3333 11.001c-0.1481 0.8156-0.5556 1.4823-1.2222 2-0.6667 0.51929-1.4083 0.77778-2.2223 0.77778h-35.112l-3.1111 14.111h32.778c0.8141 0 1.4252 0.27778 1.8333 0.83334 0.4044 0.55556 0.5348 1.2408 0.3889 2.0556l-2.1111 10.111c-0.1489 0.81636-0.5555 1.5-1.2222 2.0556-0.6667 0.55556-1.4082 0.83336-2.2223 0.83336h-32.777l-3.0008 14.445h36c0.814 0 1.4252 0.27778 1.8333 0.83333 0.4067 0.55634 0.5363 1.2415 0.3889 2.0556l-2.3334 11c-0.1473 0.81792-0.5555 1.483-1.2222 2.0008-0.6651 0.52007-1.3696 0.77933-2.1096 0.77933h-53.334c-0.8187 0-1.4476-0.26158-1.892-0.78009zm65.666 0c-0.4445-0.51777-0.5949-1.1829-0.4445-2.0008l15.334-72.112c0.1458-0.81405 0.5555-1.4992 1.2222-2.0556 0.6666-0.55556 1.4043-0.83256 2.2222-0.83256h27.334c5.8512 0 11.111 0.96296 15.778 2.8881 4.6667 1.9275 8.3696 4.7423 11.11 8.4445 2.7416 3.7053 4.1104 8.1498 4.1104 13.333 0 1.5556-0.1836 3.4445-0.5555 5.6667-1.0379 6.0001-2.2223 11.667-3.5549 17-2.6666 10.593-7.0201 18.314-13.056 23.165-6.0355 4.8527-14.722 7.2802-26.056 7.2802h-31.556c-0.8133 7.6e-4 -1.4429-0.2585-1.8866-0.77701zm34.555-15.889c4.5927 0 8.2595-1.1096 11.002-3.331 2.7393-2.2238 4.7029-5.7778 5.889-10.667 1.5556-6.5919 2.7393-12.111 3.5532-16.556 0.2223-1.4807 0.3357-2.8141 0.3357-4 0-3.3334-0.9823-5.8149-2.9445-7.4445-1.9638-1.6281-4.9446-2.4445-8.9446-2.4445h-10.556l-9.5572 44.445z" stroke-width=".77161"/><g transform="matrix(.35758 0 0 .35758 883.02 527.69)"><path d="m1585.6 146.16c0 8.111-1.947 15.44-5.907 22.356-3.893 6.645-9.333 11.95-16.226 15.796-7.04 4.018-14.307 5.972-22.24 5.972-7.934 0-15.347-2.056-22.094-6.144-6.68-3.928-11.986-9.44-15.813-16.489-4.013-7.019-5.96-14.29-5.96-22.225 0-7.416 2.053-14.678 6.093-21.539 4.2-6.996 9.614-12.436 16.16-16.195 6.934-4.075 14.2-6.143 21.614-6.143 7.986 0 15.213 2 22.12 6.147 7.013 4.117 12.493 9.6 16.346 16.358 3.92 6.644 5.907 14.08 5.907 22.107zm25.573-28.43c-3.8-9.346-8.92-17.18-15.666-23.938-6.774-7.045-14.694-12.573-23.387-16.376-9.373-4.385-19.347-6.612-29.653-6.612-3.587 0-6.76 0.127-9.6 0.388l35.773-64.05h-35.213l-58.854 103.51c-6.266 11.092-9.44 22.791-9.44 34.773 0 15.343 3.96 29.06 11.707 40.682 7.467 11.612 17.24 20.715 29 27.028 11.667 6.375 23.733 9.608 35.893 9.608 13.014 0 25.547-3.553 37.28-10.593 11.347-6.921 20.36-16.03 27.64-27.985 6.854-12.005 10.187-24.358 10.187-37.76 0-9.91-1.853-19.292-5.667-28.675m229.47-49.713c-0.813-2.006-1.8-4.139-2.893-6.351-1.68 3.01-3.627 5.904-6.174 8.456-5.573 5.568-12.586 9.113-20.2 10.443 3.827 9.06 5.774 18.895 5.76 29.264 0 10.381-1.946 20.249-5.973 30.16-4.08 10.061-9.733 18.612-17.267 26.14-7.333 7.336-15.693 12.802-25.533 16.718-9.613 3.811-19.4 5.666-29.907 5.666-10.066 0-19.973-2.006-29.466-5.978-9.667-3.928-17.987-9.468-25.454-16.925-9.946-9.957-16.533-21.52-20.093-35.297-3.467-13.867-3.32-27.148 0.493-40.716 3.454-13.338 10.334-25.242 20.48-35.383 7.347-7.356 16-13.039 25.694-16.883a83.189 83.189 0 0 1 29.386-5.845c9.454 4e-3 18.654 1.805 28.04 5.373 1.28-7.444 4.72-14.582 10.454-20.318 2.44-2.43 5.213-4.339 8.12-5.998-1.827-0.873-3.68-1.824-5.494-2.549-13.013-5.205-26.96-7.847-41.466-7.847h-0.027c-14.507 0-28.133 2.634-41.773 8.09-13.547 5.692-25.56 13.73-35.734 23.893-14.12 14.119-23.6 30.37-29.04 49.787-4.946 19.024-5.08 38.113-0.4 56.673 4.534 18.833 14.08 35.647 28.4 49.973 14.107 14.093 30.76 23.639 49.52 28.378a112.02 112.02 0 0 0 27.507 3.44c9.76 0 19.587-1.28 29.413-3.837 18.84-5.14 35.44-14.788 49.32-28.67 10.507-10.5 18.68-22.797 24.307-36.583 5.427-13.59 8.2-27.54 8.2-41.462 0-14.63-2.693-28.322-8.2-41.812m-394.63 57.482-0.013-0.056c-2.307-7.478-5.44-14.202-9.68-20.695-4.173-6.11-9.467-11.772-15.947-17l-0.986-0.587c-5.28-4.079-10.72-7.232-15.374-9.55l40.28-69.86h-117.41v31.504h62.88l-32.507 56.405 20 5.2c4.294 1.118 18.347 6.123 25.88 13.747 0.4 0.563 0.814 1.11 1.4 1.69 3.6 3.43 6.6 7.782 9.08 13.141 2.4 5.673 3.574 11.103 3.574 16.73 0.2 7.927-1.774 15.383-6.08 22.906-3.734 6.887-9.027 12.373-15.814 16.359-13.106 7.961-29.866 8.03-43.6 0.178-6.986-4.113-12.506-9.548-16.413-16.19-4.107-6.848-6.093-14.055-6.093-22.038v-10.478h-31.978v10.478c0 13.667 3.448 26.47 10.196 38.007 6.734 11.784 16.088 21.23 27.808 28.087 11.774 6.895 24.24 10.248 38.094 10.248 13.666 0 26.493-3.448 38.106-10.248 11.747-6.878 21.094-16.133 27.76-27.503 6.787-11.618 10.24-24.439 10.24-38.1 0-7.377-1.12-14.699-3.4-22.375"/><path d="m1804.8 23.518c-5.08 0-10.16 1.932-14.027 5.797-7.733 7.73-7.72 20.308 0 28.036 3.867 3.865 8.947 5.797 14.027 5.797a19.77 19.77 0 0 0 14.013-5.797c7.733-7.73 7.733-20.308 0-28.036a19.77 19.77 0 0 0-14.013-5.797"/><path d="m103.29 7.077v30.22q-11.763-5.26-22.952-7.937-11.19-2.678-21.136-2.678-13.197 0-19.51 3.634-6.311 3.635-6.311 11.285 0 5.739 4.208 8.99 4.303 3.156 15.493 5.451l15.684 3.156q23.813 4.782 33.855 14.537t10.042 27.734q0 23.622-14.059 35.194-13.963 11.476-42.749 11.476-13.58 0-27.256-2.582t-27.352-7.65v-31.082q13.676 7.268 26.396 10.998 12.815 3.634 24.674 3.634 12.05 0 18.457-4.017 6.408-4.016 6.408-11.476 0-6.694-4.4-10.329-4.303-3.634-17.31-6.503l-14.25-3.156q-21.42-4.59-31.368-14.632-9.85-10.042-9.85-27.065 0-21.327 13.771-32.803 13.772-11.476 39.594-11.476 11.763 0 24.195 1.817 12.433 1.722 25.726 5.26zm25.397-4.495h99.366v27.83h-62.546v26.588h58.816v27.83h-58.816v32.707h64.65v27.83h-101.47zm183.15 63.311q11.573 0 16.546-4.304 5.068-4.303 5.068-14.154 0-9.755-5.068-13.963-4.973-4.208-16.545-4.208h-15.493v36.629zm-15.492 25.439v54.034h-36.82v-142.78h56.234q28.212 0 41.314 9.468 13.198 9.468 13.198 29.934 0 14.154-6.886 23.24-6.79 9.085-20.561 13.388 7.555 1.722 13.484 7.842 6.025 6.025 12.146 18.362l19.988 40.55h-39.21l-17.406-35.48q-5.26-10.712-10.712-14.633-5.355-3.921-14.345-3.921zm86.592-88.75h37.01l37.872 105.39 37.776-105.39h37.012l-52.886 142.78h-43.897zm157.26 0h99.365v27.83h-62.545v26.588h58.816v27.83h-58.816v32.707h64.65v27.83h-101.47zm183.15 63.311q11.572 0 16.545-4.304 5.069-4.303 5.069-14.154 0-9.755-5.07-13.963-4.972-4.208-16.544-4.208h-15.493v36.629zm-15.493 25.439v54.034h-36.82v-142.78h56.234q28.213 0 41.315 9.468 13.197 9.468 13.197 29.934 0 14.154-6.885 23.24-6.79 9.085-20.562 13.388 7.555 1.722 13.484 7.842 6.026 6.025 12.146 18.362l19.988 40.55h-39.21l-17.406-35.48q-5.26-10.712-10.711-14.633-5.356-3.921-14.346-3.921zm104.98-88.75h36.82v114.95h64.65v27.83h-101.47zm108.11 0h99.365v27.83h-62.546v26.588h58.816v27.83h-58.816v32.707h64.65v27.83h-101.47zm230.2 4.495v30.22q-11.763-5.26-22.952-7.937-11.19-2.678-21.136-2.678-13.197 0-19.51 3.634-6.311 3.635-6.311 11.285 0 5.739 4.208 8.99 4.303 3.156 15.493 5.451l15.684 3.156q23.813 4.782 33.855 14.537t10.042 27.734q0 23.622-14.059 35.194-13.963 11.476-42.749 11.476-13.58 0-27.256-2.582t-27.352-7.65v-31.082q13.676 7.268 26.396 10.998 12.815 3.634 24.674 3.634 12.05 0 18.457-4.017 6.408-4.016 6.408-11.476 0-6.694-4.4-10.329-4.303-3.634-17.31-6.503l-14.25-3.156q-21.421-4.59-31.368-14.632-9.85-10.042-9.85-27.065 0-21.327 13.772-32.803 13.771-11.476 39.593-11.476 11.763 0 24.195 1.817 12.433 1.722 25.726 5.26zm124.76 0v30.22q-11.763-5.26-22.953-7.937-11.189-2.678-21.135-2.678-13.198 0-19.51 3.634-6.312 3.635-6.312 11.285 0 5.739 4.208 8.99 4.304 3.156 15.493 5.451l15.685 3.156q23.813 4.782 33.854 14.537 10.042 9.755 10.042 27.734 0 23.622-14.058 35.194-13.963 11.476-42.75 11.476-13.58 0-27.255-2.582-13.676-2.582-27.352-7.65v-31.082q13.676 7.268 26.395 10.998 12.815 3.634 24.674 3.634 12.05 0 18.458-4.017 6.407-4.016 6.407-11.476 0-6.694-4.399-10.329-4.303-3.634-17.31-6.503l-14.25-3.156q-21.422-4.59-31.368-14.632-9.85-10.042-9.85-27.065 0-21.327 13.771-32.803 13.773-11.476 39.593-11.476 11.763 0 24.196 1.817 12.433 1.722 25.726 5.26z" font-size="146.9" font-weight="600" aria-label="SERVERLESS"/></g></g><g transform="matrix(.61901 0 0 .61901 -9.3359 441.15)"><circle cx="40.112" cy="64.434" r="16.563" fill="#9b9ba9"/><path d="m39.413 40.338c-12.225 0-22.135 9.61-22.135 21.465s9.91 21.464 22.135 21.464 22.136-9.61 22.136-21.464-9.91-21.465-22.136-21.465zm0.67 42.393c-10.075 0-18.244-8.169-18.244-18.245 0-10.077 8.169-18.245 18.245-18.245s18.245 8.168 18.245 18.245c0 10.076-8.169 18.245-18.245 18.245z" fill="#fff"/><path d="m28.715 31.154c0.552-3.306 3.763-5.523 7.171-4.953a6.305 6.305 0 0 1 4.568 3.29c-0.3-2.647-2.373-4.902-5.209-5.376-3.408-0.57-6.619 1.648-7.171 4.953a5.91 5.91 0 0 0 0.603 3.725 5.887 5.887 0 0 1 0.038-1.64z" fill="#9b9ba9"/><path d="m33.254 27.654 1.22 5.61-4.147 1.22-0.244-3.903z" fill="#bcb9cd"/><path d="m33.254 27.654 4.879 0.976 1.22 4.39-5.164 0.57z" fill="#9b9ba9"/><path d="m16.058 59.77c0-12.508 10.456-22.647 23.355-22.647 10.355 0 19.13 6.537 22.191 15.585-1.439-11.17-11.258-19.813-23.167-19.813-12.898 0-23.355 10.14-23.355 22.647 0 2.467 0.413 4.839 1.165 7.062a22.149 22.149 0 0 1-0.189-2.834z" fill="#bcb9cd"/><path d="m33 62.083 25.667 206.08-30.291 0.56s6.457-186.44 3.577-200.99z" fill="#d3d3e3"/><path d="m40.084 56.68-2.277 0.65-4.878 4.88 24.067 205.87 12.85 0.286 6e-3 0.04h18.04z" fill="#bcb9cd"/><path d="m40.084 56.68 7.48 3.903s23.741 102.77 57.565 208.47h-17.237z" fill="#9b9ba9"/><path d="m29.372 20.113 0.366 4.512s0.914-0.792 2.768-1.219c2.114-0.486 3.39 0.244 3.39 0.244l-0.98-4.268s-0.544-1.952-3.349-1.464c-2.424 0.421-2.195 2.195-2.195 2.195z" fill="#fff"/><path d="m29.536 18.683c0.26-0.479 0.81-0.99 1.97-1.192 1.376-0.24 2.205 0.109 2.696 0.525l-0.316-1.373s-0.438-1.574-2.699-1.18c-1.953 0.339-1.77 1.768-1.77 1.768zm0.829-3.247c0.11-0.203 0.343-0.42 0.836-0.506 0.584-0.102 0.936 0.046 1.144 0.223l-0.265-1.665s-0.186-0.668-1.146-0.501c-0.829 0.144-0.75 0.75-0.75 0.75l0.18 1.699zm-0.231-2.733c0.087-0.159 0.269-0.329 0.654-0.395 0.456-0.08 0.732 0.036 0.894 0.174l-0.207-1.496s-0.146-0.522-0.896-0.392c-0.648 0.113-0.587 0.587-0.587 0.587zm134.52 101.55 14.5-9.25s-6.25-15-26.75-14.5-27.125 14-27 25.75c0.115 10.776 4.875 16.875 14 22.125 7.852 4.518 20.75 9.375 23.75 12.375s3.625 5.125 3.375 8-3.25 8-8.875 8.875c0 0-13.625 3.25-22.75-11.125l-14 8.625s3.375 9.875 16 15.125 28.875 3.625 37-2.375c0 0 10.125-6.125 10.375-20.375s-8-20.875-17.875-25.75-19.552-8.353-21.75-11.125c-2.875-3.625-3.625-8.375 0.875-12.75s14.625-3.625 19.125 6.375zm-84 69.25s13.5 0.5 21.5-8c7.167-7.167 6.167-16.833 6.5-22.333v-61.5h-18.167v65.333s0.5 10.5-10 10.5c-9.69 0-12.5-10-12.5-10l-14.833 9.167s6.333 16.5 27.5 16.833z" fill="#fff"/></g><style>.st0{fill:#fff}</style><g transform="matrix(.67912 0 0 .67912 1160.5 40)" fill="#fff"><path class="st0" d="m122.5 86.7c5.2 0 9.4-4 9.4-9.4 0-5.2-4.1-9.5-9.4-9.5-5.5 0-9.5 4.4-9.5 9.5 0 5.3 3.9 9.4 9.5 9.4"/><path class="st0" d="m78.5 149.6c8.4 0 9.4-10.3 9.4-25.7 0-18.7-2-25.8-9.5-25.8-8.9 0-9.6 12.1-9.6 25.8 0 13.1 0 25.7 9.7 25.7m-0.1-55.3c15.9 0 27.3 12.7 27.3 29.6 0 16.1-10.8 29.5-27.3 29.5-16.9 0-27.4-13.7-27.4-29.5 0-15.6 10.6-29.6 27.4-29.6"/><path class="st0" d="m222.4 139.9c0 3.4 1.6 9.6 8.3 9.6 7.3 0 11.5-6.1 11.5-25.2 0-7.1-0.8-23.3-11.3-23.3-5.6 0-7.4 4.5-8.5 7.1zm-23.6-70.1h23.6v31.4c2-2.2 6.5-6.8 14.7-6.8 14 0 22.8 12.3 22.8 28.1 0 15.4-8.3 30.9-28.3 30.9-2.8 0-6.8-0.9-11-3.5-2.8-1.8-6.3-1.8-9 0.1l-4.7 3.3h-1.4v-73.6c0-5.7-2.3-6.1-6.7-7z"/><path class="st0" d="m54 122.2h-1.8c-0.2 6.7-2.4 12.8-5.9 16.9-0.6 0.8-2.6 2.6-3.5 3.4-2 1.7-4.8 2.8-8.8 2.8-9.5 0-16.9-9.8-16.9-26.8 0-5.5 0.9-20.3 10.3-20.3 1.8 0 4.9 1.1 4.9 4.7 0 6.6 0 12.5 6.8 12.5 1 0 8.3 0 8.3-7.7 0-8.7-10.2-13.2-18.8-13.2-11.4 0-28.6 7.4-28.6 31.3 0 15 10.4 27.8 25.9 27.8 7.6 0 14.3-3 19.5-8.3 1-1.2 8.6-8.1 8.6-23.1"/><path class="st0" d="m346.3 151.6h-32.3v-2.9c3.9-0.8 6.6-1.2 6.6-7.3v-35.5c0-6-2.9-6.7-6.6-7.1v-3h22.9l0.1 4.4c0 1.6 2 2.4 3.2 1.1 3-3.4 7.3-7 12.8-7 8.3 0 10.1 6.6 10.1 9.5 0 3.1-1.7 8.1-7.7 8.1-7 0-6.9-7.1-10.8-7.1-1.8 0-7.1 2.7-7.1 11.5v22.9c0 7.4 1.5 9.3 8.8 9.6v2.9z"/><path class="st0" d="m194.3 141.9v-30.4c0-13.3-9.6-17.1-16.2-17.1s-11.9 4.2-14.8 7.2c-1 1-2.6 0.3-2.6-1.1v-4.6h-23.1v2.9c4.8 0.8 6.5 1.7 6.5 7.1v37.7c0 2.8-2.3 5.1-5.1 5.1h-2.8c-2.8 0-5.1-2.3-5.1-5.1v-47.8h-23.2v2.9c4.6 0.9 6.5 1.7 6.5 7.1v35.6c0 5.8-2 6.1-6.5 7.3v2.9h59v-2.9c-5.6-0.6-5.9-4.1-5.9-6.9v-32.4c0-1.1 5.2-7 10.1-7 6.6 0 6.7 6.7 6.7 10.1v29.4c0 4.5-1.7 6.6-5.7 6.9v2.9h28.5v-2.8c-6.3-0.4-6.3-4.1-6.3-7"/><path class="st0" d="m451.4 95.8v2.9c3 0.1 6.7 0.1 6.7 4 0 1.8-0.6 3.4-1.3 5.5l-8.3 23.2-8.7-22.4c-1.1-2.7-2.5-5.8-2.5-7 0-2.9 3.2-3 6.5-3.2v-3h-21.6c-3 0-5 3.1-3.8 5.8l7.2 15.9 14.5 35.7-2.2 6.5c-0.9 2.7-3.9 9.9-8 9.9-1.5 0-2-1.5-2-2s0.3-1.1 0.3-2.2c0-2.2-1.3-6.1-6.8-6.1-7.3 0-8 6.1-8 7.9 0 3.9 3.2 9.5 11.2 9.5 11.4 0 14-6.9 20-23l18.1-48.1c2.3-6 4.4-6.3 7-6.7v-3h-18.3z"/><path class="st0" d="m397.1 151.6h-32.3v-2.9c3.9-0.8 6.6-1.2 6.6-7.3v-35.5c0-6-2.9-6.7-6.6-7.1v-3h22.9l0.1 4.4c0 1.6 2 2.4 3.2 1.1 3-3.4 7.3-7 12.8-7 8.3 0 10.1 6.6 10.1 9.5 0 3.1-1.7 8.1-7.7 8.1-7 0-6.9-7.1-10.8-7.1-1.8 0-7.1 2.7-7.1 11.5v22.9c0 7.4 1.5 9.3 8.8 9.6v2.9z"/><path class="st0" d="m463.7 144.4h0.9c1 0 1.4-0.8 1.4-1.8 0-1.2-0.6-1.5-1.4-1.5h-0.9zm-2.3-3.7h3.5c1.2 0 2.4 0.5 2.4 1.8 0 1.1-0.6 1.8-1.6 2.2l1.2 1.6c0.5 0.8 1.2 1.4 1.5 1.7v0.2h-1.3c-0.6 0-1.2-1.4-2.5-3.2h-1v2c0 0.9 0 0.9 1 1v0.3h-3.2v-0.3c1-0.1 1-0.1 1-1v-4.8c0-0.9 0-0.9-1-1zm3.4-2.4c-3.3 0-5.8 2.9-5.8 6.1s2.6 6.1 5.8 6.1 5.8-2.9 5.8-6.1c-0.1-3.2-2.6-6.1-5.8-6.1m0 13.1c-3.9 0-7-3.1-7-7s3-7 7-7c3.9 0 6.9 3.1 6.9 7s-3.1 7-6.9 7"/><path class="st0" d="m298 117.5c-0.1-3.8-0.1-10.1-1.1-13.7-0.8-2.7-2.3-5.7-6.6-5.7-4.5 0-8.6 2.7-8.6 19.4zm15.5 20.7c-7.4 11.3-14.3 15.2-24 15.2-12.3 0-24.6-8.9-24.6-29.7 0-18 11.1-29.4 25-29.4 21.1 0 22.7 21.1 23 27.7h-30.6c0.3 10.3 3 22.7 14.5 22.7 7.1 0 11.4-5.4 13.7-8.1z"/><path class="st0" d="m555.2 27.9c-7.2 0-9.7 6.1-18.8 3.3-0.8-0.3-1.5 0.7-0.8 1.3 5.5 4.6 14.1 11.2 24 10.6 7.9-0.6 7.3-15.2-4.4-15.2"/><path class="st0" d="m564.5 48.7c-0.5 2.5-1.3 5.5-2 7.4-0.2 0.4-0.7 0.6-1.1 0.4-18.2-8.8-38.9 11.7-60.7 5.1-17.7-5.3-18.7-40 3.9-40.5 18.3-0.4 32.8 30.4 59 26.6 0.5-0.1 1 0.2 0.9 1"/><path class="st0" d="m509.2 79.3c9.5 1.2 22.8 8.9 30.8 9.3 0.7 0 0.9 0.9 0.4 1.4-4.7 3.9-9.5 6.3-13.8 6.3-6.8 0-15-6.1-22.3-15.2-1.2-1.7 2.9-2 4.9-1.8"/><path class="st0" d="m501.4 75.3c5.4-3.4 16.5 0.4 27.6 4.9 10.6 4.3 16.1 4.5 20.3 0.3 4.8-4.8 14.5-18.8 7.5-20.6-16.1-4.1-38.2 15.1-60.6 5.3-0.7-0.3-1.3 0.3-1 1 0.4 1.1 2.8 6.1 4.9 8.9 0.4 0.4 0.7 0.6 1.3 0.2"/><path class="st0" d="m518 0c6 0 6.8 8.1 13.1 15.4 0.5 0.7-0.1 1.3-0.5 1.3-20-0.8-21-16.7-12.6-16.7"/><path class="st0" d="m536.6 13.8c-1.1-0.7-2.3-1.8-3.2-3.2-0.2-0.2-0.2-0.5 0-0.8 1.8-2.9 3.4-6.7 5.8-8.3 3.7-2.8 10.6 0.6 7.8 6.2-1.1 2.2-3.6 4.5-6.2 6.1-1.8 1.1-3.4 0.6-4.2 0"/></g><g transform="matrix(1.7778 0 0 1.7778 921.91 302.81)" fill="#fff"><path class="style0" d="m93.151 44.816h-3.725v-14.842l-2.455 7.314h-1.658l-2.458-7.314v14.842h-3.682v-27.816h1.842l5.125 14.486 5.167-14.486h1.844v27.815zm10.689-7.999-1.518-11.635-1.517 11.635h3.036zm4.66 7.998h-3.576l-0.688-4.934h-3.826l-0.651 4.934h-3.397l4.226-27.813h3.688zm15.027 1e-3h-1.844l-6.248-15.85v15.85h-3.685v-27.816h1.843l6.211 15.962v-15.962h3.723v27.815zm16.615 0h-1.842l-6.248-15.85v15.85h-3.687v-27.816h1.843l6.212 15.962v-15.962h3.722v27.815zm8.67 0h-3.833v-27.816h3.833v27.815zm16.579 0h-1.842l-6.25-15.85v15.85h-3.685v-27.816h1.843l6.212 15.962v-15.962h3.722v27.815zm16.47-0.826c-1.086 0.672-2.455 1.01-4.118 1.01-5.398 0-8.093-4.711-8.093-14.126 0-9.37 2.553-14.056 7.657-14.056 0.844 0 1.654 0.109 2.422 0.327v2.953c-0.675-0.141-1.242-0.212-1.698-0.212-3.013 0-4.514 3.661-4.514 10.988 0 7.373 1.457 11.063 4.37 11.063 0.171 0 0.3-0.013 0.395-0.038v-5.765c0-1.364-0.156-2.305-0.47-2.813-0.238-0.406-0.649-0.61-1.224-0.61-0.29 0-0.497 0.013-0.616 0.036v-3.027a7.45 7.432 0 0 1 1.265-0.107c3.084 0 4.624 2.28 4.624 6.847zm17.911-18.557c0-3.555-1.069-5.335-3.209-5.335v12.254c0.6-0.096 1.224-0.634 1.875-1.625 0.89-1.342 1.334-3.107 1.334-5.294m3.866 0.036c0 3.193-0.987 5.815-2.96 7.851-1.301 1.327-2.671 2.181-4.115 2.562v8.934h-3.831v-27.814h2.923c2.29 0 4.132 0.608 5.531 1.835 1.634 1.467 2.452 3.677 2.452 6.632m14.812 12.505c0 2.304-0.59 4.094-1.769 5.37-1.04 1.102-2.348 1.655-3.938 1.655-1.567 0-2.868-0.553-3.9-1.656-1.157-1.275-1.737-3.065-1.737-5.369v-20.972h3.83v21.724c0 1.037 0.182 1.828 0.541 2.382 0.362 0.549 0.783 0.829 1.266 0.829 0.482 0 0.915-0.28 1.299-0.829 0.387-0.554 0.58-1.345 0.58-2.382v-21.724h3.827v20.972zm12.174-2.345c0-2.57-0.688-4.538-2.06-5.908a4.933 4.922 0 0 1-1.555 0.253v11.782c0.99 0 1.795-0.421 2.422-1.26 0.792-1.057 1.193-2.68 1.193-4.867m-0.76-12.178c0-2.187-0.95-3.315-2.855-3.386v6.738c1.906-0.049 2.855-1.166 2.855-3.352m4.66 12.178c0 3.34-0.89 5.793-2.673 7.352-1.42 1.226-3.31 1.834-5.669 1.834h-3v-27.813h3.07c1.999 0 3.67 0.492 5.02 1.477 1.59 1.151 2.384 2.81 2.384 4.972 0 2.16-0.697 3.785-2.096 4.864 0.7 0.554 1.326 1.354 1.881 2.412 0.719 1.467 1.083 3.102 1.083 4.902m13.111 9.187h-8.993v-27.816h3.828v24.755h5.165v3.06zm7.151 0h-3.83v-27.816h3.83v27.815zm13.727-0.068a6.689 6.673 0 0 1-1.88 0.252c-5.107 0-7.657-4.71-7.657-14.125 0-9.37 2.55-14.057 7.656-14.057 0.675 0 1.301 0.088 1.881 0.255v2.992c-0.651-0.12-1.086-0.179-1.3-0.179-2.913 0-4.368 3.66-4.368 10.989 0 7.372 1.478 11.062 4.441 11.062 0.285 0 0.696-0.051 1.227-0.144zm9.534-7.931-1.516-11.635-1.519 11.635zm4.66 7.998h-3.577l-0.682-4.934h-3.832l-0.65 4.934h-3.395l4.226-27.813h3.683l4.226 27.813zm13.003-24.75h-3.723v24.75h-3.827v-24.75h-3.72v-3.063h11.27zm7.152 24.751h-3.83v-27.816h3.83v27.815zm13.041-13.906c0-7.35-0.832-11.024-2.495-11.024-1.66 0-2.491 3.673-2.491 11.023s0.831 11.028 2.491 11.028c1.663 0 2.495-3.678 2.495-11.028m3.827 0c0 5.455-0.672 9.31-2.023 11.567-0.988 1.68-2.42 2.523-4.299 2.523-1.878 0-3.323-0.844-4.333-2.523-1.348-2.257-2.023-6.112-2.023-11.567 0-5.452 0.675-9.31 2.023-11.565 1.01-1.68 2.455-2.526 4.333-2.526s3.31 0.846 4.299 2.526c1.35 2.254 2.023 6.113 2.023 11.565m16.001 13.907h-1.842l-6.25-15.85v15.85h-3.68v-27.816h1.838l6.212 15.962v-15.962h3.722v27.815zm14.267-6.991c0 2.357-0.706 4.184-2.13 5.48-1.254 1.13-2.78 1.694-4.59 1.694-1.492 0-2.744-0.324-3.754-0.973l1.338-2.703c0.648 0.383 1.457 0.576 2.416 0.576 0.748 0 1.399-0.288 1.954-0.867 0.623-0.668 0.939-1.62 0.939-2.845 0-1.99-1.035-4.455-3.108-7.385-1.228-1.751-2.094-3.212-2.6-4.378a9.34 9.318 0 0 1-0.76-3.733c0-1.8 0.538-3.227 1.608-4.284 1.072-1.06 2.51-1.589 4.317-1.589 1.255 0 2.253 0.242 2.996 0.723l-1.299 2.666a4.375 4.375 0 0 0-1.734-0.361c-0.626 0-1.137 0.225-1.535 0.67-0.397 0.44-0.595 1.036-0.595 1.78 0 0.917 0.277 1.898 0.829 2.955 0.362 0.744 1.062 1.85 2.096 3.315 1.255 1.801 2.145 3.315 2.673 4.543 0.626 1.513 0.94 3.088 0.94 4.716"/><path d="m8.5 1e-3h26.25v27.542c1.503-9.076 2.794-18.36 4.191-27.542h26.25v44.998h-24.771v-38.605a2251.5 2246.1 0 0 0-5.794 38.605h-24.643v-40.205c-2.667 13.293-5.04 26.865-7.648 40.205h-2.34c2.807-14.862 5.6-29.74 8.38-44.628-0.01-0.179-0.018-0.349 0.126-0.37" fill-rule="evenodd"/></g><g transform="matrix(.57971 0 0 .57971 -.033043 0)" fill="#fff"><path d="m44.844 0c-7.84 0-12.354 0.768-16.154 2.793a19.085 19.085 0 0 0-7.972 7.975c-1.573 2.95-1.945 5.708-2.305 8.988-0.361 3.289-0.49 6.988-0.49 10.916v7.34h13v-7.34c0-3.625 0.134-6.948 0.414-9.498s0.93-4.442 0.853-4.299l0.01-0.018 0.01-0.02a6.08 6.08 0 0 1 2.549-2.548l0.02-0.01 0.017-0.01c1.832-0.979 2.799-1.269 10.048-1.269h222.16c7.25 0 8.215 0.29 10.049 1.27l0.017 0.01 0.018 7e-3a6.086 6.086 0 0 1 2.549 2.55l0.01 0.018 0.01 0.02c0.979 1.832 1.269 2.797 1.269 10.047v100.1h13v-100.1c0-7.841-0.77-12.353-2.795-16.152a19.087 19.087 0 0 0-7.97-7.975c-3.804-2.027-8.316-2.795-16.158-2.795zm-44.787 68.209v11.928h17.867v168.94c0 7.841 0.768 12.353 2.793 16.152a19.081 19.081 0 0 0 7.974 7.975c3.802 2.027 8.313 2.795 16.153 2.795h222.16c7.84 0 12.351-0.77 16.15-2.793a19.08 19.08 0 0 0 7.979-7.979c2.02-3.788 2.804-8.313 2.793-16.16l-0.098-67.267v-12.899h17.89v-11.927h-48.718v11.927h17.809l0.117 80.186c0.01 7.242-0.284 8.193-1.27 10.035l-0.02 0.04a6.082 6.082 0 0 1-2.548 2.548l-0.018 0.01-0.017 0.01c-1.834 0.98-2.8 1.269-10.049 1.269h-222.16c-7.25 0-8.216-0.29-10.045-1.27l-0.04-0.02a6.08 6.08 0 0 1-2.548-2.548l-0.01-0.02-0.01-0.017c-0.98-1.832-1.267-2.797-1.267-10.047v-168.94h17.851v-11.928z"/><path d="m56.669 68.209h44.352v11.508h-31.5v11.928h27.72v11.508h-27.721v12.348h31.92v11.508h-44.771zm81.825 59.808q-6.468 0-12.012-2.352t-9.576-6.384q-4.032-4.116-6.3-9.66t-2.268-11.844v-0.168q0-6.3 2.268-11.76 2.268-5.544 6.3-9.66 4.032-4.2 9.66-6.552 5.628-2.436 12.432-2.436 4.116 0 7.476 0.672 3.444 0.672 6.216 1.848t5.124 2.856 4.368 3.696l-8.232 9.492q-3.444-3.108-7.056-4.872-3.528-1.764-7.98-1.764-3.696 0-6.888 1.428-3.108 1.428-5.376 3.948t-3.528 5.88q-1.26 3.276-1.26 7.056v0.168q0 3.78 1.26 7.14t3.444 5.88q2.268 2.52 5.376 4.032 3.192 1.428 6.972 1.428 5.04 0 8.484-1.848 3.528-1.848 6.972-5.04l8.232 8.316q-2.268 2.436-4.704 4.368t-5.376 3.36q-2.856 1.344-6.3 2.016-3.444 0.756-7.728 0.756zm32.464-59.808h12.936v23.268h23.856v-23.268h12.936v58.8h-12.936v-23.604h-23.856v23.604h-12.936zm-90.531 88.767h13.944l15.456 24.864 15.456-24.864h13.944v58.8h-12.852v-38.388l-16.548 25.116h-0.336l-16.38-24.864v38.136h-12.684zm104.61 34.188-7.812-19.068-7.812 19.068zm-13.608-34.608h11.928l25.2 59.22h-13.524l-5.376-13.188h-24.864l-5.376 13.188h-13.189zm65.037 60.06q-6.72 0-13.188-2.268-6.468-2.352-11.76-7.14l7.644-9.156q4.032 3.276 8.232 5.208 4.284 1.932 9.324 1.932 4.032 0 6.216-1.428 2.268-1.512 2.268-4.116v-0.168q0-1.26-0.504-2.184-0.42-1.008-1.764-1.848-1.26-0.84-3.612-1.68-2.268-0.84-5.964-1.764-4.452-1.092-8.064-2.436t-6.132-3.276q-2.52-2.016-3.948-4.956-1.344-2.94-1.344-7.308v-0.168q0-4.032 1.512-7.224 1.512-3.276 4.2-5.628 2.772-2.352 6.552-3.612t8.316-1.26q6.468 0 11.844 1.932 5.46 1.932 9.996 5.544l-6.72 9.744q-3.948-2.688-7.728-4.2-3.78-1.596-7.56-1.596t-5.712 1.512q-1.848 1.428-1.848 3.612v0.168q0 1.428 0.504 2.52 0.588 1.008 2.016 1.848t3.864 1.596q2.52 0.756 6.3 1.764 4.452 1.176 7.896 2.688 3.528 1.428 5.88 3.528 2.436 2.016 3.612 4.788 1.26 2.772 1.26 6.636v0.168q0 4.368-1.596 7.812-1.596 3.36-4.452 5.712-2.856 2.268-6.804 3.528-3.948 1.176-8.736 1.176zm83.365-59.64h44.352v11.508h-31.5v11.928h27.72v11.508h-27.72v12.348h31.92v11.508h-44.772zm80.314 28.56q4.788 0 7.308-2.268 2.604-2.268 2.604-6.048v-0.168q0-4.2-2.688-6.3t-7.476-2.1h-12.852v16.884zm-26.04-28.56h26.88q11.172 0 17.136 5.964 5.04 5.04 5.04 13.44v0.168q0 7.14-3.528 11.676-3.444 4.452-9.072 6.552l14.364 21h-15.12l-12.6-18.816h-10.164v18.816h-12.936zm79.619 59.64q-6.72 0-13.188-2.268-6.468-2.352-11.76-7.14l7.644-9.156q4.032 3.276 8.232 5.208 4.284 1.932 9.324 1.932 4.032 0 6.216-1.428 2.268-1.512 2.268-4.116v-0.168q0-1.26-0.504-2.184-0.42-1.008-1.764-1.848-1.26-0.84-3.612-1.68-2.268-0.84-5.964-1.764-4.452-1.092-8.064-2.436t-6.132-3.276q-2.52-2.016-3.948-4.956-1.344-2.94-1.344-7.308v-0.168q0-4.032 1.512-7.224 1.512-3.276 4.2-5.628 2.772-2.352 6.552-3.612t8.316-1.26q6.468 0 11.844 1.932 5.46 1.932 9.996 5.544l-6.72 9.744q-3.948-2.688-7.728-4.2-3.78-1.596-7.56-1.596t-5.712 1.512q-1.848 1.428-1.848 3.612v0.168q0 1.428 0.504 2.52 0.588 1.008 2.016 1.848t3.864 1.596q2.52 0.756 6.3 1.764 4.452 1.176 7.896 2.688 3.528 1.428 5.88 3.528 2.436 2.016 3.612 4.788 1.26 2.772 1.26 6.636v0.168q0 4.368-1.596 7.812-1.596 3.36-4.452 5.712-2.856 2.268-6.804 3.528-3.948 1.176-8.736 1.176z"/></g><g transform="matrix(.37668 0 0 .37668 556.36 527.69)" fill="#fff"><path d="m226.53 4e-3c-2.84 0.056-5.936 0.644-9.004 1.154-17.07 3.13-30.4 11.57-38.4 27.57-5.46 10.94-10.31 22.311-19.08 31.231-1.64 1.67-0.89 3.11 0.17 4.39 2.13 2.59 1.79 5.29 1.46 8.41-1.64 16-6.18 31.64-3.74 48 0.53 3.53 2.88 7.89-0.66 11.53a1.9 1.9 0 0 0 0.39 1.82c2.39 1.45 1.98 4 2.46 6.1 2.81 12.28 6.3 24.32 12.11 35.54 7.8 15.04 18.4 27.21 36.07 29.9 9.91 1.51 20.17-0.25 30.17 0.23 12.88 0.61 21.09-5.79 29.33-13.5 4.76-4.45 8.57-9.73 12.36-15 0.67-0.93 1.23-2.36 2.13-2.65 6.33-2.06 8.72-7.59 10.82-12.87 7.26-18.27 13.78-36.73 15.45-56.62 1.06-12.51 2.489-24.97 0.429-37.44-0.77-4.92 0.09-10.12-2-14.76-15.16-33.549-39.288-52.229-77.719-52.889a17.365 17.365 0 0 0-2.746-0.144zm388.52 0.154c-5.39-0.078-10.877 0.361-16.44 1.291-17.04 2.86-30.13 12.04-37.9 28.21-5.15 10.71-10.07 21.69-18.61 30.37-0.95 0.97-1.51 2.14-0.68 3.07 4.88 5.44 1.58 11.34 1.09 17.06-1.13 13.17-4.68 26.11-2.68 39.61 0.58 3.9 3.02 8.52-0.55 12.52a1.88 1.88 0 0 0 0.43 1.76c2.48 1.58 2.03 4.29 2.57 6.58 3.6 15.34 8.09 30.35 17 43.62 7.61 11.34 17.62 19.76 31.45 21.51 9.79 1.24 19.93-0.35 29.7 0.18 13.76 0.75 22.27-6.56 30.7-14.94 4.08-4.082 7.36-8.98 11-13.52 0.72-0.9 1.2-2.37 2.1-2.68 6.63-2.28 8.75-8.22 11.29-13.73 5.32-11.6 8.59-23.89 11.75-36.2 1.43-5.59 3.24-11.18 3.78-16.88 0.63-6.55-0.38-13.25 1.32-19.77 0.99-1.93-0.38-4.18 0.84-6.03v-1c-1.7-3.07-1.65-6.49-2-9.84-0.61-5.94 0.06-12.25-2.21-17.73-6.232-15.09-15.26-28.38-28.59-38.17-13.887-10.177-29.19-15.057-45.362-15.289v-2e-3zm-534.48 2.004c-16.136-0.212-30.259 6.39-43.041 18.188-13.828 12.76-21.728 29.009-28.298 46.129-4.8 12.54-9.7 25.01-9.16 40.54-0.39 4.27 1 10.17 1.15 16.09 0.67 25.11 12.78 45.11 29.67 62.11 12.75 12.85 29.87 18.03 47.48 20.66 4.05 0.6 8.82-0.04 12.31-2.92 15.22-12.57 25.61-28.48 31.81-47.15a114 114 0 0 0 5.75-26.08c0.95-10.68 4.55-21.26 5.73-32.15 0.96-8.95-0.4-11.51-8.85-14.51-15.02-5.31-30.69-7.93-46.25-11a5 5 0 0 0-4.66 1c-6.47 5.73-13.15 11.2-18.41 18.2-1.28 1.69-0.55 4.96-3.84 5.1 0.14-2.15 0.23-4.29 0.4-6.43 1-12.47 7.26-20.071 18.88-23.191 4.29-1.16 8.63-0.729 12.9-0.539 5.62 0.25 9.99-1.84 13.82-5.61 5.95-5.87 10.71-12.67 15.48-19.48 1.98-2.82 3.22-5.4 2.15-9.13a17.93 17.93 0 0 1-0.13-9.35c2.62-10.17-3.43-18.23-13.94-18.66-2.31-0.06-4.73 0.53-6.91 0-4.848-1.164-9.523-1.757-14.04-1.817h-2e-3zm405.68 1.104a44.745 44.745 0 0 0-2.35 4e-3c-25.6 0.71-51.18 1.869-76.77 2.869-4.57 0.18-9.27 0.53-12.33 4.29-10.87 13.35-20.33 27.53-20.4 45.6-0.03 8.25 0.702 16.59 3.782 24.45 1.13 2.87 2.5 5.65 6.19 5.44a60.73 60.73 0 0 0 10.878-1.23c8.61-2.1 12.61 1.36 15.8 9 2.98 7.11 3.58 14.77 2.83 22.48-0.27 2.8-0.748 5.55-0.368 8.43 1.99 15.31 3.709 30.65 5.789 45.94 1.63 11.97 3.24 23.95 6.71 35.59 1.03 3.47 2.95 4.92 6.35 5 7.65 0.19 15.24 1.7 22.92 1.06a60.33 60.33 0 0 1 7.49 0.04c7.67 0.97 12.61-2.79 16.4-8.88 5.31-8.51 8.45-17.9 11.13-27.46 1.97-7 4.75-14.01 4.75-21.23 0.01-9.43-1.53-18.86-2.34-28.3-1.15-13.42-2.23-26.83-3.35-40.25a4.61 4.61 0 0 1 1.22-4.09c8.71-8.58 13.17-19.78 18.71-30.35 7.58-14.44 2.92-28.25-1.72-42.1-0.74-2.22-2.23-4.2-4.84-4.5-5.487-0.63-10.996-1.673-16.481-1.803zm-251.61 4.44c9.669 3e-3 19.17 1.792 27.927 6.112 20.15 9.94 33.5 26.59 38.57 49 1.09 4.82 2.842 10.262 1.632 14.692-3 10.82-0.571 21.707-2.061 32.488-1.31 9.51-2.09 19.09-5.59 28.13-1 2.69-2.08 5.472-4.65 8.132-0.48-5 0.38-9.38 0.49-13.75 0.42-16 1.29-31.912-0.55-47.852-3.64-31.57-20.76-51.219-51.14-60.789-14.99-4.73-29.16-3.58-43.92-0.07a32.5 32.5 0 0 1 21.83-14.33c5.798-1.125 11.66-1.766 17.462-1.764zm376.23 0.392c3.528-0.061 7.073 0.131 10.613 0.431 7.07 0.6 14.382 1.15 20.852 4.24 21.39 10.23 35.15 27 40.76 50.07 1.16 4.8 2.848 10.26 1.638 14.69-3 10.82-0.568 21.71-2.058 32.49-1.31 9.51-2.09 19.09-5.59 28.14a22.69 22.69 0 0 1-5.182 8.67 370.9 370.9 0 0 0 1.22-55.26c-1.11-22-7.999-41.77-26.519-55.46-13.06-9.65-28.44-14.43-44.26-16.06-8-0.83-16.53 2.4-25.86 4a37.15 37.15 0 0 1 17-12.85c5.674-2.194 11.506-3 17.386-3.101zm-529.14 0.718c4.71 0.068 9.426 0.613 14.096 1.493 4.16 0.79 4.73 3.5 1.89 6.89-5.11 6.09-11.25 9.81-19.39 8.69-3.5 0.53-6.8-0.12-10-0.78-8.24-1.68-15.5 1.88-23.1 3.79-1.06 0.27-2.759 2.17-3.789 0-0.71-1.52 0.76-2.32 1.74-3.21 7.27-6.6 14.63-13.31 24.5-15.5 4.64-1.03 9.343-1.44 14.053-1.373zm373.03 5.252a248.53 248.53 0 0 1 8.02 0.131c8.18 0 15.33 0.11 22.48 0 3.89-0.07 4.698 0.47 3.568 4.92-1.93 7.6-6.73 9.34-13.5 10.08-25.6 2.81-51.3 3.58-77 4.43-4.38 0.14-4.768-1.94-3.648-5.15 1.29-3.71 4.36-5.72 7.77-7.24 8.75-3.89 18.14-4.94 27.5-5.93a248.53 248.53 0 0 1 24.81-1.24zm-347.17 3.302c2.29 12.58-0.311 23.76-9.621 32.92-8.55-9.53-3.55-26.72 9.62-32.92zm391.24 5.697a3 3 0 0 1 0.994 0.194c1.4 0.4 1.251 1.77 1.371 2.91 0.37 3.79 0.78 7.59 1.19 11.48 0.61 4.56-0.91 8.69-3.1 12.66a3.6 3.6 0 0 1-3.74 1.89c-2-0.14-1.84-1.87-1.83-3 0-6.56-3-13.09-0.35-19.65a32.83 32.83 0 0 1 2.91-5.16 3 3 0 0 1 2.555-1.324zm-284.39 4.112a29.289 29.289 0 0 1 1.692 0.07c12.11 0.87 24 2.694 35 8.094 17.36 8.47 25.59 23.31 29 41.5 1.78 9.6 3.5 19.207 4.88 28.877 1 6.83-1.18 13.52-1.85 20.28-1.09 11.049-2.23 22.11-3.77 33.11-2.35 16.78-12.35 27.771-27.36 34.621-16.21 7.41-32.91 8.12-49.93 3.33a23 23 0 0 1-12.73-8.9c-13.81-18.79-21.13-39.86-23.22-63a152.07 152.07 0 0 1-0.88-15.79c-0.12-10.21 0.37-19.3 2.94-28.17 1-3.57 2.53-7 6.23-8.5 2.21-0.9 2-2.29 1.46-4-1.49-4.27-0.42-7.93 1.94-11.69 4.59-7.34 9.29-14.53 15.52-20.65 5.841-5.738 12.718-9.302 21.078-9.182zm381.38 0.064a28.47 28.47 0 0 1 1.622 0.059c12.29 0.78 24.328 2.54 35.55 8 17.529 8.54 25.89 23.449 29.18 41.879 1.68 9.45 3.46 18.89 4.83 28.38 1 6.83-1.18 13.52-1.83 20.28a1331.8 1331.8 0 0 1-3.44 31.67c-2.61 21.53-16.68 33.22-36.3 39.56-13.91 4.5-27.79 3.66-41.63 0a22.07 22.07 0 0 1-12.32-8.66c-13.92-18.93-21.32-40.13-23.35-63.43-0.48-5.52-0.86-10.98-0.86-16.47-0.12-9.15 0.38-18.24 2.91-27.12 1.08-3.77 2.64-7.25 6.54-8.83 2-0.83 1.74-2.24 1.23-3.61-1.74-4.69-0.19-8.58 2.31-12.58 4.51-7.19 9.17-14.22 15.33-20.17 5.776-5.578 12.217-9.012 20.227-8.958zm-514.7 3.127c2.834-0.05 7.317 5.002 7.457 8.602 0.17 5 0.1 10 0 15-0.05 3.38-1.764 5.43-5.264 5.16-6.45-0.5-12.996 1.23-19.396-0.92a5.57 5.57 0 0 0-6.604 2.26 88 88 0 0 0-5.44 7.709c-1.43 2.58-3.1 3.89-5.89 2.56-2.45-1.16-3.447 0.67-4.357 2.07s-0.49 2.41 1.49 3.22c2.46 1-1e-3 2.5-0.531 3.46-5.52 10.55-10.16 21.64-9.21 33.58 1.78 22.33 8.29 36.55 31.92 46.39 2.51 1 4.131 0.74 5.551-1.3 4.72-6.76 6.8-14.64 9.23-22.34 0.69-2.2-1.462-3.52-3.112-4.63-5.14-3.46-10.94-5.45-16.85-7-3.28-0.86-4.26-2.55-3.64-5.69 0.94-4.7 0.71-9.6 2.76-14.1 2.52-5.55 6-7.54 11.94-6.09 11.07 2.71 22.08 5.72 33.18 8.33 3.19 0.75 3.33 1.93 3.14 5-0.68 11.23-2.11 22.49-3.5 33.53-1.9 15.15-4.88 30.64-12.41 44.52-4.92 9.07-9.75 11.16-19.59 8.34-7-2-13.999-4-20.859-6.23-6-2-10.26-6.63-14.82-10.68-14-12.43-24.22-27.08-27.78-45.93-1-5.29 1.242-10.38-0.208-15.6-2.06-7.41-0.79-14.85-0.31-22.41 1-15.9 7.65-29.33 16-42.17 10.48-16 24.9-25 44.25-23.63 4.38-0.26 8.35 0.25 12.31-0.93 0.173-0.05 0.353-0.078 0.543-0.08zm372.9 9.559c6.908 0.04 13.82 0.32 20.725 1.07 3.67 0.4 6 1.891 7.33 4.941 2.76 6.52 3.426 13.46 3.146 20.48-0.11 2.67-2.167 3.3-4.457 3.7-6.85 1.22-13.63 2.89-20.51 3.74-3.2 0.39-3.29 1.711-3 4.121 1.17 11.74 2.217 23.48 3.387 35.22 1.5 15.05 3.1 30.08 4.59 45.13 1.201 12.06 2.002 24.18 3.572 36.2 0.56 4.39-1.18 6.35-4.68 7.33a54 54 0 0 1-16.41 2.29c-9.85 0.06-10.15 0.15-12.84-9a248.68 248.68 0 0 1-9.699-52.14c-1.49-20-2-40.13-5.84-59.93-1-4.92-2.6-7.59-8.34-7.16-6.1 0.46-12.293-0.39-18.443-0.36-3.37 0-5.42-1.3-6.24-4.43-2.09-8-1.54-16.16-1-24.29 0.13-2 1.74-1.58 3-1.8a308.68 308.68 0 0 1 45-4.73c6.895-0.22 13.802-0.422 20.71-0.382zm-220.45 32.698c1.051 1.065 1.682 2.73 2.262 4.143a55.477 55.477 0 0 1 2e-3 0c-0.58-1.413-1.213-3.078-2.264-4.143zm2.955 5.922c1.101 2.977 1.94 6.01 2.611 9.08-0.67-3.07-1.51-6.103-2.61-9.08zm2.611 9.08zm377.56-14.344c0.123 0.202 0.237 0.408 0.346 0.613a35.992 35.992 0 0 1 2e-3 0 11.483 11.483 0 0 0-0.348-0.613zm-537.73 5.557a15.694 15.694 0 0 1 2.8 0.347c12.26 2.59 24.2 6.67 36.74 8a3.56 3.56 0 0 1 3.487 4.05c-0.21 4.26-7.457 10.89-11.717 10.88-1.18 0-2.41 0.11-3.18-1-2.59-3.68-6-3.31-9.75-2.28-3.31 0.91-6.523 0-9.703-1.11-5.61-2-11.25-3.88-17-5.54-2.51-0.74-3-2-2.4-4.3 1.374-5.688 4.867-8.847 9.846-9.043 0.287-0.012 0.58-0.013 0.877-4e-3zm540.44 0.549zm1.606 5.7c0.878 3.851 1.435 7.783 2.035 11.688a119.9 119.9 0 0 1 2e-3 0c-0.6-3.905-1.159-7.837-2.037-11.687zm2.463 14.45zm0.966 8.184c0.354 3.56 0.635 6.974 0.965 10.074a76.05 76.05 0 0 1-0.855 15.16 76.05 76.05 0 0 0 0.857-15.16c-0.33-3.1-0.613-6.514-0.967-10.074zm0.11 25.234a76.05 76.05 0 0 1-2.145 9.55 9.903 9.903 0 0 1 2e-3 0 76.05 76.05 0 0 0 2.143-9.55zm-2.371 10.27zm-0.536 1.144zm-148.93-62.951c2.918 0.01 4.434 2.56 5.29 5.387 3 9.9 3.801 20.19 4.891 30.39 1.21 11.09 1.68 22.21 2.61 35.57 1.89 7.51-4.16 15.24-6.67 23.84-0.21 0.69-0.63 1.64-1.73 1.42s-0.782-1.27-0.862-2c-1.67-15.52-3.36-31-5-46.58-1.4-13.55-2.588-27.12-4.098-40.65-0.41-3.75 0.77-6.44 4.23-7.22a5.902 5.902 0 0 1 1.339-0.157zm-348.29 17.828a1.91 1.91 0 0 1 0.916 0.238c1.88 1 2.169 3.8 1.609 6.24-2.2 9.65-5.81 19.26-6.13 29-0.48 14.58-6.64 26.7-12.82 39.08a15.94 15.94 0 0 1-1.75 2.33c-2.04 0.03-1.4-1.278-1.19-2.378-2.14-9.7 3.16-18.122 4.7-27.192 1.13-6.62 3-12.89 2.91-20-0.15-8.4 3.54-16.67 8.07-24.08 0.812-1.332 2.1-3.14 3.564-3.234a1.91 1.91 0 0 1 0.12-4e-3zm-82.909 3.313c2.06 0.105 2.338 3.66 2.883 5.826 1.44 5.75 1.431 12.43 4.531 17s9.2 6.718 13.88 10.11a55.59 55.59 0 0 1 5.11 4.74c3 2.8 2.61 5.56 0.4 8.78s-4.37 3.22-8 2.12c-6.16-1.87-9.78-5.87-12.38-11.29-4.67-9.73-7.76-19.9-8.27-30.7 0.84-2.32-1.28-6.12 1.41-6.56a2.052 2.052 0 0 1 0.436-0.026zm200.38 3.736c0.482 4.094 1.002 8.199 1.237 12.326-0.235-4.127-0.755-8.232-1.237-12.326zm1.34 14.806a62.12 62.12 0 0 1-0.06 4.975 75.67 75.67 0 0 1-0.82 7.52 75.67 75.67 0 0 0 0.822-7.52c0.09-1.662 0.101-3.32 0.058-4.975zm-2.449 19.893a75.67 75.67 0 0 1-0.332 1.211c-0.257 0.937-0.538 1.713-0.85 2.33 0.312-0.617 0.595-1.393 0.852-2.33a75.67 75.67 0 0 0 0.33-1.21zm-1.182 3.541z"/><path d="m605.64 60.81c-6.584 0.139-13.11 3.103-16.215 9.938a212.09 212.09 0 0 0-3.15 7.262c-5.06 12.22-4 25.08-4 37.83 0 6-0.08 12 0.09 17.95 0.11 10.91 4.249 20.349 11.109 28.519 7.86 9.35 26.88 11.64 33.7-4.55 2.42-5.78 4.9-11.74 5-18 0.26-16.06 0.45-32.21-0.55-48.21-0.53-8.52-4.15-16.6-9.43-23.71-3.33-4.473-9.97-7.166-16.554-7.028zm-382.15 0.053c-6.517 0.17-12.974 3.101-16.049 9.846-1.09 2.4-2.17 4.81-3.17 7.25-5.1 12.33-4 25.41-4 38.33 0 5.79 0 11.62 0.07 17.49 0 10.93 4.28 20.27 11 28.56 7.31 9.02 24.96 10.56 31.51-0.55 4.1-6.97 7.08-14.46 7.28-22.39 0.41-15.9 0.5-31.87-0.5-47.72-0.57-8.67-4.2-16.94-9.73-24.1-3.317-4.297-9.894-6.886-16.41-6.716zm389.37 9.947c2-0.19 3.31 1.44 4.18 3.09 3.77 7.15 4.8 15.07 6 22.88 1.23 7.36 1.7 14.82 2.36 21.02a76.05 76.05 0 0 1-3 24.71c-1.14 4.11-3.53 3.82-5.62 1.56-5.51-6-7.51-13.1-7.93-21.39-0.29-5.88 0.85-11.65 0-17.57a81.72 81.72 0 0 1 1.22-30.64c0.41-1.68 0.91-3.48 2.79-3.66zm-381.72 0.734c0.172 4e-3 0.338 0.019 0.496 0.045 0.08 0.013 0.155 0.036 0.23 0.055 0.08 0.018 0.158 0.032 0.233 0.056 0.078 0.025 0.15 0.058 0.225 0.088 0.069 0.028 0.139 0.054 0.205 0.086 0.067 0.032 0.131 0.069 0.195 0.106 0.07 0.039 0.137 0.079 0.203 0.123 0.062 0.04 0.121 0.086 0.18 0.13 0.062 0.047 0.125 0.093 0.184 0.143 0.035 0.03 0.067 0.063 0.101 0.094 0.153 0.139 0.29 0.3 0.426 0.463 0.086 0.102 0.175 0.2 0.256 0.308 0.11 0.151 0.211 0.314 0.312 0.477 0.074 0.118 0.15 0.23 0.22 0.353 0.098 0.178 0.191 0.362 0.282 0.547 0.055 0.11 0.113 0.215 0.164 0.326 0.285 0.612 0.535 1.24 0.776 1.827 2.419 5.906 3.717 12.058 4.64 18.283 0.555 3.735 0.974 7.496 1.42 11.246 0.385 3.275 0.794 6.558 1.063 9.853s0.397 6.603 0.217 9.928a75.67 75.67 0 0 1-2.389 14.918 75.67 75.67 0 0 1-0.332 1.211c-0.086 0.312-0.174 0.608-0.266 0.885a10.577 10.577 0 0 1-0.584 1.445c-0.52 1.03-1.122 1.616-1.836 1.77-0.428 0.092-0.895 0.03-1.408-0.188a5.517 5.517 0 0 1-1.086-0.637h-2e-3a9.813 9.813 0 0 1-0.59-0.47h-1e-3a16.74 16.74 0 0 1-1.286-1.244c-1.125-1.208-2.01-2.54-2.746-3.954a25.57 25.57 0 0 1-0.69-1.435 33.064 33.064 0 0 1-0.61-1.48 47.404 47.404 0 0 1-0.553-1.51v-2e-3c-0.354-1.017-0.682-2.048-1.012-3.08a31.512 31.512 0 0 1-0.367-1.25c-0.028-0.105-0.051-0.209-0.078-0.313a32.937 32.937 0 0 1-0.62-2.967c-0.025-0.158-0.064-0.316-0.09-0.474a36.575 36.575 0 0 1-0.288-2.506c-0.34-4.182 6e-3 -8.375 0.593-12.569a9.38 9.38 0 0 0 0.092-1.148v-2e-3a11.32 11.32 0 0 0-0.035-1.123v-2e-3a21.06 21.06 0 0 0-0.309-2.2c-0.267-1.45-0.598-2.88-0.628-4.345-0.06-3.236-0.155-6.478-0.163-9.717a151.73 151.73 0 0 1 0.026-3.236v-2e-3c0.02-1.078 0.057-2.154 0.111-3.23v-2e-3c0.163-3.23 0.495-6.45 1.117-9.653 0.225-1.154 0.35-2.572 0.786-3.742v-2e-3c0.218-0.585 0.514-1.106 0.939-1.504 0.213-0.198 0.457-0.366 0.74-0.494 0.284-0.128 0.607-0.216 0.975-0.258 0.195-0.022 0.382-0.03 0.562-0.027zm-15.636 3.568c0.49-0.034 1.008 0.03 1.55 0.207 2.17 0.71 1.09 2.861 1.07 4.291-0.21 15.47 0.701 30.88 1.821 46.3 0.81 11.24 6.19 20 13 28.36 0.78 0.94 3.28 1.76 1.65 3.45s-2.6 4.64-6.2 4.09c-8.88-1.37-14-6.75-17.1-14.75-3.54-9.24-2.97-18.89-2.85-28.51-0.4-6.77 0-13.52-1-20.35-1.08-7.14 1.63-14 4.69-20.49 0.704-1.5 1.9-2.494 3.369-2.598zm382.37 0.035c0.266 7e-3 0.544 0.04 0.834 0.102 2.82 0.6 1.36 3.001 1.44 4.461 0.2 3.82 0.05 7.65 0.05 11.48a335.3 335.3 0 0 0 2.15 38.29c1 9.51 6.34 17.24 12.34 24.48 0.85 1 3.61 1.91 1.85 3.83s-2.81 4.73-6.73 3.92c-6.67-1.39-11.53-4.701-14.65-10.71a44.64 44.64 0 0 1-4.76-19.06c-0.49-11.59 0.61-23.19-1-34.83-0.91-6.53 1.76-13 4.56-19.06 0.77-1.671 2.053-2.945 3.916-2.903z"/></g></svg>
