<svg width="4200" height="4800" viewBox="0 0 4200 4800" fill="none" xmlns="http://www.w3.org/2000/svg">
<g clip-path="url(#clip0)">
<rect width="4200" height="4800" fill="white"/>
<path fill-rule="evenodd" clip-rule="evenodd" d="M1602.54 1912.84C1608.55 1896.45 1626.8 1888.01 1643.32 1893.97C1659.83 1899.93 1668.34 1918.05 1662.33 1934.43C1656.32 1950.82 1638.06 1959.27 1621.55 1953.3C1605.04 1947.34 1596.53 1929.22 1602.54 1912.84Z" fill="#4A90E2"/>
<path fill-rule="evenodd" clip-rule="evenodd" d="M3496.32 1461.61C3499.33 1453.38 3508.5 1449.14 3516.79 1452.14C3525.09 1455.13 3529.36 1464.23 3526.34 1472.46C3523.33 1480.69 3514.16 1484.93 3505.86 1481.93C3497.57 1478.94 3493.3 1469.84 3496.32 1461.61Z" fill="#4A90E2"/>
<path fill-rule="evenodd" clip-rule="evenodd" d="M870.992 1464.81C875.78 1451.76 890.323 1445.03 903.476 1449.78C916.629 1454.53 923.411 1468.96 918.624 1482.01C913.836 1495.06 899.293 1501.79 886.14 1497.04C872.987 1492.29 866.205 1477.86 870.992 1464.81Z" fill="#883397"/>
<path fill-rule="evenodd" clip-rule="evenodd" d="M2552.04 1138.03C2558.05 1121.65 2576.3 1113.2 2592.82 1119.16C2609.33 1125.13 2617.84 1143.24 2611.83 1159.63C2605.82 1176.01 2587.56 1184.46 2571.05 1178.5C2554.54 1172.53 2546.03 1154.42 2552.04 1138.03Z" fill="#333B97"/>
<path fill-rule="evenodd" clip-rule="evenodd" d="M3079.28 1475.76C3082.98 1465.68 3094.21 1460.48 3104.37 1464.15C3114.53 1467.82 3119.77 1478.97 3116.08 1489.05C3112.38 1499.13 3101.14 1504.33 3090.98 1500.66C3080.82 1496.99 3075.58 1485.84 3079.28 1475.76Z" fill="#883397"/>
<path fill-rule="evenodd" clip-rule="evenodd" d="M472.654 2239.42C476.352 2229.34 487.588 2224.14 497.749 2227.81C507.91 2231.48 513.149 2242.63 509.451 2252.71C505.753 2262.79 494.517 2267.99 484.356 2264.32C474.195 2260.65 468.955 2249.5 472.654 2239.42Z" fill="#883397"/>
<path fill-rule="evenodd" clip-rule="evenodd" d="M2765.74 2217.92C2773.47 2196.83 2796.98 2185.96 2818.23 2193.64C2839.49 2201.31 2850.44 2224.63 2842.71 2245.72C2834.97 2266.81 2811.47 2277.69 2790.22 2270.01C2768.96 2262.34 2758 2239.01 2765.74 2217.92Z" fill="#883397"/>
<path fill-rule="evenodd" clip-rule="evenodd" d="M3234.3 1919.41C3236.15 1914.36 3241.76 1911.76 3246.84 1913.6C3251.92 1915.43 3254.54 1921.01 3252.69 1926.05C3250.85 1931.09 3245.23 1933.69 3240.15 1931.86C3235.07 1930.02 3232.45 1924.45 3234.3 1919.41Z" fill="#653397"/>
<path fill-rule="evenodd" clip-rule="evenodd" d="M600.677 4247.58C617.872 4250.57 634.317 4238.98 637.408 4221.7C640.5 4204.42 629.067 4187.99 611.872 4185C594.678 4182.01 578.233 4193.6 575.142 4210.88C572.05 4228.16 583.483 4244.59 600.677 4247.58Z" fill="#4A90E2"/>
<path fill-rule="evenodd" clip-rule="evenodd" d="M1938.34 2833.13C1946.98 2834.63 1955.23 2828.81 1956.79 2820.14C1958.34 2811.46 1952.6 2803.21 1943.96 2801.7C1935.33 2800.2 1927.07 2806.02 1925.52 2814.7C1923.96 2823.38 1929.71 2831.63 1938.34 2833.13Z" fill="#4A90E2"/>
<path fill-rule="evenodd" clip-rule="evenodd" d="M1746.43 3812.69C1763.62 3815.68 1780.07 3804.09 1783.16 3786.81C1786.25 3769.53 1774.82 3753.1 1757.63 3750.11C1740.43 3747.12 1723.99 3758.71 1720.89 3775.99C1717.8 3793.28 1729.24 3809.71 1746.43 3812.69Z" fill="#333B97"/>
<path fill-rule="evenodd" clip-rule="evenodd" d="M1717.57 3187.22C1728.15 3189.06 1738.27 3181.93 1740.17 3171.3C1742.07 3160.66 1735.04 3150.55 1724.46 3148.71C1713.88 3146.87 1703.76 3154 1701.85 3164.64C1699.95 3175.27 1706.99 3185.39 1717.57 3187.22Z" fill="#883397"/>
<path fill-rule="evenodd" clip-rule="evenodd" d="M918.066 3087.68C940.2 3091.52 961.368 3076.61 965.347 3054.36C969.327 3032.12 954.61 3010.96 932.477 3007.12C910.344 3003.27 889.175 3018.19 885.196 3040.43C881.217 3062.68 895.933 3083.83 918.066 3087.68Z" fill="#883397"/>
<path fill-rule="evenodd" clip-rule="evenodd" d="M1410.87 2831.15C1416.16 2832.07 1421.22 2828.51 1422.17 2823.19C1423.12 2817.87 1419.61 2812.82 1414.31 2811.9C1409.02 2810.98 1403.96 2814.54 1403.01 2819.86C1402.06 2825.18 1405.58 2830.23 1410.87 2831.15Z" fill="#653397"/>
<path fill-rule="evenodd" clip-rule="evenodd" d="M2108.29 3704.13C2099.65 3705.63 2091.39 3699.81 2089.84 3691.14C2088.29 3682.46 2094.03 3674.21 2102.66 3672.7C2111.3 3671.2 2119.56 3677.02 2121.11 3685.7C2122.66 3694.38 2116.92 3702.63 2108.29 3704.13Z" fill="#4A90E2"/>
<path fill-rule="evenodd" clip-rule="evenodd" d="M2300.2 4683.69C2283 4686.68 2266.56 4675.09 2263.46 4657.81C2260.37 4640.53 2271.81 4624.1 2289 4621.11C2306.19 4618.12 2322.64 4629.71 2325.73 4646.99C2328.82 4664.28 2317.39 4680.71 2300.2 4683.69Z" fill="#333B97"/>
<path fill-rule="evenodd" clip-rule="evenodd" d="M2329.06 4058.22C2318.48 4060.06 2308.36 4052.93 2306.45 4042.3C2304.55 4031.66 2311.59 4021.55 2322.17 4019.71C2332.75 4017.87 2342.87 4025 2344.77 4035.64C2346.67 4046.27 2339.64 4056.39 2329.06 4058.22Z" fill="#883397"/>
<path fill-rule="evenodd" clip-rule="evenodd" d="M3128.56 3958.68C3106.43 3962.52 3085.26 3947.61 3081.28 3925.36C3077.3 3903.12 3092.02 3881.96 3114.15 3878.12C3136.28 3874.27 3157.45 3889.19 3161.43 3911.43C3165.41 3933.68 3150.69 3954.83 3128.56 3958.68Z" fill="#883397"/>
<path fill-rule="evenodd" clip-rule="evenodd" d="M2635.76 3702.15C2630.46 3703.07 2625.4 3699.51 2624.45 3694.19C2623.5 3688.87 2627.02 3683.82 2632.31 3682.9C2637.6 3681.98 2642.66 3685.54 2643.61 3690.86C2644.56 3696.18 2641.05 3701.23 2635.76 3702.15Z" fill="#653397"/>
<path fill-rule="evenodd" clip-rule="evenodd" d="M3751.95 3331.58C3734.75 3334.57 3718.31 3322.98 3715.22 3305.7C3712.13 3288.42 3723.56 3271.99 3740.75 3269C3757.95 3266.01 3774.39 3277.6 3777.48 3294.88C3780.58 3312.16 3769.14 3328.59 3751.95 3331.58Z" fill="#4A90E2"/>
<path fill-rule="evenodd" clip-rule="evenodd" d="M2414.29 1917.13C2405.65 1918.63 2397.39 1912.81 2395.84 1904.14C2394.29 1895.46 2400.03 1887.21 2408.66 1885.7C2417.3 1884.2 2425.56 1890.02 2427.11 1898.7C2428.66 1907.38 2422.92 1915.63 2414.29 1917.13Z" fill="#4A90E2"/>
<path fill-rule="evenodd" clip-rule="evenodd" d="M3729.72 4189.13C3716.02 4191.51 3702.92 4182.28 3700.46 4168.52C3697.99 4154.75 3707.1 4141.66 3720.8 4139.28C3734.49 4136.9 3747.59 4146.13 3750.06 4159.9C3752.52 4173.66 3743.41 4186.75 3729.72 4189.13Z" fill="#883397"/>
<path fill-rule="evenodd" clip-rule="evenodd" d="M2606.2 2896.69C2589 2899.68 2572.56 2888.09 2569.46 2870.81C2566.37 2853.53 2577.81 2837.1 2595 2834.11C2612.19 2831.12 2628.64 2842.71 2631.73 2859.99C2634.82 2877.28 2623.39 2893.71 2606.2 2896.69Z" fill="#333B97"/>
<path fill-rule="evenodd" clip-rule="evenodd" d="M2635.06 2271.22C2624.48 2273.06 2614.36 2265.93 2612.45 2255.3C2610.55 2244.66 2617.59 2234.55 2628.17 2232.71C2638.75 2230.87 2648.87 2238 2650.77 2248.64C2652.67 2259.27 2645.64 2269.39 2635.06 2271.22Z" fill="#883397"/>
<path fill-rule="evenodd" clip-rule="evenodd" d="M3434.56 2171.68C3412.43 2175.52 3391.26 2160.61 3387.28 2138.36C3383.3 2116.12 3398.02 2094.96 3420.15 2091.12C3442.28 2087.27 3463.45 2102.19 3467.43 2124.43C3471.41 2146.68 3456.69 2167.83 3434.56 2171.68Z" fill="#883397"/>
<path fill-rule="evenodd" clip-rule="evenodd" d="M2941.76 1915.15C2936.46 1916.07 2931.4 1912.51 2930.45 1907.19C2929.5 1901.87 2933.02 1896.82 2938.31 1895.9C2943.6 1894.98 2948.66 1898.54 2949.61 1903.86C2950.56 1909.18 2947.05 1914.23 2941.76 1915.15Z" fill="#653397"/>
<path fill-rule="evenodd" clip-rule="evenodd" d="M109.948 2739.58C92.7538 2742.57 76.3089 2730.98 73.2174 2713.7C70.1259 2696.42 81.5586 2679.99 98.7531 2677C115.947 2674.01 132.392 2685.6 135.484 2702.88C138.575 2720.16 127.143 2736.59 109.948 2739.58Z" fill="#4A90E2"/>
<path fill-rule="evenodd" clip-rule="evenodd" d="M87.7146 3597.13C74.018 3599.51 60.9183 3590.28 58.4558 3576.52C55.9932 3562.75 65.1002 3549.66 78.7968 3547.28C92.4934 3544.9 105.593 3554.13 108.056 3567.9C110.518 3581.66 101.411 3594.75 87.7146 3597.13Z" fill="#883397"/>
<path fill-rule="evenodd" clip-rule="evenodd" d="M957.716 3554.8C947.135 3556.64 937.015 3549.51 935.113 3538.87C933.21 3528.24 940.246 3518.12 950.827 3516.29C961.408 3514.45 971.528 3521.58 973.43 3532.21C975.333 3542.85 968.297 3552.96 957.716 3554.8Z" fill="#883397"/>
<path fill-rule="evenodd" clip-rule="evenodd" d="M1221.95 425.581C1204.75 428.568 1188.31 416.981 1185.22 399.699C1182.13 382.418 1193.56 365.986 1210.75 362.999C1227.95 360.011 1244.39 371.599 1247.48 388.88C1250.58 406.162 1239.14 422.593 1221.95 425.581Z" fill="#4A90E2"/>
<path fill-rule="evenodd" clip-rule="evenodd" d="M1199.71 1283.13C1186.02 1285.51 1172.92 1276.28 1170.46 1262.52C1167.99 1248.75 1177.1 1235.66 1190.8 1233.28C1204.49 1230.9 1217.59 1240.13 1220.06 1253.9C1222.52 1267.66 1213.41 1280.75 1199.71 1283.13Z" fill="#883397"/>
<path fill-rule="evenodd" clip-rule="evenodd" d="M76.1953 -9.3053C59.0009 -6.31771 42.5559 -17.9053 39.4645 -35.1869C36.373 -52.4685 47.8057 -68.8999 65.0001 -71.8874C82.1946 -74.875 98.6395 -63.2875 101.731 -46.0059C104.822 -28.7243 93.3897 -12.2929 76.1953 -9.3053Z" fill="#333B97"/>
<path fill-rule="evenodd" clip-rule="evenodd" d="M2069.72 1240.8C2059.13 1242.64 2049.02 1235.51 2047.11 1224.87C2045.21 1214.24 2052.25 1204.12 2062.83 1202.29C2073.41 1200.45 2083.53 1207.58 2085.43 1218.21C2087.33 1228.85 2080.3 1238.96 2069.72 1240.8Z" fill="#883397"/>
<path fill-rule="evenodd" clip-rule="evenodd" d="M3423.71 372.132C3410.02 374.512 3396.92 365.281 3394.46 351.515C3391.99 337.749 3401.1 324.66 3414.8 322.281C3428.49 319.901 3441.59 329.131 3444.06 342.897C3446.52 356.663 3437.41 369.752 3423.71 372.132Z" fill="#883397"/>
</g>
<defs>
<clipPath id="clip0">
<rect width="4200" height="4800" fill="white"/>
</clipPath>
</defs>
</svg>
