<svg width="1440" height="806" fill="none" xmlns="http://www.w3.org/2000/svg"><g clip-path="url(#clip0)"><path fill="#fff" d="M0 0h1440v806H0z"/><path fill-rule="evenodd" clip-rule="evenodd" d="M0 0h1440v807H0V0z" fill="#1C1E35"/><path d="M961.715 185.052l353.447 971.086" stroke="#333B97" stroke-width="20" stroke-linecap="square"/><path d="M924.127 198.733l353.447 971.086" stroke="#883397" stroke-width="20" stroke-linecap="square"/><path d="M-421.936 1129.438L763.842 134.452" stroke="#333B97" stroke-width="20" stroke-linecap="square"/><path d="M-396.224 1160.078L789.554 165.092" stroke="#883397" stroke-width="20" stroke-linecap="square"/><path d="M797.061 159.783s20.087-16.468 38.434-21.299c18.346-4.83 26.838-3.522 39.53 0 7.5 2.082 15.102 6.517 19.542 10.762 9.729 9.302 19.883 23.539 26.26 40.6" stroke="#883397" stroke-width="20"/><path d="M780.201 146.886s11.288-7.746 14.512-9.691c12.661-7.64 21.245-11.99 30.994-14.557 10.226-2.692 38.019-5.79 52.117-2.855 6.705 1.396 22.47 9.858 34.422 21.724 13.179 13.085 24.05 32.846 27.394 41.793" stroke="#4A90E2" stroke-width="20"/><path d="M763.801 133.955s22.184-14.877 25.408-16.822c8.132-4.907 22.192-11.042 32.766-13.494 5.89-1.366 12.94-2.137 16.428-3.055 10.225-2.692 29.597.119 43.695 3.055 3.731.777 15.608 4.68 25.578 11.03 7.947 5.064 16.304 14.023 21.605 19.286 13.179 13.084 27.654 38.037 30.999 46.984" stroke="#333B97" stroke-width="20"/><path d="M807.897 175.427s67.33-51.315 94.524 21.446" stroke="#653397" stroke-width="20"/><path d="M905.333 205.573l353.447 971.086" stroke="#653397" stroke-width="20" stroke-linecap="square"/><path d="M942.921 191.892l353.447 971.086" stroke="#4A90E2" stroke-width="20" stroke-linecap="square"/><path fill-rule="evenodd" clip-rule="evenodd" d="M882.944 219.972c-3.872 10.639 1.613 22.403 12.252 26.275 10.64 3.872 22.403-1.613 26.276-12.252 3.872-10.64-1.614-22.403-12.253-26.275-10.639-3.873-22.403 1.613-26.275 12.252z" fill="#653397"/><path fill-rule="evenodd" clip-rule="evenodd" d="M885.373 203.168c-2.928 8.044 1.22 16.938 9.264 19.866 8.044 2.928 16.939-1.22 19.867-9.264 2.928-8.044-1.22-16.938-9.264-19.866-8.044-2.928-16.939 1.22-19.867 9.264z" fill="#653397"/><path fill-rule="evenodd" clip-rule="evenodd" d="M896.39 233.459c-2.928 8.044 1.22 16.938 9.264 19.866 8.044 2.928 16.939-1.22 19.867-9.264 2.928-8.044-1.22-16.938-9.264-19.866-8.044-2.928-16.939 1.22-19.867 9.264zm-27.983 32.302c-2.172 5.968.905 12.567 6.873 14.74 5.968 2.172 12.567-.905 14.74-6.874 2.172-5.968-.905-12.567-6.873-14.74-5.969-2.172-12.568.906-14.74 6.874zm-21.009-29.994a6.5 6.5 0 1 0 12.216 4.446 6.5 6.5 0 0 0-12.216-4.446zm-21.112 31.69a4.5 4.5 0 1 0 8.457 3.079 4.5 4.5 0 0 0-8.457-3.079z" fill="#653397"/><path d="M-383.37 1175.398L802.41 180.412" stroke="#653397" stroke-width="20" stroke-linecap="square"/><path fill-rule="evenodd" clip-rule="evenodd" d="M217.912 555.464c-11.15-1.966-21.782 5.48-23.748 16.629-1.966 11.15 5.479 21.782 16.628 23.748 11.15 1.966 21.783-5.479 23.749-16.629 1.966-11.15-5.48-21.782-16.629-23.748z" fill="#333B97"/><path fill-rule="evenodd" clip-rule="evenodd" d="M240.62 553.375c-8.43-1.486-16.47 4.143-17.956 12.573-1.487 8.43 4.142 16.47 12.572 17.956 8.43 1.487 16.47-4.142 17.957-12.573 1.486-8.43-4.143-16.47-12.573-17.956zm-31.625 23.871c-8.43-1.486-16.47 4.143-17.956 12.573-1.487 8.43 4.142 16.47 12.572 17.956 8.43 1.487 16.47-4.142 17.957-12.573 1.486-8.43-4.143-16.47-12.573-17.956zm18.297-57.699c-6.255-1.102-12.22 3.074-13.323 9.329-1.103 6.255 3.074 12.22 9.329 13.322 6.254 1.103 12.22-3.074 13.322-9.328 1.103-6.255-3.074-12.22-9.328-13.323zm-51.962.993a6.5 6.5 0 1 0-2.257 12.802 6.5 6.5 0 0 0 2.257-12.802zm-18.3 40.436a4.5 4.5 0 1 0-1.563 8.864 4.5 4.5 0 0 0 1.563-8.864z" fill="#333B97"/><path fill-rule="evenodd" clip-rule="evenodd" d="M579.223 628.108a6.5 6.5 0 1 0 12.216 4.446 6.5 6.5 0 0 0-12.216-4.446zm386.894-59.959a3.264 3.264 0 1 0 6.135 2.232 3.264 3.264 0 0 0-6.135-2.232z" fill="#4A90E2"/><path fill-rule="evenodd" clip-rule="evenodd" d="M429.771 570.866a5.178 5.178 0 1 0 9.731 3.541 5.178 5.178 0 0 0-9.73-3.541z" fill="#883397"/><path fill-rule="evenodd" clip-rule="evenodd" d="M773.203 501.528a6.5 6.5 0 1 0 12.216 4.446 6.5 6.5 0 0 0-12.216-4.446z" fill="#333B97"/><path fill-rule="evenodd" clip-rule="evenodd" d="M787.539 305.228a4.5 4.5 0 1 0 8.457 3.079 4.5 4.5 0 0 0-8.457-3.079z" fill="#4A90E2"/><path fill-rule="evenodd" clip-rule="evenodd" d="M880.916 571.062a4 4 0 1 0 7.518 2.736 4 4 0 0 0-7.518-2.736zM442.368 744.759a4 4 0 1 0 7.518 2.736 4 4 0 0 0-7.518-2.736zm374.494-20.897a8.367 8.367 0 1 0 15.724 5.723 8.367 8.367 0 0 0-15.724-5.723z" fill="#883397"/><path fill-rule="evenodd" clip-rule="evenodd" d="M912.587 662.401a2 2 0 1 0 3.759 1.368 2 2 0 0 0-3.759-1.368z" fill="#653397"/><path fill-rule="evenodd" clip-rule="evenodd" d="M1149.337 592.243c1.966-11.15-5.48-21.782-16.629-23.748-11.15-1.966-21.782 5.479-23.748 16.628-1.966 11.15 5.479 21.783 16.629 23.749 11.15 1.966 21.782-5.48 23.748-16.629z" fill="#333B97"/><path fill-rule="evenodd" clip-rule="evenodd" d="M1151.43 614.95c1.487-8.43-4.142-16.469-12.572-17.955-8.43-1.487-16.47 4.142-17.956 12.572-1.487 8.43 4.142 16.47 12.573 17.957 8.43 1.486 16.47-4.143 17.956-12.573zm-23.88-31.624c1.487-8.43-4.142-16.47-12.572-17.956-8.43-1.487-16.47 4.142-17.956 12.572-1.487 8.43 4.142 16.47 12.573 17.957 8.43 1.486 16.47-4.143 17.956-12.573zm33.573-19.378a4 4 0 1 0-7.878-1.39 4 4 0 0 0 7.878 1.39zm41.098 43.296a6.5 6.5 0 1 0-12.802-2.257 6.5 6.5 0 0 0 12.802 2.257zm-7.596-83.59a4.5 4.5 0 1 0-8.864-1.563 4.5 4.5 0 0 0 8.864 1.563z" fill="#333B97"/><path fill-rule="evenodd" clip-rule="evenodd" d="M74.164 776.165c-4.286-24.309-27.468-40.54-51.777-36.254-24.309 4.286-40.54 27.468-36.254 51.777 4.286 24.309 27.468 40.54 51.777 36.254 24.309-4.286 40.54-27.468 36.254-51.777z" fill="#653397"/><path fill-rule="evenodd" clip-rule="evenodd" d="M95.448 806.18C92.207 787.8 74.68 775.529 56.3 778.77c-18.38 3.24-30.653 20.768-27.412 39.148 3.24 18.38 20.768 30.653 39.148 27.412 18.38-3.241 30.653-20.768 27.412-39.148zm-60.575-43.8c-3.24-18.38-20.768-30.653-39.148-27.412-18.38 3.24-30.653 20.768-27.412 39.148 3.24 18.38 20.768 30.653 39.148 27.412 18.38-3.241 30.653-20.768 27.412-39.148zm26.824-98.518c-2.404-13.637-15.408-22.743-29.045-20.338-13.637 2.405-22.742 15.409-20.338 29.045 2.405 13.637 15.409 22.743 29.046 20.338 13.636-2.404 22.742-15.408 20.337-29.045zm62.363 43.731c-1.358-7.708-8.708-12.854-16.416-11.495s-12.855 8.71-11.496 16.417c1.36 7.708 8.71 12.854 16.417 11.495 7.708-1.359 12.855-8.709 11.496-16.417zm5.316-82.849c-.94-5.336-6.03-8.9-11.365-7.959-5.337.941-8.9 6.03-7.959 11.366.941 5.336 6.03 8.9 11.366 7.958 5.336-.94 8.9-6.03 7.958-11.365z" fill="#653397"/><path d="M-409.08 1144.758L776.698 149.772" stroke="#4A90E2" stroke-width="20" stroke-linecap="square"/><path opacity=".652" fill-rule="evenodd" clip-rule="evenodd" d="M0 0h1440v807H0V0z" fill="#1C1E35"/></g><defs><clipPath id="clip0"><path fill="#fff" d="M0 0h1440v806H0z"/></clipPath></defs></svg>