<svg width="1440" height="806" fill="none" xmlns="http://www.w3.org/2000/svg"><g clip-path="url(#clip0)"><path fill="#fff" d="M0 0h1440v806H0z"/><path fill-rule="evenodd" clip-rule="evenodd" d="M0 0h1440v807H0V0z" fill="#1C1E35"/><path d="M-52.388 735.696h1547.924" stroke="#333B97" stroke-width="20" stroke-linecap="square"/><path d="M-52.388 755.696h1547.924" stroke="#4A90E2" stroke-width="20" stroke-linecap="square"/><path d="M-52.388 795.696h1547.924" stroke="#653397" stroke-width="20" stroke-linecap="square"/><path d="M-52.388 775.696h1547.924" stroke="#883397" stroke-width="20" stroke-linecap="square"/><path fill-rule="evenodd" clip-rule="evenodd" d="M1130.22 339.108a6.5 6.5 0 1 0 12.217 4.446 6.5 6.5 0 0 0-12.216-4.446zm205.899 39.041a3.264 3.264 0 1 0 6.135 2.232 3.264 3.264 0 0 0-6.135-2.232z" fill="#4A90E2"/><path fill-rule="evenodd" clip-rule="evenodd" d="M985.771 394.866a5.178 5.178 0 1 0 9.731 3.541 5.178 5.178 0 0 0-9.73-3.541z" fill="#883397"/><path fill-rule="evenodd" clip-rule="evenodd" d="M1170.22 238.108a6.5 6.5 0 1 0 12.217 4.446 6.5 6.5 0 0 0-12.216-4.446z" fill="#333B97"/><path fill-rule="evenodd" clip-rule="evenodd" d="M1091.544 120.228a4.5 4.5 0 1 0 8.457 3.079 4.5 4.5 0 0 0-8.457-3.079z" fill="#4A90E2"/><path fill-rule="evenodd" clip-rule="evenodd" d="M1260.364 326.759a4 4 0 1 0 7.518 2.736 4 4 0 0 0-7.518-2.736zm-141 269a4 4 0 1 0 7.518 2.736 4 4 0 0 0-7.518-2.736zm30.5-111.897a8.367 8.367 0 1 0 15.724 5.723 8.367 8.367 0 0 0-15.724-5.723z" fill="#883397"/><path fill-rule="evenodd" clip-rule="evenodd" d="M1282.587 472.401a2 2 0 1 0 3.759 1.368 2 2 0 0 0-3.759-1.368z" fill="#653397"/><path fill-rule="evenodd" clip-rule="evenodd" d="M1202.37 707.205c-7.277-8.673-20.207-9.804-28.88-2.527-8.673 7.278-9.805 20.208-2.527 28.881 7.277 8.673 20.208 9.804 28.88 2.527 8.674-7.278 9.805-20.208 2.528-28.881z" fill="#333B97"/><path fill-rule="evenodd" clip-rule="evenodd" d="M1221.114 720.2c-5.502-6.557-15.28-7.412-21.837-1.91-6.557 5.503-7.413 15.28-1.91 21.837 5.502 6.558 15.279 7.413 21.837 1.91 6.557-5.502 7.413-15.278 1.91-21.836zm-39.57-2.041c-5.502-6.558-15.28-7.413-21.837-1.91-6.557 5.502-7.413 15.279-1.91 21.836 5.502 6.558 15.279 7.413 21.837 1.91 6.557-5.502 7.413-15.278 1.91-21.836zm6.723-38.166a4 4 0 1 0-6.128 5.142 4 4 0 0 0 6.128-5.142zm59.593-3.661a6.5 6.5 0 1 0-9.958 8.357 6.5 6.5 0 0 0 9.958-8.357zm-68.918-47.907a4.5 4.5 0 1 0-6.895 5.785 4.5 4.5 0 0 0 6.895-5.785z" fill="#333B97"/><path opacity=".652" fill-rule="evenodd" clip-rule="evenodd" d="M0 0h1440v807H0V0z" fill="#1C1E35"/></g><defs><clipPath id="clip0"><path fill="#fff" d="M0 0h1440v806H0z"/></clipPath></defs></svg>