<svg width="1440" height="806" fill="none" xmlns="http://www.w3.org/2000/svg"><g clip-path="url(#clip0)"><path fill="#fff" d="M0 0h1440v806H0z"/><path fill-rule="evenodd" clip-rule="evenodd" d="M0 0h1440v807H0V0z" fill="#1C1E35"/><path d="M586.735-72.488l529.421 1454.572" stroke="#333B97" stroke-width="20" stroke-linecap="square"/><path d="M567.941-65.648l529.421 1454.573" stroke="#4A90E2" stroke-width="20" stroke-linecap="square"/><path d="M530.353-51.967l529.421 1454.573" stroke="#653397" stroke-width="20" stroke-linecap="square"/><path d="M549.147-58.807l529.421 1454.572" stroke="#883397" stroke-width="20" stroke-linecap="square"/><path fill-rule="evenodd" clip-rule="evenodd" d="M552.487 120.893c-3.872 10.639 1.613 22.403 12.252 26.275 10.64 3.872 22.403-1.613 26.276-12.252 3.872-10.64-1.614-22.403-12.253-26.275-10.639-3.873-22.403 1.613-26.275 12.252z" fill="#653397"/><path fill-rule="evenodd" clip-rule="evenodd" d="M554.373 98.168c-2.928 8.044 1.22 16.939 9.264 19.866 8.044 2.928 16.939-1.22 19.867-9.264 2.928-8.044-1.22-16.938-9.264-19.866-8.044-2.928-16.939 1.22-19.867 9.264zm18.017 35.291c-2.929 8.044 1.219 16.938 9.263 19.866 8.044 2.928 16.939-1.22 19.867-9.264 2.928-8.044-1.22-16.938-9.264-19.866-8.044-2.928-16.939 1.22-19.867 9.264zm-36.419 13.254a4 4 0 1 0 7.518 2.736 4 4 0 0 0-7.518-2.736zm-32.963-49.776a6.5 6.5 0 1 0 12.216 4.446 6.5 6.5 0 0 0-12.216-4.446zm-7.03 83.639a4.5 4.5 0 1 0 8.457 3.079 4.5 4.5 0 0 0-8.457-3.079z" fill="#653397"/><path fill-rule="evenodd" clip-rule="evenodd" d="M404.682 301.91a6.5 6.5 0 1 0-9.958 8.356 6.5 6.5 0 0 0 9.958-8.357zm-141.52 365.038a3.264 3.264 0 1 0-5.001 4.196 3.264 3.264 0 0 0 5.001-4.196z" fill="#4A90E2"/><path fill-rule="evenodd" clip-rule="evenodd" d="M528.982 201.101a5.178 5.178 0 1 0-7.933 6.657 5.178 5.178 0 0 0 7.933-6.657z" fill="#883397"/><path fill-rule="evenodd" clip-rule="evenodd" d="M417.314 533.19a6.5 6.5 0 1 0-9.958 8.357 6.5 6.5 0 0 0 9.958-8.357z" fill="#333B97"/><path fill-rule="evenodd" clip-rule="evenodd" d="M580.146 643.756a4.5 4.5 0 1 0-6.895 5.785 4.5 4.5 0 0 0 6.895-5.785z" fill="#4A90E2"/><path fill-rule="evenodd" clip-rule="evenodd" d="M303.24 591.707a4 4 0 1 0-6.13 5.142 4 4 0 0 0 6.13-5.142zm68.847-466.643a4 4 0 1 0-6.128 5.142 4 4 0 0 0 6.128-5.142zM202.938 459.833a8.367 8.367 0 1 0-12.82 10.756 8.367 8.367 0 0 0 12.82-10.756z" fill="#883397"/><path fill-rule="evenodd" clip-rule="evenodd" d="M208.3 573.464a2 2 0 1 0-3.064 2.57 2 2 0 0 0 3.065-2.57z" fill="#653397"/><path opacity=".652" fill-rule="evenodd" clip-rule="evenodd" d="M0 0h1440v807H0V0z" fill="#1C1E35"/></g><defs><clipPath id="clip0"><path fill="#fff" d="M0 0h1440v806H0z"/></clipPath></defs></svg>