<svg width="1440" height="806" fill="none" xmlns="http://www.w3.org/2000/svg"><g clip-path="url(#clip0)"><path fill="#fff" d="M0 0h1440v806H0z"/><path fill-rule="evenodd" clip-rule="evenodd" d="M0 0h1440v807H0V0z" fill="#1C1E35"/><path d="M580.936-253.44L-604.842 741.546" stroke="#333B97" stroke-width="20" stroke-linecap="square"/><path d="M568.08-268.761L-617.698 726.225" stroke="#4A90E2" stroke-width="20" stroke-linecap="square"/><path d="M542.37-299.403L-643.41 695.583" stroke="#653397" stroke-width="20" stroke-linecap="square"/><path d="M555.225-284.082L-630.553 710.904" stroke="#883397" stroke-width="20" stroke-linecap="square"/><path fill-rule="evenodd" clip-rule="evenodd" d="M126.185 161.212c11.237 1.38 21.465-6.612 22.845-17.85 1.38-11.237-6.611-21.465-17.849-22.845-11.237-1.38-21.466 6.612-22.845 17.85-1.38 11.237 6.611 21.465 17.849 22.845z" fill="#333B97"/><path fill-rule="evenodd" clip-rule="evenodd" d="M110.618 162.486c8.496 1.043 16.23-4.999 17.273-13.496 1.043-8.496-4.999-16.23-13.495-17.273-8.497-1.043-16.23 4.999-17.274 13.495-1.043 8.497 5 16.23 13.496 17.274zm26.332-22.493c8.497 1.043 16.23-4.999 17.274-13.496 1.043-8.496-4.999-16.23-13.496-17.273-8.496-1.043-16.23 4.999-17.273 13.495-1.043 8.497 4.999 16.23 13.496 17.274zm21.108 32.503a4 4 0 1 0 .975-7.94 4 4 0 0 0-.975 7.94zm-41.085 43.315a6.5 6.5 0 1 0 1.585-12.903 6.5 6.5 0 0 0-1.585 12.903zm83.077-11.965a4.5 4.5 0 1 0 1.097-8.933 4.5 4.5 0 0 0-1.096 8.933z" fill="#333B97"/><path fill-rule="evenodd" clip-rule="evenodd" d="M329.27 396.728a6.5 6.5 0 1 0-2.257 12.802 6.5 6.5 0 0 0 2.257-12.802zM455.502 767.33a3.264 3.264 0 1 0-1.134 6.43 3.264 3.264 0 0 0 1.134-6.43z" fill="#4A90E2"/><path fill-rule="evenodd" clip-rule="evenodd" d="M359.69 239.606a5.178 5.178 0 1 0-1.798 10.198 5.178 5.178 0 0 0 1.798-10.198z" fill="#883397"/><path fill-rule="evenodd" clip-rule="evenodd" d="M487.611 565.78a6.5 6.5 0 1 0-2.257 12.802 6.5 6.5 0 0 0 2.257-12.802z" fill="#333B97"/><path fill-rule="evenodd" clip-rule="evenodd" d="M683.417 545.811a4.5 4.5 0 1 0-1.563 8.864 4.5 4.5 0 0 0 1.563-8.864z" fill="#4A90E2"/><path fill-rule="evenodd" clip-rule="evenodd" d="M437.838 683.932a4 4 0 1 0-1.39 7.878 4 4 0 0 0 1.39-7.878zM190.626 282.208a4 4 0 1 0-1.39 7.878 4 4 0 0 0 1.39-7.878zm85.609 365.175a8.367 8.367 0 1 0-2.906 16.48 8.367 8.367 0 0 0 2.906-16.48z" fill="#883397"/><path fill-rule="evenodd" clip-rule="evenodd" d="M353.385 730.981a2 2 0 1 0-.695 3.94 2 2 0 0 0 .695-3.94z" fill="#653397"/><path opacity=".652" fill-rule="evenodd" clip-rule="evenodd" d="M0 0h1440v807H0V0z" fill="#1C1E35"/></g><defs><clipPath id="clip0"><path fill="#fff" d="M0 0h1440v806H0z"/></clipPath></defs></svg>