<svg width="1440" height="806" fill="none" xmlns="http://www.w3.org/2000/svg"><g clip-path="url(#clip0)"><path fill="#fff" d="M0 0h1440v806H0z"/><path fill-rule="evenodd" clip-rule="evenodd" d="M0 0h1440v807H0V0z" fill="#1C1E35"/><path d="M1173.29 140.46V-892.947" stroke="#333B97" stroke-width="20" stroke-linecap="square"/><path d="M1213.29 140.46V-892.947" stroke="#883397" stroke-width="20" stroke-linecap="square"/><path d="M2796.495-273.738L1341.922 255.683" stroke="#333B97" stroke-width="20" stroke-linecap="square"/><path d="M2789.655-292.532L1335.082 236.89" stroke="#4A90E2" stroke-width="20" stroke-linecap="square"/><path d="M2775.975-330.12L1321.402 199.301" stroke="#653397" stroke-width="20" stroke-linecap="square"/><path d="M2782.815-311.326L1328.242 218.095" stroke="#883397" stroke-width="20" stroke-linecap="square"/><path d="M1319.372 220.52s-24.508 8.605-43.4 6.87c-18.892-1.736-26.425-5.87-37.147-13.52-6.336-4.522-11.962-11.29-14.682-16.797-5.961-12.068-10.633-28.92-10.79-47.133" stroke="#883397" stroke-width="20"/><path d="M1330.807 238.405s-13.257 3.418-16.952 4.144c-14.51 2.849-24.065 4-34.103 3.078-10.53-.968-37.707-7.562-49.951-15.142-5.823-3.605-17.743-16.949-24.916-32.188-7.909-16.802-11.366-39.09-11.448-48.641" stroke="#4A90E2" stroke-width="20"/><path d="M1341.795 256.165s-25.935 6.393-29.63 7.118c-9.32 1.83-24.629 2.786-35.404 1.474-6.002-.73-12.891-2.418-16.482-2.748-10.53-.968-27.772-10.235-40.016-17.815-3.24-2.006-13.066-9.737-20.262-19.115-5.737-7.475-10.525-18.752-13.707-25.511-7.909-16.803-12.976-45.202-13.06-54.753" stroke="#333B97" stroke-width="20"/><path d="M1314.539 202.114s-80.82 25.193-81.49-52.482" stroke="#653397" stroke-width="20"/><path d="M1233.29 140.46V-892.947" stroke="#653397" stroke-width="20" stroke-linecap="square"/><path d="M1193.29 140.46V-892.947" stroke="#4A90E2" stroke-width="20" stroke-linecap="square"/><path fill-rule="evenodd" clip-rule="evenodd" d="M786.848 263.77c3.928.693 7.618-1.611 8.241-5.147.624-3.535-2.055-6.962-5.984-7.655-3.928-.693-7.617 1.612-8.24 5.147-.624 3.536 2.055 6.963 5.983 7.656zm-1.22-231.74c1.973.348 3.826-.81 4.139-2.585.313-1.776-1.032-3.497-3.005-3.845-1.973-.348-3.826.81-4.139 2.585-.313 1.776 1.033 3.497 3.005 3.845z" fill="#4A90E2"/><path fill-rule="evenodd" clip-rule="evenodd" d="M869.652 412.29c3.13.55 6.069-1.285 6.565-4.1.497-2.817-1.637-5.547-4.766-6.099-3.13-.552-6.069 1.284-6.565 4.1-.497 2.816 1.637 5.546 4.766 6.098z" fill="#883397"/><path fill-rule="evenodd" clip-rule="evenodd" d="M679.664 237.54c3.928.693 7.618-1.611 8.241-5.147.624-3.535-2.055-6.962-5.984-7.655-3.928-.693-7.617 1.612-8.24 5.147-.624 3.536 2.055 6.963 5.983 7.656z" fill="#333B97"/><path fill-rule="evenodd" clip-rule="evenodd" d="M578.794 344.314c2.72.479 5.274-1.116 5.706-3.564.431-2.447-1.423-4.82-4.143-5.3-2.72-.48-5.274 1.116-5.705 3.564-.432 2.447 1.423 4.82 4.142 5.3z" fill="#4A90E2"/><path fill-rule="evenodd" clip-rule="evenodd" d="M749.62 123.764c2.418.426 4.689-.992 5.072-3.167.384-2.176-1.265-4.285-3.682-4.711-2.417-.426-4.688.992-5.072 3.167-.383 2.176 1.265 4.285 3.683 4.711zm292.118 107.576c2.417.425 4.688-.993 5.071-3.168.384-2.176-1.265-4.285-3.682-4.711-2.417-.426-4.688.992-5.072 3.167-.383 2.176 1.265 4.285 3.683 4.711zM925.58 216.954c5.056.892 9.805-2.075 10.608-6.625.802-4.551-2.646-8.963-7.703-9.855-5.056-.891-9.805 2.075-10.608 6.626-.802 4.55 2.646 8.963 7.703 9.854z" fill="#883397"/><path fill-rule="evenodd" clip-rule="evenodd" d="M888.8 74.367c1.21.213 2.345-.496 2.537-1.584.191-1.088-.633-2.142-1.842-2.356-1.208-.213-2.343.496-2.535 1.584-.192 1.088.632 2.143 1.84 2.356z" fill="#653397"/><path fill-rule="evenodd" clip-rule="evenodd" d="M1137.99 123.655c-8.085 9.636-7.61 23.348 1.064 30.625 8.673 7.278 22.259 5.365 30.345-4.271 8.086-9.637 7.61-23.349-1.063-30.626-8.673-7.278-22.259-5.365-30.345 4.272z" fill="#333B97"/><path fill-rule="evenodd" clip-rule="evenodd" d="M1147.242 102.839c-6.114 7.286-5.754 17.653.804 23.156 6.558 5.502 16.83 4.056 22.944-3.23 6.114-7.286 5.754-17.654-.804-23.156-6.557-5.503-16.83-4.057-22.944 3.23zm6.74 40.008c-6.114 7.286-5.754 17.653.804 23.156 6.558 5.502 16.83 4.056 22.944-3.23 6.114-7.286 5.754-17.654-.804-23.156-6.557-5.503-16.83-4.057-22.944 3.23zm-43.687-1.795c-1.578 1.88-1.485 4.556.207 5.976 1.692 1.42 4.343 1.047 5.921-.833 1.578-1.88 1.485-4.556-.207-5.976-1.692-1.42-4.343-1.047-5.921.833zM1093.15 81.84c-2.565 3.056-2.414 7.403.336 9.711 2.75 2.308 7.058 1.701 9.622-1.354 2.564-3.056 2.413-7.404-.337-9.711-2.75-2.308-7.058-1.701-9.622 1.354zm-36.138 75.853c-1.775 2.116-1.67 5.125.233 6.723 1.904 1.597 4.886 1.178 6.661-.938 1.775-2.115 1.67-5.125-.233-6.723-1.904-1.597-4.886-1.177-6.661.938z" fill="#333B97"/><path opacity=".652" fill-rule="evenodd" clip-rule="evenodd" d="M0 0h1440v807H0V0z" fill="#1C1E35"/></g><defs><clipPath id="clip0"><path fill="#fff" d="M0 0h1440v806H0z"/></clipPath></defs></svg>