<svg width="1440" height="806" fill="none" xmlns="http://www.w3.org/2000/svg"><g clip-path="url(#clip0)"><path fill="#fff" d="M0 0h1440v806H0z"/><path fill-rule="evenodd" clip-rule="evenodd" d="M0 0h1440v807H0V0z" fill="#1C1E35"/><path d="M2315.24 494.217L860.669-35.203" stroke="#333B97" stroke-width="20" stroke-linecap="square"/><path d="M2322.08 475.424L867.509-53.996" stroke="#4A90E2" stroke-width="20" stroke-linecap="square"/><path d="M2335.76 437.836L881.189-91.584" stroke="#653397" stroke-width="20" stroke-linecap="square"/><path d="M2328.92 456.63L874.349-72.79" stroke="#883397" stroke-width="20" stroke-linecap="square"/><path fill-rule="evenodd" clip-rule="evenodd" d="M1068.317 462.412a6.5 6.5 0 1 0-9.959-8.356 6.5 6.5 0 0 0 9.959 8.356zM888.19 355.306a3.264 3.264 0 1 0-5.002-4.197 3.264 3.264 0 0 0 5.001 4.197z" fill="#4A90E2"/><path fill-rule="evenodd" clip-rule="evenodd" d="M1223.121 459.422a5.178 5.178 0 1 0-7.933-6.656 5.178 5.178 0 0 0 7.933 6.656z" fill="#883397"/><path fill-rule="evenodd" clip-rule="evenodd" d="M996.18 543.64a6.5 6.5 0 1 0-9.958-8.356 6.5 6.5 0 0 0 9.959 8.356z" fill="#333B97"/><path fill-rule="evenodd" clip-rule="evenodd" d="M1029.807 681.322a4.5 4.5 0 1 0-6.894-5.785 4.5 4.5 0 0 0 6.894 5.785z" fill="#4A90E2"/><path fill-rule="evenodd" clip-rule="evenodd" d="M941.793 429.504a4 4 0 1 0-6.129-5.142 4 4 0 0 0 6.129 5.142zm224.497-204.553a4 4 0 1 0-6.129-5.142 4 4 0 0 0 6.129 5.142zm-66.923 94.719a8.367 8.367 0 1 0-12.819-10.757 8.367 8.367 0 0 0 12.82 10.757z" fill="#883397"/><path fill-rule="evenodd" clip-rule="evenodd" d="M970.727 285.045a2 2 0 1 0-3.064-2.571 2 2 0 0 0 3.064 2.571z" fill="#653397"/><path fill-rule="evenodd" clip-rule="evenodd" d="M1126.414 91.838c3.872 10.639 15.636 16.124 26.275 12.252 10.64-3.872 16.125-15.636 12.252-26.275-3.872-10.64-15.636-16.125-26.275-12.253-10.639 3.873-16.124 15.636-12.252 26.276z" fill="#333B97"/><path fill-rule="evenodd" clip-rule="evenodd" d="M1113.25 73.216c2.929 8.045 11.823 12.192 19.867 9.264 8.045-2.928 12.192-11.822 9.264-19.866-2.928-8.044-11.822-12.192-19.866-9.264-8.044 2.928-12.192 11.822-9.264 19.866zm36.48 15.454c2.929 8.044 11.823 12.191 19.867 9.263 8.045-2.927 12.192-11.822 9.264-19.866-2.928-8.044-11.822-12.192-19.866-9.264-8.044 2.928-12.192 11.822-9.264 19.866zm-19.37 33.562a4 4 0 1 0 7.518-2.736 4 4 0 0 0-7.517 2.736zm-57.253-16.942a6.5 6.5 0 1 0 12.216-4.446 6.5 6.5 0 0 0-12.216 4.446zm48.375 68.59a4.5 4.5 0 1 0 8.457-3.077 4.5 4.5 0 0 0-8.457 3.078z" fill="#333B97"/><path opacity=".652" fill-rule="evenodd" clip-rule="evenodd" d="M0 0h1440v807H0V0z" fill="#1C1E35"/></g><defs><clipPath id="clip0"><path fill="#fff" d="M0 0h1440v806H0z"/></clipPath></defs></svg>