<svg width="1440" height="806" fill="none" xmlns="http://www.w3.org/2000/svg"><g clip-path="url(#clip0)"><path fill="#fff" d="M0 0h1440v806H0z"/><path fill-rule="evenodd" clip-rule="evenodd" d="M0 0h1440v807H0V0z" fill="#1C1E35"/><path d="M463.693 522.826L1310.21-69.913" stroke="#653397" stroke-width="20" stroke-linecap="square"/><path d="M-93.636-995.253l400.632 1495.18" stroke="#333B97" stroke-width="20" stroke-linecap="square"/><path d="M-74.316-1000.43L326.316 494.75" stroke="#4A90E2" stroke-width="20" stroke-linecap="square"/><path d="M-35.68-1010.78L364.952 484.4" stroke="#653397" stroke-width="20" stroke-linecap="square"/><path d="M-54.998-1005.61L345.634 489.57" stroke="#883397" stroke-width="20" stroke-linecap="square"/><path fill-rule="evenodd" clip-rule="evenodd" d="M1226.376 35.272c17.578 20.948 48.81 23.68 69.759 6.103 20.949-17.578 23.681-48.81 6.103-69.76-17.578-20.948-48.81-23.68-69.76-6.102-20.948 17.578-23.68 48.81-6.102 69.759z" fill="#4A90E2"/><path fill-rule="evenodd" clip-rule="evenodd" d="M1194.156 9.897c13.29 15.84 36.905 17.905 52.745 4.615 15.839-13.291 17.905-36.906 4.614-52.745-13.29-15.84-36.905-17.905-52.745-4.615-15.839 13.291-17.905 36.906-4.614 52.745z" fill="#4A90E2"/><path fill-rule="evenodd" clip-rule="evenodd" d="M1270.826 23.434c13.29 15.84 36.905 17.906 52.745 4.615 15.839-13.29 17.905-36.906 4.614-52.745-13.29-15.84-36.905-17.905-52.745-4.615-15.839 13.291-17.905 36.906-4.614 52.745z" fill="#4A90E2"/><path fill-rule="evenodd" clip-rule="evenodd" d="M1304.598 120.981c9.86 11.752 27.381 13.285 39.133 3.424 11.752-9.861 13.285-27.382 3.424-39.134-9.861-11.751-27.382-13.284-39.133-3.423-11.752 9.86-13.285 27.381-3.424 39.133zm-88.11 7.721c5.573 6.643 15.476 7.509 22.119 1.935 6.642-5.573 7.508-15.476 1.935-22.118-5.574-6.643-15.477-7.509-22.119-1.935-6.642 5.573-7.509 15.476-1.935 22.118zm40.796 82.435c3.859 4.598 10.714 5.198 15.313 1.34 4.598-3.86 5.198-10.715 1.34-15.314-3.859-4.598-10.715-5.198-15.313-1.34-4.599 3.86-5.199 10.715-1.34 15.314z" fill="#653397"/><path d="M498.107 571.975l846.518-592.739" stroke="#333B97" stroke-width="20" stroke-linecap="square"/><path d="M348.736 498.231s7.009 25.012 19.267 39.492c12.257 14.48 19.964 18.28 32.382 22.674 7.337 2.597 16.108 3.324 22.18 2.393 13.304-2.039 29.788-7.877 44.797-18.195" stroke="#883397" stroke-width="20"/><path d="M327.529 499.125s4.803 12.82 6.328 16.263c5.99 13.52 10.527 22.007 17.04 29.701 6.832 8.071 27.822 26.55 41.054 32.233 6.293 2.702 24.06 4.812 40.657 1.947 18.3-3.158 38.54-13.11 46.412-18.522" stroke="#4A90E2" stroke-width="20"/><path d="M306.677 500.312s9.64 24.91 11.165 28.353c3.847 8.685 11.845 21.773 19.1 29.848 4.04 4.497 9.375 9.172 11.705 11.925 6.832 8.07 24.313 16.878 37.545 22.56 3.502 1.504 15.47 5.119 27.28 5.635 9.413.41 21.397-2.135 28.759-3.406 18.3-3.158 44.47-15.296 52.342-20.707" stroke="#333B97" stroke-width="20"/><path d="M366.586 491.634s25.72 80.653 89.731 36.648" stroke="#653397" stroke-width="20"/><path d="M486.636 555.592l846.518-592.739" stroke="#4A90E2" stroke-width="20" stroke-linecap="square"/><path d="M475.165 539.209L1321.683-53.53" stroke="#883397" stroke-width="20" stroke-linecap="square"/><path fill-rule="evenodd" clip-rule="evenodd" d="M1152.782 611.677a6.5 6.5 0 1 0 11.258-6.5 6.5 6.5 0 0 0-11.258 6.5zm202.756-334.917a3.264 3.264 0 1 0 5.654-3.265 3.264 3.264 0 0 0-5.654 3.264z" fill="#4A90E2"/><path fill-rule="evenodd" clip-rule="evenodd" d="M1012.87 689.37a5.178 5.178 0 1 0 8.969-5.178 5.178 5.178 0 0 0-8.968 5.178z" fill="#883397"/><path fill-rule="evenodd" clip-rule="evenodd" d="M1180.502 381.716a6.5 6.5 0 1 0 11.258-6.5 6.5 6.5 0 0 0-11.258 6.5z" fill="#333B97"/><path fill-rule="evenodd" clip-rule="evenodd" d="M1039.346 244.555a4.5 4.5 0 1 0 7.794-4.5 4.5 4.5 0 0 0-7.794 4.5z" fill="#4A90E2"/><path fill-rule="evenodd" clip-rule="evenodd" d="M1303.012 343.898a4 4 0 1 0 6.928-4 4 4 0 0 0-6.928 4zm-148.84 447.598a4 4 0 1 0 6.928-4 4 4 0 0 0-6.928 4zm224.719-300.31a8.367 8.367 0 1 0 14.492-8.367 8.367 8.367 0 0 0-14.492 8.367z" fill="#883397"/><path fill-rule="evenodd" clip-rule="evenodd" d="M1393.336 378.35a2 2 0 1 0 3.464-2 2 2 0 0 0-3.464 2z" fill="#653397"/><path opacity=".652" fill-rule="evenodd" clip-rule="evenodd" d="M0 0h1440v807H0V0z" fill="#1C1E35"/></g><defs><clipPath id="clip0"><path fill="#fff" d="M0 0h1440v806H0z"/></clipPath></defs></svg>