<svg width="1326" height="1142" xmlns="http://www.w3.org/2000/svg"><g stroke-width="20" fill="none" fill-rule="evenodd" opacity=".5"><path d="M416.079 123.892L62.634 1094.974" stroke="#4A90E2" stroke-linecap="square"/><path d="M397.285 117.052L43.84 1088.134" stroke="#333B97" stroke-linecap="square"/><path d="M434.873 130.732L81.428 1101.815" stroke="#883397" stroke-linecap="square"/><path d="M1273.052 661.383L582.302 81.776" stroke="#4A90E2" stroke-linecap="square"/><path d="M1294.182 653.005L595.159 66.455" stroke="#333B97" stroke-linecap="square"/><path d="M1258.363 675.165L569.447 97.096" stroke="#883397" stroke-linecap="square"/><path d="M561.94 91.783c-13.392-10.979-26.203-18.078-38.434-21.299-18.346-4.83-26.838-3.522-39.531 0-7.5 2.082-15.101 6.517-19.541 10.762-9.73 9.302-19.883 23.538-26.26 40.6" stroke="#883397"/><path d="M578.799 78.887c-7.525-5.164-12.363-8.395-14.512-9.692-12.661-7.64-21.246-11.99-30.994-14.556-10.226-2.693-38.019-5.791-52.117-2.856-6.705 1.396-22.47 9.859-34.422 21.725-13.18 13.084-24.05 32.846-27.395 41.793" stroke="#4A90E2"/><path d="M591.756 63.225c-11.399-7.278-18.173-11.565-20.322-12.862-8.133-4.907-23.834-12.272-34.409-14.724-5.889-1.366-12.94-2.137-16.427-3.055-10.226-2.692-29.597.119-43.696 3.055-3.73.777-15.608 4.68-25.578 11.03-7.947 5.064-16.304 14.023-21.605 19.286-13.18 13.084-27.654 38.037-30.998 46.984" stroke="#333B97"/><path d="M551.103 107.426c-44.887-34.21-76.395-27.06-94.525 21.447" stroke="#653397"/><path d="M453.667 137.573L100.22 1108.655m1142.308-420.668l-685.937-575.57" stroke="#653397" stroke-linecap="square"/></g></svg>