<?xml version="1.0" encoding="UTF-8"?>
<svg width="1326px" height="1142px" viewBox="0 0 1326 1142" version="1.1" xmlns="http://www.w3.org/2000/svg" xmlns:xlink="http://www.w3.org/1999/xlink">
    <!-- Generator: Sketch 49 (51002) - http://www.bohemiancoding.com/sketch -->
    <title>fluid</title>
    <desc>Created with Sketch.</desc>
    <defs></defs>
    <g id="fluid" stroke="none" stroke-width="1" fill="none" fill-rule="evenodd" opacity="0.5">
        <g id="Group" transform="translate(42.000000, 31.000000)" stroke-width="20">
            <path d="M-318.369126,577.749218 L715.035291,577.749218" id="Line" stroke="#4A90E2" stroke-linecap="square" transform="translate(197.605198, 577.749218) scale(-1, 1) rotate(70.000000) translate(-197.605198, -577.749218) "></path>
            <path d="M-337.162978,570.908815 L696.241439,570.908815" id="Line" stroke="#333B97" stroke-linecap="square" transform="translate(178.811346, 570.908815) scale(-1, 1) rotate(70.000000) translate(-178.811346, -570.908815) "></path>
            <path d="M-299.575274,584.589621 L733.829144,584.589621" id="Line" stroke="#883397" stroke-linecap="square" transform="translate(216.399051, 584.589621) scale(-1, 1) rotate(70.000000) translate(-216.399051, -584.589621) "></path>
            <path d="M435.025615,340.652743 L1336.73399,340.652743" id="Line" stroke="#4A90E2" stroke-linecap="square" transform="translate(885.765135, 340.652743) scale(-1, 1) rotate(-40.000000) translate(-885.765135, -340.652743) "></path>
            <path d="M446.79323,328.867186 L1359.30299,328.867186" id="Line" stroke="#333B97" stroke-linecap="square" transform="translate(902.834131, 328.867186) scale(-1, 1) rotate(-40.000000) translate(-902.834131, -328.867186) "></path>
            <path d="M422.796985,355.330844 L1322.11219,355.330844" id="Line" stroke="#883397" stroke-linecap="square" transform="translate(872.143338, 355.330844) scale(-1, 1) rotate(-40.000000) translate(-872.143338, -355.330844) "></path>
            <path d="M396.173828,60.7832031 C409.565391,49.804293 422.376589,42.7046836 434.607422,39.484375 C452.953672,34.6539121 461.44572,35.9616038 474.138672,39.484375 C481.638297,41.5658028 489.239726,46.0011066 493.679688,50.2460938 C503.408543,59.5477211 513.562652,73.7844167 519.939453,90.8457031" id="Path-2" stroke="#883397" transform="translate(458.056641, 63.589326) scale(-1, 1) translate(-458.056641, -63.589326) "></path>
            <path d="M377.359375,47.8867188 C384.88448,42.7227936 389.721719,39.4923248 391.871094,38.1953125 C404.532474,30.5549655 413.116734,26.2053963 422.865234,23.6386719 C433.091077,20.9462657 460.884202,17.8475534 474.982422,20.7832031 C481.687436,22.1793774 497.452048,30.6415214 509.404297,42.5078125 C522.583305,55.5920405 533.454789,75.3537225 536.798828,84.3007813" id="Path-2" stroke="#4A90E2" transform="translate(457.079102, 51.947633) scale(-1, 1) translate(-457.079102, -51.947633) "></path>
            <path d="M356.720703,32.2246094 C368.119506,24.947403 374.893594,20.6602936 377.042969,19.3632813 C385.1751,14.4560514 400.876886,7.09147934 411.451172,4.63867188 C417.340597,3.27256301 424.391657,2.50215715 427.878906,1.58398438 C438.104749,-1.10842176 457.475998,1.7030222 471.574219,4.63867188 C475.305142,5.41555605 487.182433,9.31897167 497.152344,15.6699219 C505.099819,20.7325566 513.456247,29.69164 518.757812,34.9550781 C531.936821,48.0393061 546.41182,72.9923943 549.755859,81.9394531" id="Path-2" stroke="#333B97" transform="translate(453.238281, 41.219018) scale(-1, 1) translate(-453.238281, -41.219018) "></path>
            <path d="M414.578125,76.4262151 C459.464193,42.2162904 490.972331,49.3652344 509.102539,97.8730469" id="Path-2" stroke="#653397" transform="translate(461.840332, 76.538373) scale(-1, 1) translate(-461.840332, -76.538373) "></path>
            <path d="M-280.781421,591.430024 L752.622996,591.430024" id="Line" stroke="#653397" stroke-linecap="square" transform="translate(235.192903, 591.430024) scale(-1, 1) rotate(70.000000) translate(-235.192903, -591.430024) "></path>
            <path d="M410.297405,369.366158 L1305.72435,369.366158" id="Line" stroke="#653397" stroke-linecap="square" transform="translate(857.755497, 369.366158) scale(-1, 1) rotate(-40.000000) translate(-857.755497, -369.366158) "></path>
        </g>
    </g>
</svg>