<?xml version="1.0" encoding="UTF-8"?>
<svg width="1262px" height="1118px" viewBox="0 0 1262 1118" version="1.1" xmlns="http://www.w3.org/2000/svg" xmlns:xlink="http://www.w3.org/1999/xlink">
    <!-- Generator: Sketch 49 (51002) - http://www.bohemiancoding.com/sketch -->
    <title>Artboard</title>
    <desc>Created with Sketch.</desc>
    <defs></defs>
    <g id="Artboard" stroke="none" stroke-width="1" fill="none" fill-rule="evenodd" opacity="0.5" stroke-linecap="square">
        <g id="fluid" transform="translate(655.500000, 602.000000) scale(1, -1) rotate(10.000000) translate(-655.500000, -602.000000) translate(-258.000000, -235.000000)" stroke-width="20">
            <path d="M926.989043,969.518288 L1763.24007,581.201133" id="Line" stroke="#4A90E2" transform="translate(1345.379441, 775.231592) scale(-1, 1) rotate(-40.000000) translate(-1345.379441, -775.231592) "></path>
            <path d="M919.371051,974.661 L1740.74121,594.743831" id="Line" stroke="#333B97" transform="translate(1329.818184, 784.490985) scale(-1, 1) rotate(-40.000000) translate(-1329.818184, -784.490985) "></path>
            <path d="M730,1777.97257 C762.713728,1789.87939 798.843321,1773.12886 814.588455,1732.56048 L1167.91381,761.807036 C1182.615,720.464858 1165.86447,684.335265 1133.29482,672.480881" id="Line" stroke="#4A90E2" transform="translate(951.643413, 1227.104197) scale(-1, 1) rotate(70.000000) translate(-951.643413, -1227.104197) "></path>
            <path d="M739.413918,1758.43881 C761.470479,1766.46675 786.757215,1753.66607 798.002372,1724.47189 L1151.32773,753.718453 C1162.70485,723.033442 1153.34614,687.375057 1132.06805,679.630464" id="Line" stroke="#333B97" transform="translate(947.811732, 1220.211342) scale(-1, 1) rotate(70.000000) translate(-947.811732, -1220.211342) "></path>
            <path d="M713.492812,1797.68472 C714.610532,1798.09153 716.137619,1798.64735 718.074071,1799.35216 C761.339343,1815.09943 808.879593,1793.61282 827.662525,1742.40799 L1180.98788,771.654548 C1199.06159,720.760826 1177.57498,673.220576 1135.32263,657.841978" id="Line" stroke="#883397" transform="translate(950.459079, 1231.131281) scale(-1, 1) rotate(70.000000) translate(-950.459079, -1231.131281) "></path>
            <path d="M947.59866,965.104141 L1782.44086,576.910243" id="Line" stroke="#883397" transform="translate(1365.138621, 770.649883) scale(-1, 1) rotate(-40.000000) translate(-1365.138621, -770.649883) "></path>
            <path d="M965.449194,956.41371 L1798.88256,568.343069" id="Line" stroke="#653397" transform="translate(1382.302657, 762.522394) scale(-1, 1) rotate(-40.000000) translate(-1382.302657, -762.522394) "></path>
            <path d="M696.526161,1814.75299 L706.334692,1819.96317 C760.371879,1839.6311 819.22843,1811.80884 840.923147,1752.42467 L1194.2485,781.671229 C1216.8372,719.005592 1188.9288,660.902135 1135.30251,641.383764" id="Line" stroke="#653397" transform="translate(949.328005, 1233.802675) scale(-1, 1) rotate(70.000000) translate(-949.328005, -1233.802675) "></path>
            <g id="Group" transform="translate(748.333620, 773.377324) rotate(130.000000) translate(-748.333620, -773.377324) translate(105.333620, 336.877324)">
                <path d="M427.806478,977.349025 C460.520206,989.255848 496.811846,970.450693 512.55698,929.882307 L865.882337,-40.871133 C880.583524,-82.2133108 863.832992,-118.342904 831.263341,-130.197287" id="Line" stroke="#4A90E2" transform="translate(649.530915, 425.340997) scale(-1, 1) rotate(70.000000) translate(-649.530915, -425.340997) "></path>
                <path d="M441.843989,952.192588 C463.90055,960.22052 490.209622,948.485295 501.454779,919.291114 L856.225609,-53.8117024 C867.602732,-84.4967133 856.861353,-108.655322 835.583259,-116.399915" id="Line" stroke="#333B97" transform="translate(651.339380, 419.129040) scale(-1, 1) rotate(70.000000) translate(-651.339380, -419.129040) "></path>
                <path d="M410.595158,1000.79832 C453.86043,1016.54559 501.025218,995.011889 519.80815,943.807059 L873.133507,-26.9463817 C891.207218,-77.8401042 869.720607,-125.380354 827.468258,-140.758951 L821.006424,-142.184453 C822.357525,-143.238904 820.086896,-143.861853 814.194536,-144.053302" id="Line" stroke="#883397" transform="translate(645.083064, 430.903898) scale(-1, 1) rotate(70.000000) translate(-645.083064, -430.903898) "></path>
                <path d="M395.373346,1024.17916 C449.410534,1043.84709 507.226158,1016.1123 528.920874,956.728128 L882.246231,-14.0253118 C904.834928,-76.690949 879.512603,-133.968064 825.886319,-153.486435 L816.36022,-156.052529 C813.540798,-156.602578 811.108861,-157.036171 809.064409,-157.353308" id="Line" stroke="#653397" transform="translate(642.942246, 436.547329) scale(-1, 1) rotate(70.000000) translate(-642.942246, -436.547329) "></path>
            </g>
        </g>
    </g>
</svg>