<?xml version="1.0" encoding="UTF-8"?>
<svg width="23px" height="32px" viewBox="0 0 23 32" version="1.1" xmlns="http://www.w3.org/2000/svg" xmlns:xlink="http://www.w3.org/1999/xlink">
    <!-- Generator: Sketch 49 (51002) - http://www.bohemiancoding.com/sketch -->
    <title>placeholder</title>
    <desc>Created with Sketch.</desc>
    <defs></defs>
    <g id="Welcome" stroke="none" stroke-width="1" fill="none" fill-rule="evenodd">
        <g id="Past-Events" transform="translate(-1078.000000, -489.000000)" fill="#FFFFFF" fill-rule="nonzero">
            <g id="placeholder" transform="translate(1078.000000, 489.000000)">
                <path d="M11.5,0 C5.1589,0 0,5.04675 0,11.25 C0,13.345875 0.593463889,15.39125 1.71663056,17.16575 L10.8453944,31.5568125 C11.0202583,31.8325 11.3283306,32 11.6596583,32 C11.6622139,32 11.6647056,32 11.6672611,32 C12.0014639,31.9974375 12.310175,31.82475 12.4818444,31.54425 L21.377925,17.01375 C22.4391194,15.27675 23,13.2836875 23,11.25 C23,5.04675 17.8411,0 11.5,0 Z M19.7331056,16.051125 L11.6451556,29.261625 L3.34566944,16.177875 C2.41078333,14.700875 1.90388889,12.996875 1.90388889,11.25 C1.90388889,6.080625 6.21575,1.8625 11.5,1.8625 C16.78425,1.8625 21.0897222,6.080625 21.0897222,11.25 C21.0897222,12.9450625 20.6162417,14.6055 19.7331056,16.051125 Z" id="Shape"></path>
                <path d="M11.5,6 C8.4673,6 6,8.4673 6,11.5 C6,14.5133278 8.42715,17 11.5,17 C14.6107389,17 17,14.4802056 17,11.5 C17,8.4673 14.5327,6 11.5,6 Z M11.5,15.1788889 C9.46762778,15.1788889 7.82111111,13.5268722 7.82111111,11.5 C7.82111111,9.4782 9.4782,7.82111111 11.5,7.82111111 C13.5218,7.82111111 15.1727778,9.4782 15.1727778,11.5 C15.1727778,13.4972944 13.5645778,15.1788889 11.5,15.1788889 Z" id="Shape"></path>
            </g>
        </g>
    </g>
</svg>