<svg width="720" height="1080" fill="none" xmlns="http://www.w3.org/2000/svg"><path fill="#fff" d="M0 0h720v1080H0z"/><path fill="#1C1E35" d="M0 0h720v1080H0z"/><g opacity=".5" fill-rule="evenodd" clip-rule="evenodd"><path d="M200.223 147.108a6.5 6.5 0 1 0 12.217 4.446 6.5 6.5 0 0 0-12.217-4.446z" fill="#4A90E2"/><path d="M50.77 89.865a5.178 5.178 0 1 0 9.731 3.542 5.178 5.178 0 0 0-9.73-3.541zm12.598 173.894a4 4 0 1 0 7.518 2.736 4 4 0 0 0-7.518-2.736z" fill="#883397"/><path d="M587.116 87.149a3.265 3.265 0 1 0 6.136 2.232 3.265 3.265 0 0 0-6.136-2.232z" fill="#4A90E2"/><path d="M394.203 20.528a6.5 6.5 0 1 0 12.216 4.446 6.5 6.5 0 0 0-12.216-4.446z" fill="#333B97"/><path d="M501.917 90.061a4 4 0 1 0 7.517 2.737 4 4 0 0 0-7.517-2.737zm-64.055 152.801a8.367 8.367 0 1 0 15.725 5.725 8.367 8.367 0 0 0-15.725-5.725z" fill="#883397"/><path d="M533.587 181.402a2 2 0 1 0 3.757 1.368 2 2 0 0 0-3.757-1.368z" fill="#653397"/></g><g opacity=".5" fill-rule="evenodd" clip-rule="evenodd"><path d="M420.223 517.108a6.5 6.5 0 1 0 12.217 4.446 6.5 6.5 0 0 0-12.217-4.446z" fill="#4A90E2"/><path d="M270.771 459.865a5.178 5.178 0 1 0 9.73 3.543 5.178 5.178 0 0 0-9.73-3.543zm12.597 173.894a4 4 0 1 0 7.518 2.736 4 4 0 0 0-7.518-2.736z" fill="#883397"/><path d="M614.203 390.528a6.5 6.5 0 1 0 12.216 4.446 6.5 6.5 0 0 0-12.216-4.446z" fill="#333B97"/><path d="M657.862 612.862a8.367 8.367 0 1 0 15.725 5.725 8.367 8.367 0 0 0-15.725-5.725z" fill="#883397"/></g><g opacity=".5" fill-rule="evenodd" clip-rule="evenodd"><path d="M173.777 377.108a6.5 6.5 0 1 1-12.217 4.446 6.5 6.5 0 0 1 12.217-4.446z" fill="#4A90E2"/><path d="M173.229 269.865a5.178 5.178 0 1 1-9.73 3.543 5.178 5.178 0 0 1 9.73-3.543zm-12.597 173.894a4 4 0 1 1-7.518 2.736 4 4 0 0 1 7.518-2.736z" fill="#883397"/></g><path d="M51.23 767.865a5.178 5.178 0 1 1-9.732 3.543 5.178 5.178 0 0 1 9.731-3.543zM38.632 941.759a4 4 0 1 1-7.518 2.736 4 4 0 0 1 7.518-2.736z" opacity=".5" fill-rule="evenodd" clip-rule="evenodd" fill="#883397"/><g opacity=".5" fill-rule="evenodd" clip-rule="evenodd"><path d="M701.777 845.108a6.5 6.5 0 1 1-12.217 4.446 6.5 6.5 0 0 1 12.217-4.446zm-386.893-59.959a3.264 3.264 0 1 1-6.134 2.232 3.264 3.264 0 0 1 6.134-2.232z" fill="#4A90E2"/><path d="M400.083 788.061a4 4 0 1 1-7.517 2.737 4 4 0 0 1 7.517-2.737z" fill="#883397"/><path d="M368.413 879.402a2 2 0 1 1-3.757 1.368 2 2 0 0 1 3.757-1.368z" fill="#653397"/></g><g opacity=".5" fill-rule="evenodd" clip-rule="evenodd"><path d="M591.229 807.865a5.178 5.178 0 1 1-9.73 3.543 5.178 5.178 0 0 1 9.73-3.543zm-12.597 173.894a4 4 0 1 1-7.518 2.736 4 4 0 0 1 7.518-2.736z" fill="#883397"/><path d="M54.884 805.149a3.263 3.263 0 0 1-1.951 4.183 3.263 3.263 0 1 1-2.233-6.134 3.263 3.263 0 0 1 4.184 1.951z" fill="#4A90E2"/><path d="M247.797 738.528a6.5 6.5 0 1 1-12.216 4.446 6.5 6.5 0 0 1 12.216-4.446z" fill="#333B97"/><path d="M140.083 808.061a4 4 0 1 1-7.517 2.737 4 4 0 0 1 7.517-2.737zm64.055 152.801a8.367 8.367 0 1 1-15.725 5.725 8.367 8.367 0 0 1 15.725-5.725z" fill="#883397"/><path d="M108.413 899.402a2 2 0 1 1-3.757 1.368 2 2 0 0 1 3.757-1.368z" fill="#653397"/></g><g opacity=".5" stroke-width="20" stroke-linecap="square"><path d="M1260.97 1539.64c26.66-22.37 30.22-62.04 2.96-95.96L599.897 652.316c-28.453-33.403-68.117-36.961-94.668-14.682" stroke="#4A90E2"/><path d="M1248.9 1523.35c17.98-15.09 19.54-43.39-.12-67.73L584.741 664.259c-20.885-25.195-56.446-34.92-73.792-20.365" stroke="#333B97"/><path d="M1269.21 1557.26c1.37-1.15 3.74-3.13 3.74-3.13 35.27-29.6 40.43-81.51 5.48-123.38L614.39 639.382c-35.038-41.099-86.952-46.261-121.397-17.359" stroke="#883397"/><path d="M1275.08 1575.59l9.42-5.89c44.05-36.96 49.38-101.85 8.8-150.33L629.267 628.008c-42.976-50.896-107.249-55.778-150.966-19.095" stroke="#653397"/><path d="M551.085 621.548c-34.284-6.045-66.759 18.776-75.22 61.462L296.477 1700.37c-7.299 43.27 15.471 75.94 49.604 81.96" stroke="#4A90E2"/><path d="M548.763 641.626c-23.115-4.076-46.987 12.049-52.992 42.753L315.368 1704.3c-5.876 32.2 8.897 54.12 31.197 58.06" stroke="#333B97"/><path d="M554.298 605.131c-45.342-7.995-88.051 21.402-97.657 75.09L277.253 1697.58c-8.962 53.26 20.454 96.35 64.735 104.15l6.611.29s-1.721 1.91 7.033.65" stroke="#883397"/><path d="M558.171 586.52c-56.632-9.986-108.753 27.367-119.806 89.617L258.977 1693.5c-11.364 65.63 23.52 117.64 79.721 127.55l9.827.88s4.308.07 7.411.01" stroke="#653397"/></g><g opacity=".5" stroke-width="20" stroke-linecap="square"><path d="M-546.234-461.053c-26.668 22.377-30.227 62.041-2.966 95.961l664.034 791.366c28.453 33.402 68.118 36.961 94.669 14.682" stroke="#4A90E2"/><path d="M-534.166-444.757c-17.981 15.087-19.538 43.386.122 67.722L129.99 414.331c20.886 25.195 56.446 34.919 73.792 20.364" stroke="#333B97"/><path d="M-554.48-478.67l-3.734 3.134c-35.271 29.595-40.433 81.509-5.48 123.378l664.035 791.365c35.038 41.1 86.953 46.262 121.397 17.36" stroke="#883397"/><path d="M-560.349-496.999l-9.417 5.889c-44.051 36.964-49.385 101.846-8.804 150.327L85.465 450.582c42.975 50.895 107.249 55.778 150.965 19.095" stroke="#653397"/><path d="M163.646 457.042c34.285 6.045 66.759-18.777 75.221-61.463l179.388-1017.36c7.298-43.267-15.471-75.939-49.605-81.957" stroke="#4A90E2"/><path d="M165.968 436.964c23.116 4.076 46.987-12.05 52.992-42.753L399.364-625.714c5.875-32.194-8.898-54.121-31.198-58.053" stroke="#333B97"/><path d="M160.433 473.458c45.343 7.995 88.052-21.401 97.658-75.09l179.388-1017.36c8.961-53.259-20.454-96.345-64.735-104.153l-6.611-.282s1.721-1.91-7.033-.658" stroke="#883397"/><path d="M156.561 492.07c56.631 9.985 108.752-27.368 119.805-89.617l179.388-1017.36c11.364-65.636-23.52-117.646-79.72-127.556l-9.827-.872s-4.309-.079-7.411-.015" stroke="#653397"/></g><path fill="#653397" d="M0 984h720v96H0z"/></svg>