<svg width="720" height="1080" fill="none" xmlns="http://www.w3.org/2000/svg"><g clip-path="url(#clip0)"><path fill="#fff" d="M0 0h720v1080H0z"/><path fill="#1C1E35" d="M0 0h720v1080H0z"/><g opacity=".5" fill-rule="evenodd" clip-rule="evenodd"><path d="M352.223 186.108a6.5 6.5 0 1 0 12.217 4.446 6.5 6.5 0 0 0-12.217-4.446z" fill="#4A90E2"/><path d="M202.771 128.865a5.178 5.178 0 1 0 9.73 3.543 5.178 5.178 0 0 0-9.73-3.543zm12.597 173.894a4 4 0 1 0 7.52 2.735 4 4 0 0 0-7.52-2.735zm374.494-20.897a8.367 8.367 0 1 0 10.724-5 8.366 8.366 0 0 0-10.724 5z" fill="#883397"/><path d="M685.587 220.402a2 2 0 1 0 3.757 1.368 2 2 0 0 0-3.757-1.368z" fill="#653397"/></g><g opacity=".5" fill-rule="evenodd" clip-rule="evenodd"><path d="M572.223 556.108a6.5 6.5 0 1 0 12.217 4.446 6.5 6.5 0 0 0-12.217-4.446z" fill="#4A90E2"/><path d="M422.771 498.865a5.178 5.178 0 1 0 9.73 3.543 5.178 5.178 0 0 0-9.73-3.543zm12.597 173.894a4 4 0 1 0 7.52 2.735 4 4 0 0 0-7.52-2.735z" fill="#883397"/></g><g opacity=".5" fill-rule="evenodd" clip-rule="evenodd"><path d="M445.777 586.108a6.5 6.5 0 1 1-12.217 4.446 6.5 6.5 0 0 1 12.217-4.446z" fill="#4A90E2"/><path d="M595.229 528.865a5.178 5.178 0 1 1-9.73 3.543 5.178 5.178 0 0 1 9.73-3.543zm-12.597 173.894a4 4 0 1 1-7.52 2.735 4 4 0 0 1 7.52-2.735z" fill="#883397"/><path d="M58.884 526.149a3.263 3.263 0 0 1-1.951 4.183 3.263 3.263 0 1 1-2.233-6.134 3.263 3.263 0 0 1 4.184 1.951z" fill="#4A90E2"/><path d="M251.797 459.528a6.5 6.5 0 1 1-12.216 4.446 6.5 6.5 0 0 1 12.216-4.446z" fill="#333B97"/><path d="M144.083 529.061a4 4 0 1 1-7.517 2.737 4 4 0 0 1 7.517-2.737zm64.055 152.801a8.367 8.367 0 1 1-10.724-5 8.366 8.366 0 0 1 10.724 5z" fill="#883397"/><path d="M112.413 620.402a2 2 0 1 1-3.757 1.368 2 2 0 0 1 3.757-1.368z" fill="#653397"/></g><g opacity=".5" fill-rule="evenodd" clip-rule="evenodd"><path d="M53.777 864.108a6.5 6.5 0 1 1-12.216 4.446 6.5 6.5 0 0 1 12.216-4.446z" fill="#4A90E2"/><path d="M203.229 806.865a5.178 5.178 0 1 1-9.73 3.543 5.178 5.178 0 0 1 9.73-3.543zm-12.597 173.894a4 4 0 1 1-7.52 2.735 4 4 0 0 1 7.52-2.735z" fill="#883397"/></g><g opacity=".5" fill-rule="evenodd" clip-rule="evenodd"><path d="M466.884 824.149a3.264 3.264 0 1 1-6.134 2.232 3.264 3.264 0 0 1 6.134-2.232z" fill="#4A90E2"/><path d="M659.797 757.528a6.5 6.5 0 1 1-12.216 4.446 6.5 6.5 0 0 1 12.216-4.446z" fill="#333B97"/><path d="M552.083 827.061a4 4 0 1 1-7.517 2.737 4 4 0 0 1 7.517-2.737zm64.055 152.801a8.367 8.367 0 1 1-10.724-5 8.366 8.366 0 0 1 10.724 5z" fill="#883397"/><path d="M520.413 918.402a2 2 0 1 1-3.757 1.368 2 2 0 0 1 3.757-1.368z" fill="#653397"/></g><g opacity=".5" fill-rule="evenodd" clip-rule="evenodd"><path d="M593.777 904.108a6.5 6.5 0 1 1-12.217 4.446 6.5 6.5 0 0 1 12.217-4.446zm-386.893-59.96a3.264 3.264 0 1 1-6.135 2.233 3.264 3.264 0 0 1 6.135-2.233z" fill="#4A90E2"/><path d="M399.797 777.528a6.5 6.5 0 1 1-12.216 4.446 6.5 6.5 0 0 1 12.216-4.446z" fill="#333B97"/><path d="M292.083 847.062a3.999 3.999 0 0 1-2.391 5.126 4 4 0 1 1 2.391-5.126zm64.055 152.8c1.581 4.338-.658 9.148-5 10.728a8.368 8.368 0 0 1-10.724-5 8.368 8.368 0 1 1 15.724-5.728z" fill="#883397"/><path d="M260.413 938.402a2 2 0 1 1-3.757 1.368 2 2 0 0 1 3.757-1.368z" fill="#653397"/></g><g opacity=".5" stroke-width="20" stroke-linecap="square"><path d="M1551.68-340.375c-6.05-34.284-38.62-57.198-81.63-50.55L452.694-211.537c-43.154 7.94-66.068 40.511-60.049 74.644" stroke="#4A90E2"/><path d="M1531.53-338.072c-4.08-23.115-27.81-38.614-58.71-33.756L455.459-192.44c-32.262 5.49-58.464 31.424-54.532 53.724" stroke="#333B97"/><path d="M1571.06-338.708c-.31-1.757-.85-4.801-.85-4.801-8-45.342-50.37-75.77-104.11-66.434L448.74-230.555c-53.112 9.794-83.54 52.172-75.732 96.453" stroke="#883397"/><path d="M1589.86-334.626l-.39-11.1c-9.98-56.632-63.51-93.692-125.78-82.788L446.327-249.126c-65.564 11.771-101.929 64.992-92.019 121.193" stroke="#653397"/><path d="M401.642-184.648c-22.377 26.668-17.118 67.203 15.618 95.874l791.37 664.034c33.82 27.955 73.5 24.571 95.78-1.98" stroke="#4A90E2"/><path d="M417.869-172.598c-15.087 17.98-13.058 46.716 10.53 67.268l793.081 666.197c24.94 21.185 51.32 19.355 65.87 2.009" stroke="#333B97"/><path d="M389.032-195.639c-29.596 35.27-25.492 86.955 16.201 122.119L1196.6 590.514c41.64 34.391 93.66 30.459 122.57-3.985l3.55-5.585s.79 2.446 4.08-5.761" stroke="#883397"/><path d="M374.85-208.299c-36.963 44.052-30.675 107.867 17.708 148.564l791.362 664.034c51.16 42.659 113.65 38.454 150.33-5.262l5.67-8.074s2.22-3.692 3.72-6.411" stroke="#653397"/></g></g><defs><clipPath id="clip0"><path fill="#fff" d="M0 0h720v1080H0z"/></clipPath></defs></svg>