<svg xmlns="http://www.w3.org/2000/svg" xmlns:xlink="http://www.w3.org/1999/xlink" width="51.75" height="49.944"><defs><path id="a" d="M15.982 9.944V.004H0v9.94z"/><path id="c" d="M4 0v13H0V4.45L3.57 0z"/></defs><g fill="none" fill-rule="evenodd"><path d="M3 17.344h6.798V10.42C9.798 3.93 14.49 0 22.581 0c1.36 0 3.127.25 4.419.686V5.74c-1.292-.437-2.924-.624-4.42-.624-4.419 0-6.39 1.81-6.39 5.303v6.925H27v5.053H16.19V35H9.797V22.397H3" fill="#fff"/><g transform="translate(0 40)" fill="#fff"><mask id="b"><use xlink:href="#a" width="100%" height="100%"/></mask><path d="M15.982.004c-.715 6.234-4.967 9.94-11.848 9.94-1.272 0-2.926-.285-4.134-.782V3.399c1.208.497 2.735.71 4.134.71 3.399 0 5.25-1.394 5.8-4.105z" mask="url(#b)"/></g><use xlink:href="#c" width="100%" height="100%" fill="#0fdbc6" transform="translate(32 4)"/><g transform="translate(40 3)" stroke="#0fdbc6" stroke-width="3.5"><path d="M7.339 14.994C8.922 14.282 10 12.87 10 11.244 10 8.9 7.761 7 5 7s-5 1.9-5 4.243C0 12.873 1.084 14.29 2.674 15"/><ellipse cx="5" cy="3.5" rx="4" ry="3.5"/></g></g></svg>