<svg xmlns="http://www.w3.org/2000/svg" width="1541" height="559" fill="none"><g clip-path="url(#clip0)" transform="translate(-38 -58)"><path d="M825.502 371c-6.58 0-12.724-.536-18.502-1.48V336.4c5.058 1.87 11.18 2.858 18.502 2.858 8.63 0 18.043-1.548 25.498-4.258v31.742c-7.455 2.322-17.653 4.258-25.498 4.258zM852 218.193v-31.958h-62.158V131l-36.747 5.524v49.711H714v31.958h39.095v91.136c0 1.939.115 3.803.233 5.671h36.832a54.311 54.311 0 0 1-.318-5.671v-91.136zM61 183.374h45.607v-50.06C106.607 86.412 138.08 58 192.354 58c9.122 0 20.978 1.803 29.646 4.96v36.53c-8.668-3.158-19.612-4.508-29.646-4.508-29.645 0-42.875 13.078-42.875 38.332v50.06H222v36.525h-72.521V311h-42.872v-91.101H61" clip-rule="evenodd" fill="#fff" fill-rule="evenodd"/><mask id="a" maskUnits="userSpaceOnUse" x="38" y="362" width="111" height="73"><path d="M0 72.566h110.876V0H0z" transform="translate(38.001 362.026)" clip-rule="evenodd" fill="#fff" fill-rule="evenodd"/></mask><g mask="url(#a)"><path d="M148.877 362.026c-4.964 45.514-34.46 72.567-82.199 72.567-8.824 0-20.294-2.08-28.677-5.712V386.81c8.383 3.632 18.972 5.191 28.677 5.191 23.579 0 36.422-10.185 40.244-29.975z" clip-rule="evenodd" fill="#fff" fill-rule="evenodd"/></g><path d="M646.104 212.728c-32.771 2.78-51.22 23.482-51.22 63.669 0 42.922 21.426 63.605 59.121 63.605 15.871 0 33.726-3.12 49.995-8.196v31.607c-14.683 4.683-34.917 8.587-49.995 8.587-61.9 0-98.005-35.898-98.005-95.603 0-57.483 33.043-92.47 90.094-95.397zM342.01 328.473c0 9.025 3.925 13.342 12.95 13.342 3.47 0 6.838-.534 10.04-1.318l-.003 31.071c-6.061 1.389-12.93 2.432-19.452 2.432-11.772 0-22.759-3.926-29.821-10.991C301.209 369.683 285.122 374 267.466 374 218.814 374 189 348.489 189 305.316V186h36.877v119.316c0 23.938 14.128 36.499 41.589 36.499 14.124 0 25.896-2.748 37.668-7.456M378 196.78c22.36-5.777 52.178-10.78 74.538-10.78C501.185 186 531 210.638 531 253.364V370h-36.877V253.364c0-23.865-14.517-36.184-41.585-36.184-12.946 0-25.89 1.926-37.661 5.004" clip-rule="evenodd" fill="#fff" fill-rule="evenodd"/><path d="M416 196v97h-38v-97zm-75 59v97h-36v-97zm542 115h38V186h-38zm246-87.866c0-59.641-34.187-96.134-88.801-96.134-54.62 0-89.199 36.493-89.199 96.134 0 46.239 21.062 78.854 56.27 90.949v-38.944c-11.313-10.554-17.76-27.991-17.76-52.005 0-41.984 19.647-64.35 50.689-64.35 30.644 0 50.295 22.366 50.295 64.35 0 25.827-7.46 44.048-20.317 54.273V374c36.843-11.277 58.823-44.374 58.823-91.866" clip-rule="evenodd" fill="#fff" fill-rule="evenodd"/><path d="M1129 282.134c0-59.641-34.187-96.134-88.801-96.134-54.62 0-89.199 36.493-89.199 96.134 0 46.239 21.062 78.854 56.27 90.949v-38.944c-11.313-10.554-17.76-27.991-17.76-52.005 0-41.984 19.647-64.35 50.689-64.35 30.644 0 50.295 22.366 50.295 64.35 0 25.827-7.46 44.048-20.317 54.273V374c36.843-11.277 58.823-44.374 58.823-91.866m179-27.306c0-43.658-29.812-68.828-78.457-68.828-22.364 0-52.183 5.112-74.543 11.014V374h36.877V222.97c11.771-3.145 24.717-5.112 37.666-5.112 27.065 0 41.583 12.583 41.583 36.97v57.393H1308z" clip-rule="evenodd" fill="#fff" fill-rule="evenodd"/><path d="M1308 254.828c0-43.658-29.812-68.828-78.457-68.828-22.364 0-52.183 5.112-74.543 11.014V374h36.877V222.97c11.771-3.145 24.717-5.112 37.666-5.112 27.065 0 41.583 12.583 41.583 36.97v57.393H1308zM1412.06 186c-53.741 0-78.06 27.677-78.06 56.519 0 36.252 26.281 55.743 70.608 55.743 24.322 0 33.732 8.966 33.732 22.998 0 12.083-9.41 23.775-41.577 23.775-19.22 0-40.403-3.508-61.979-10.133v31.965c20.789 6.234 40.406 10.133 61.979 10.133 54.524 0 79.237-28.065 79.237-58.081 0-36.64-25.891-55.74-71.392-55.74-23.538 0-32.948-9.356-32.948-22.998 0-10.912 9.02-22.607 40.4-22.607.753 0 1.53.043 2.29.054V186.05c-.767-.01-1.52-.051-2.29-.051" clip-rule="evenodd" fill="#fff" fill-rule="evenodd"/><path d="M1334 242.519c0 36.252 26.281 55.743 70.608 55.743 24.322 0 33.732 8.966 33.732 22.998 0 12.083-9.41 23.775-41.577 23.775-19.22 0-40.403-3.508-61.979-10.133v31.965c20.789 6.234 40.406 10.133 61.979 10.133 54.524 0 79.237-28.065 79.237-58.081 0-36.64-25.891-55.74-71.392-55.74-23.538 0-32.948-9.356-32.948-22.998 0-10.912 9.02-22.607 40.4-22.607.753 0 1.53.043 2.29.054V186.05c-.767-.01-1.52-.051-2.29-.051-53.741 0-78.06 27.677-78.06 56.519zM825.502 371c7.845 0 18.043-1.936 25.498-4.258V335c-7.455 2.71-16.869 4.258-25.498 4.258-7.323 0-13.444-.989-18.502-2.858v33.12c5.778.944 11.922 1.48 18.502 1.48M852 218.193v-31.958h-62.158V131l-36.747 5.524v49.711H714v31.958h39.095v91.136c0 1.939.115 3.803.233 5.671h36.832a54.311 54.311 0 0 1-.318-5.671v-91.136z" clip-rule="evenodd" fill="#fff" fill-rule="evenodd"/><path d="M1492.526 149H1495v73h-23v-48.013z" clip-rule="evenodd" fill="#0bb9a7" fill-rule="evenodd"/><path d="M1554.895 226.968c8.39-4.095 14.105-12.218 14.105-21.57 0-13.475-11.864-24.398-26.5-24.398s-26.5 10.923-26.5 24.398c0 9.376 5.745 17.517 14.17 21.602" stroke="#0bb9a7" stroke-width="20"/><path d="M1542.5 180c12.979 0 23.5-9.626 23.5-21.5s-10.521-21.5-23.5-21.5-23.5 9.626-23.5 21.5 10.521 21.5 23.5 21.5z" clip-rule="evenodd" stroke="#0bb9a7" stroke-width="18"/><path d="M1064.086 508.433l-33.546 105.412h15.33l33.297-105.412zM660.8 613.058h-15.401l33.692-105.021h15.148l-33.44 105.021zM71.546 508.433L38 613.845h15.33l33.297-105.412z" fill="#fff"/><mask id="b" maskUnits="userSpaceOnUse" x="90" y="610" width="539" height="8"><path d="M0 0h537.813v7.15H0z" transform="translate(90.564 610.321)" clip-rule="evenodd" fill="#fff" fill-rule="evenodd"/></mask><g mask="url(#b)"><path d="M94.102 617.471h24.768c1.955 0 3.539-1.598 3.539-3.575s-1.584-3.575-3.539-3.575H94.102c-1.954 0-3.538 1.598-3.538 3.575s1.584 3.575 3.538 3.575zm45.998 0h24.768c1.954 0 3.538-1.598 3.538-3.575s-1.584-3.575-3.538-3.575H140.1c-1.954 0-3.538 1.598-3.538 3.575s1.584 3.575 3.538 3.575zm70.766 0h-24.768c-1.955 0-3.538-1.598-3.538-3.575s1.583-3.575 3.538-3.575h24.768c1.952 0 3.538 1.598 3.538 3.575s-1.586 3.575-3.538 3.575zm21.227 0h24.77c1.953 0 3.536-1.598 3.536-3.575s-1.583-3.575-3.536-3.575h-24.77c-1.954 0-3.536 1.598-3.536 3.575s1.582 3.575 3.536 3.575zm70.766 0h-24.768c-1.954 0-3.538-1.598-3.538-3.575s1.584-3.575 3.538-3.575h24.768c1.954 0 3.538 1.598 3.538 3.575s-1.584 3.575-3.538 3.575zm21.23 0h24.768c1.954 0 3.538-1.598 3.538-3.575s-1.584-3.575-3.538-3.575H324.09c-1.955 0-3.539 1.598-3.539 3.575s1.584 3.575 3.54 3.575zm70.765 0h-24.768c-1.954 0-3.538-1.598-3.538-3.575s1.584-3.575 3.538-3.575h24.768c1.955 0 3.536 1.598 3.536 3.575s-1.58 3.575-3.536 3.575zm21.23 0h24.766c1.954 0 3.538-1.598 3.538-3.575s-1.584-3.575-3.538-3.575h-24.766c-1.954 0-3.538 1.598-3.538 3.575s1.584 3.575 3.538 3.575zm70.764 0H462.08c-1.955 0-3.539-1.598-3.539-3.575s1.584-3.575 3.54-3.575h24.767c1.954 0 3.538 1.598 3.538 3.575s-1.584 3.575-3.538 3.575zm21.23 0h24.767c1.955 0 3.54-1.598 3.54-3.575s-1.585-3.575-3.54-3.575h-24.768c-1.954 0-3.538 1.598-3.538 3.575s1.584 3.575 3.538 3.575zm70.765 0h-24.768c-1.957 0-3.538-1.598-3.538-3.575s1.581-3.575 3.538-3.575h24.768c1.956 0 3.538 1.598 3.538 3.575s-1.582 3.575-3.538 3.575zm21.227 0h24.768c1.957 0 3.54-1.598 3.54-3.575s-1.583-3.575-3.54-3.575H600.07c-1.956 0-3.538 1.598-3.538 3.575s1.582 3.575 3.538 3.575z" clip-rule="evenodd" fill="#0bb8a7" fill-rule="evenodd"/></g><mask id="c" maskUnits="userSpaceOnUse" x="686" y="506" width="352" height="108"><path d="M0 0h350.364v107.254H0z" transform="translate(686.85 506.644)" clip-rule="evenodd" fill="#fff" fill-rule="evenodd"/></mask><g mask="url(#c)"><path d="M1006.619 613.898H686.85l30.595-107.255h319.769z" fill="#fefefe"/></g><path d="M936.716 574.308c4.654 4.905 11.887 9.007 21.002 9.007 7.728 0 11.492-3.7 11.492-7.506 0-5.004-5.747-6.708-13.372-8.507-10.803-2.505-24.67-5.507-24.67-20.421 0-11.113 9.51-20.121 25.065-20.121 10.498 0 19.22 3.201 25.758 9.308l-7.826 10.41c-5.348-5.003-12.484-7.306-18.925-7.306-6.34 0-9.707 2.802-9.707 6.807 0 4.504 5.546 5.909 13.176 7.71 10.898 2.497 24.768 5.804 24.768 20.619 0 12.21-8.616 21.421-26.45 21.421-12.68 0-21.797-4.303-28.041-10.61zm-45.811-7.108l-25.457-39.44h16.045l16.447 26.83 16.248-26.83h16.049l-25.261 39.44v27.33h-14.07V567.2z" fill="#0bb8a7"/><path d="M821.058 594.529l4.163-11.514h29.525l4.158 11.514h15.356l-25.457-66.767h-17.636l-25.56 66.767zm29.824-23.825h-21.897l10.999-30.632zm-80.234-42.943H744.59v66.77h26.058c20.703 0 35.07-13.217 35.07-33.336 0-20.12-14.367-33.434-35.07-33.434zm20.703 33.434c0 11.312-7.626 20.822-20.703 20.822H758.66v-41.743h11.987c13.57 0 20.703 9.11 20.703 20.921z" clip-rule="evenodd" fill="#0bb8a7" fill-rule="evenodd"/><path d="M615 586.8c3.605 0 6.374-.261 8.3-.789 1.922-.527 2.888-1.598 2.888-3.221 0-1.053-.301-1.946-.903-2.676-.605-.726-1.444-1.355-2.528-1.882-1.082-.528-2.325-1.033-3.728-1.52a178.35 178.35 0 0 0-4.393-1.458c-2.164-.65-4.37-1.4-6.617-2.247-2.246-.852-4.288-1.925-6.133-3.224-1.845-1.296-3.37-2.937-4.573-4.92-1.2-1.984-1.8-4.478-1.8-7.478 0-2.428.46-4.72 1.38-6.866.922-2.149 2.363-4.056 4.329-5.715 1.967-1.659 4.47-2.957 7.518-3.89 3.05-.93 6.697-1.398 10.952-1.398 3.687 0 7.114.286 10.282.852 3.17.566 5.914 1.38 8.241 2.43l-2.284 12.644a318.75 318.75 0 0 1-6.376-2.009c-2.89-.928-6.135-1.395-9.747-1.395-3.768 0-6.312.467-7.637 1.395-1.32.934-1.985 1.928-1.985 2.978 0 .895.3 1.684.9 2.372.603.69 1.404 1.318 2.41 1.884 1.002.57 2.162 1.114 3.487 1.641a63.13 63.13 0 0 0 4.27 1.52c2.167.73 4.409 1.54 6.738 2.43 2.325.892 4.43 2.006 6.316 3.345 1.883 1.336 3.426 3.036 4.629 5.103 1.205 2.067 1.805 4.601 1.805 7.597 0 2.353-.438 4.58-1.323 6.686-.882 2.11-2.343 3.931-4.389 5.47-2.043 1.54-4.714 2.755-8.002 3.646-3.29.89-7.335 1.336-12.15 1.336-4.892 0-9.062-.565-12.51-1.7-3.45-1.133-6.216-2.147-8.3-3.04l2.284-12.52a109.313 109.313 0 0 0 8.962 3.163A32.853 32.853 0 0 0 615 586.8m-55.255 0c3.607 0 6.374-.261 8.301-.789 1.923-.527 2.89-1.598 2.89-3.221 0-1.053-.302-1.946-.904-2.676-.605-.726-1.444-1.355-2.528-1.882-1.084-.528-2.327-1.033-3.73-1.52a178.113 178.113 0 0 0-4.39-1.458c-2.165-.65-4.373-1.4-6.62-2.247-2.244-.852-4.288-1.925-6.13-3.224-1.848-1.296-3.371-2.937-4.574-4.92-1.202-1.984-1.803-4.478-1.803-7.478 0-2.428.46-4.72 1.381-6.866.924-2.149 2.365-4.056 4.33-5.715 1.966-1.659 4.472-2.957 7.519-3.89 3.05-.93 6.697-1.398 10.952-1.398 3.685 0 7.112.286 10.282.852 3.168.566 5.914 1.38 8.239 2.43l-2.282 12.644a304.076 304.076 0 0 1-6.376-2.009c-2.89-.928-6.138-1.395-9.747-1.395-3.768 0-6.314.467-7.637 1.395-1.323.934-1.985 1.928-1.985 2.978 0 .895.3 1.684.9 2.372.603.69 1.404 1.318 2.408 1.884 1.002.57 2.164 1.114 3.487 1.641a63.205 63.205 0 0 0 4.272 1.52c2.164.73 4.407 1.54 6.736 2.43 2.327.892 4.433 2.006 6.318 3.345 1.883 1.336 3.426 3.036 4.629 5.103 1.205 2.067 1.805 4.601 1.805 7.597 0 2.353-.44 4.58-1.326 6.686-.879 2.11-2.34 3.931-4.386 5.47-2.045 1.54-4.713 2.755-8.002 3.646-3.29.89-7.335 1.336-12.15 1.336-4.892 0-9.064-.565-12.51-1.7-3.45-1.133-6.216-2.147-8.3-3.04l2.284-12.52a109.313 109.313 0 0 0 8.962 3.163 32.838 32.838 0 0 0 9.685 1.456" fill="#fff"/><path d="M481.118 556.777c-1.526 3.81-2.287 8.228-2.287 13.25 0 4.86.72 9.116 2.166 12.761 1.444 3.648 3.507 6.707 6.196 9.18 2.686 2.47 5.934 4.334 9.742 5.592 3.808 1.254 8.12 1.883 12.935 1.883 3.608 0 6.856-.305 9.743-.911 2.887-.609 5.613-1.355 8.18-2.25l-2.045-12.765c-1.845.651-4.11 1.3-6.796 1.945-2.69.65-5.515.974-8.482.974-4.81 0-8.743-1.071-11.788-3.221-3.05-2.144-4.573-5.084-4.573-8.812H530.8c.078-.647.138-1.5.18-2.552.04-1.052.06-2.067.06-3.038 0-9.563-2.163-16.835-6.496-21.821-4.332-4.982-10.668-7.475-19.007-7.475-3.369 0-6.66.65-9.866 1.945-3.208 1.299-6.054 3.222-8.54 5.773-2.487 2.554-4.493 5.735-6.014 9.542zm35.006 2.857a16.23 16.23 0 0 1 .602 4.438h-22.617c.16-1.54.5-3.041 1.024-4.497a13.118 13.118 0 0 1 2.164-3.893c.921-1.132 2.085-2.022 3.489-2.671 1.4-.65 3.067-.974 4.993-.974 2.003 0 3.687.345 5.053 1.034 1.363.688 2.485 1.603 3.366 2.733a11.12 11.12 0 0 1 1.926 3.83z" clip-rule="evenodd" fill="#fff" fill-rule="evenodd"/><path d="M474.163 595.674c-.238.165-.78.447-1.624.853-.84.405-1.945.831-3.308 1.273-1.365.449-3.027.832-4.99 1.156-1.968.323-4.195.485-6.678.485-6.818 0-11.79-2.044-14.916-6.138-3.13-4.091-4.692-10.067-4.692-17.928v-48.5h-15.641v-12.399h30.437v61.993c0 3.89.76 6.525 2.287 7.9 1.521 1.38 3.446 2.068 5.773 2.068 2.965 0 5.45-.406 7.458-1.215a253.88 253.88 0 0 1 3.97-1.58zm-53.738-39.503a51.042 51.042 0 0 0-3.427-.73 125.465 125.465 0 0 0-4.031-.67 50.381 50.381 0 0 0-3.971-.426 56.425 56.425 0 0 0-3.249-.12c-2.086 0-4.13.102-6.132.305a37.91 37.91 0 0 0-6.136 1.152v42.424h-14.918v-53.361a88.222 88.222 0 0 1 12.09-3.528c4.131-.89 8.963-1.337 14.496-1.337.801 0 1.943.043 3.427.122a74.5 74.5 0 0 1 4.754.426c1.684.203 3.387.446 5.111.73 1.725.286 3.269.667 4.634 1.157z" fill="#fff"/><path d="M317.028 556.777c-1.526 3.81-2.287 8.228-2.287 13.25 0 4.86.72 9.116 2.164 12.761 1.446 3.648 3.51 6.707 6.198 9.18 2.686 2.47 5.934 4.334 9.742 5.592 3.808 1.254 8.12 1.883 12.933 1.883 3.61 0 6.858-.305 9.745-.911 2.887-.609 5.613-1.355 8.18-2.25l-2.045-12.765c-1.845.651-4.11 1.3-6.795 1.945-2.691.65-5.518.974-8.483.974-4.812 0-8.743-1.071-11.788-3.221-3.052-2.144-4.573-5.084-4.573-8.812h36.692c.078-.647.138-1.5.18-2.552a82.718 82.718 0 0 0 .06-3.038c0-9.563-2.165-16.835-6.496-21.821-4.332-4.982-10.668-7.475-19.007-7.475-3.369 0-6.66.65-9.866 1.945-3.208 1.299-6.054 3.222-8.542 5.773-2.485 2.554-4.49 5.735-6.012 9.542zm35.006 2.857a16.23 16.23 0 0 1 .602 4.438h-22.617c.16-1.54.5-3.041 1.024-4.497a13.07 13.07 0 0 1 2.164-3.893c.921-1.132 2.085-2.022 3.487-2.671 1.403-.65 3.07-.974 4.995-.974 2.003 0 3.687.345 5.053 1.034 1.363.688 2.483 1.603 3.366 2.733a11.12 11.12 0 0 1 1.926 3.83z" clip-rule="evenodd" fill="#fff" fill-rule="evenodd"/><path d="M277.425 598.105c-3.61-7.209-7.28-15.658-11.01-25.344-3.726-9.682-7.275-20.276-10.646-31.784h15.52c.721 3.08 1.58 6.361 2.586 9.844a378.438 378.438 0 0 0 3.188 10.514 382.174 382.174 0 0 0 3.43 10.272 388.932 388.932 0 0 0 3.306 9.118 1585.44 1585.44 0 0 1 3.489-9.118 377.372 377.372 0 0 0 3.79-10.272 669.349 669.349 0 0 0 3.61-10.514c1.16-3.483 2.104-6.765 2.827-9.844h15.036c-3.369 11.508-7.096 22.102-11.188 31.784-4.09 9.686-7.938 18.135-11.547 25.344zm-30.376-41.934a51.042 51.042 0 0 0-3.427-.73 125.465 125.465 0 0 0-4.031-.67 50.381 50.381 0 0 0-3.971-.426 56.425 56.425 0 0 0-3.249-.12c-2.086 0-4.13.102-6.132.305a37.957 37.957 0 0 0-6.136 1.152v42.424h-14.918v-53.361a88.222 88.222 0 0 1 12.09-3.528c4.131-.89 8.964-1.337 14.496-1.337.801 0 1.943.043 3.427.122a74.5 74.5 0 0 1 4.754.426c1.685.203 3.387.446 5.111.73 1.725.286 3.269.667 4.634 1.157z" fill="#fff"/><path d="M143.653 556.777c-1.526 3.81-2.287 8.228-2.287 13.25 0 4.86.72 9.116 2.166 12.761 1.444 3.648 3.507 6.707 6.196 9.18 2.686 2.47 5.934 4.334 9.742 5.592 3.808 1.254 8.12 1.883 12.933 1.883 3.61 0 6.858-.305 9.745-.911 2.887-.609 5.613-1.355 8.18-2.25l-2.045-12.765c-1.845.651-4.11 1.3-6.796 1.945-2.69.65-5.515.974-8.482.974-4.812 0-8.743-1.071-11.788-3.221-3.052-2.144-4.573-5.084-4.573-8.812h36.692c.078-.647.138-1.5.18-2.552.04-1.052.06-2.067.06-3.038 0-9.563-2.165-16.835-6.496-21.821-4.332-4.982-10.668-7.475-19.007-7.475-3.369 0-6.66.65-9.866 1.945-3.208 1.299-6.054 3.222-8.542 5.773-2.485 2.554-4.49 5.735-6.012 9.542zm35.006 2.857a16.23 16.23 0 0 1 .602 4.438h-22.617c.16-1.54.5-3.041 1.024-4.497a13.07 13.07 0 0 1 2.164-3.893c.92-1.132 2.085-2.022 3.487-2.671 1.403-.65 3.07-.974 4.995-.974 2.003 0 3.687.345 5.053 1.034 1.363.688 2.485 1.603 3.366 2.733a11.12 11.12 0 0 1 1.926 3.83z" clip-rule="evenodd" fill="#fff" fill-rule="evenodd"/><path d="M107.945 586.8c3.61 0 6.376-.261 8.302-.789 1.923-.527 2.887-1.598 2.887-3.221 0-1.053-.302-1.946-.904-2.676-.602-.726-1.443-1.355-2.526-1.882-1.081-.528-2.326-1.033-3.727-1.52a184.753 184.753 0 0 0-4.393-1.458c-2.164-.65-4.37-1.4-6.617-2.247-2.247-.852-4.29-1.925-6.135-3.224-1.845-1.296-3.367-2.937-4.571-4.92-1.203-1.984-1.803-4.478-1.803-7.478 0-2.428.46-4.72 1.38-6.866.922-2.149 2.366-4.056 4.333-5.715 1.964-1.659 4.469-2.957 7.519-3.89 3.047-.93 6.695-1.398 10.947-1.398 3.688 0 7.117.286 10.285.852 3.168.566 5.914 1.38 8.24 2.43l-2.286 12.644a316.845 316.845 0 0 1-6.374-2.009c-2.889-.928-6.137-1.395-9.744-1.395-3.77 0-6.316.467-7.64 1.395-1.322.934-1.985 1.928-1.985 2.978 0 .895.301 1.684.901 2.372.603.69 1.404 1.318 2.408 1.884 1.001.57 2.164 1.114 3.489 1.641a63.584 63.584 0 0 0 4.27 1.52c2.164.73 4.408 1.54 6.735 2.43 2.327.892 4.433 2.006 6.316 3.345 1.885 1.336 3.431 3.036 4.631 5.103 1.205 2.067 1.805 4.601 1.805 7.597 0 2.353-.44 4.58-1.323 6.686-.883 2.11-2.344 3.931-4.39 5.47-2.044 1.54-4.712 2.755-8 3.646-3.291.89-7.338 1.336-12.15 1.336-4.895 0-9.065-.565-12.511-1.7-3.45-1.133-6.216-2.147-8.302-3.04l2.287-12.52a109.022 109.022 0 0 0 8.962 3.163 32.839 32.839 0 0 0 9.684 1.456m988.108-32.328h-12.947V542.13h12.947v-14.278l14.883-2.42v16.698h23.837v12.342h-23.837v22.99c0 2.097.202 3.791.605 5.082.403 1.29.968 2.299 1.694 3.025s1.613 1.21 2.662 1.452 2.218.363 3.509.363c1.371 0 2.622-.04 3.751-.121 1.21-.08 2.34-.202 3.388-.363a26.71 26.71 0 0 0 3.388-.968c1.21-.403 2.5-.928 3.872-1.573l2.057 12.826c-2.743 1.13-5.727 1.936-8.954 2.42a60.448 60.448 0 0 1-9.196.726c-3.469 0-6.534-.282-9.196-.847s-4.92-1.654-6.776-3.267c-1.855-1.613-3.267-3.872-4.235-6.776-.968-2.985-1.452-6.857-1.452-11.616zm96.309 15.972c0 4.517-.645 8.631-1.936 12.342-1.291 3.63-3.106 6.776-5.445 9.438-2.339 2.662-5.163 4.719-8.47 6.171-3.227 1.452-6.857 2.178-10.89 2.178s-7.704-.726-11.011-2.178c-3.227-1.452-6.05-3.509-8.47-6.171-2.34-2.662-4.154-5.808-5.445-9.438-1.29-3.71-1.936-7.825-1.936-12.342 0-4.437.645-8.47 1.936-12.1 1.371-3.71 3.227-6.857 5.566-9.438a23.792 23.792 0 0 1 8.591-6.05c3.307-1.452 6.897-2.178 10.769-2.178 3.953 0 7.542.726 10.769 2.178 3.307 1.371 6.131 3.388 8.47 6.05 2.42 2.581 4.275 5.727 5.566 9.438 1.291 3.63 1.936 7.663 1.936 12.1zm-38.478.121c0 5.082.887 9.196 2.662 12.342 1.855 3.146 4.8 4.719 8.833 4.719 3.872 0 6.776-1.573 8.712-4.719 2.017-3.146 3.025-7.26 3.025-12.342 0-5.082-.928-9.156-2.783-12.221-1.775-3.146-4.679-4.719-8.712-4.719-3.872 0-6.816 1.573-8.833 4.719-1.936 3.065-2.904 7.139-2.904 12.221zm90.743-13.31a52.077 52.077 0 0 0-3.509-.726 59.248 59.248 0 0 0-3.993-.605 35.848 35.848 0 0 0-3.993-.484 53.773 53.773 0 0 0-3.267-.121c-2.097 0-4.154.121-6.171.363a34.204 34.204 0 0 0-6.171 1.089V599h-15.004v-53.119a90.212 90.212 0 0 1 12.1-3.509c4.195-.887 9.075-1.331 14.641-1.331.807 0 1.936.04 3.388.121 1.533.08 3.146.242 4.84.484a55.01 55.01 0 0 1 5.082.726c1.775.242 3.348.605 4.719 1.089zm60.735 13.189c0 4.517-.645 8.631-1.936 12.342-1.291 3.63-3.106 6.776-5.445 9.438-2.339 2.662-5.163 4.719-8.47 6.171-3.227 1.452-6.857 2.178-10.89 2.178s-7.704-.726-11.011-2.178c-3.227-1.452-6.05-3.509-8.47-6.171-2.339-2.662-4.154-5.808-5.445-9.438-1.291-3.71-1.936-7.825-1.936-12.342 0-4.437.645-8.47 1.936-12.1 1.371-3.71 3.227-6.857 5.566-9.438a23.795 23.795 0 0 1 8.591-6.05c3.307-1.452 6.897-2.178 10.769-2.178 3.953 0 7.542.726 10.769 2.178 3.307 1.371 6.131 3.388 8.47 6.05 2.42 2.581 4.275 5.727 5.566 9.438 1.291 3.63 1.936 7.663 1.936 12.1zm-38.478.121c0 5.082.887 9.196 2.662 12.342 1.855 3.146 4.8 4.719 8.833 4.719 3.872 0 6.776-1.573 8.712-4.719 2.017-3.146 3.025-7.26 3.025-12.342 0-5.082-.928-9.156-2.783-12.221-1.775-3.146-4.679-4.719-8.712-4.719-3.872 0-6.816 1.573-8.833 4.719-1.936 3.065-2.904 7.139-2.904 12.221zm45.489-26.62c2.662-.726 5.929-1.412 9.801-2.057 3.953-.645 8.228-.968 12.826-.968 4.517 0 8.268.645 11.253 1.936 2.985 1.21 5.324 2.985 7.018 5.324 1.775 2.259 3.025 5.001 3.751 8.228.726 3.146 1.089 6.655 1.089 10.527V599h-14.883v-30.129c0-5.324-.605-9.156-1.815-11.495-1.21-2.34-3.67-3.509-7.381-3.509-1.129 0-2.259.04-3.388.121-1.049.08-2.178.202-3.388.363V599h-14.883zm66.18 10.527h-12.947V542.13h12.947v-14.278l14.883-2.42v16.698h23.837v12.342h-23.837v22.99c0 2.097.202 3.791.605 5.082.403 1.29.968 2.299 1.694 3.025s1.613 1.21 2.662 1.452 2.218.363 3.509.363c1.371 0 2.622-.04 3.751-.121a39.59 39.59 0 0 0 3.388-.363 26.71 26.71 0 0 0 3.388-.968 35.551 35.551 0 0 0 3.872-1.573l2.057 12.826c-2.743 1.13-5.727 1.936-8.954 2.42a60.445 60.445 0 0 1-9.196.726c-3.469 0-6.534-.282-9.196-.847s-4.921-1.654-6.776-3.267c-1.855-1.613-3.267-3.872-4.235-6.776-.968-2.985-1.452-6.857-1.452-11.616zm96.309 15.972c0 4.517-.645 8.631-1.936 12.342-1.291 3.63-3.106 6.776-5.445 9.438-2.339 2.662-5.163 4.719-8.47 6.171-3.227 1.452-6.857 2.178-10.89 2.178s-7.704-.726-11.011-2.178c-3.227-1.452-6.05-3.509-8.47-6.171-2.339-2.662-4.154-5.808-5.445-9.438-1.291-3.71-1.936-7.825-1.936-12.342 0-4.437.645-8.47 1.936-12.1 1.371-3.71 3.227-6.857 5.566-9.438a23.795 23.795 0 0 1 8.591-6.05c3.307-1.452 6.897-2.178 10.769-2.178 3.953 0 7.542.726 10.769 2.178 3.307 1.371 6.131 3.388 8.47 6.05 2.42 2.581 4.275 5.727 5.566 9.438 1.291 3.63 1.936 7.663 1.936 12.1zm-38.478.121c0 5.082.887 9.196 2.662 12.342 1.855 3.146 4.8 4.719 8.833 4.719 3.872 0 6.776-1.573 8.712-4.719 2.017-3.146 3.025-7.26 3.025-12.342 0-5.082-.928-9.156-2.783-12.221-1.775-3.146-4.679-4.719-8.712-4.719-3.872 0-6.816 1.573-8.833 4.719-1.936 3.065-2.904 7.139-2.904 12.221z" fill="#fff"/></g><defs id="defs66"><clipPath id="clip0"><path d="M0 0h1607v617H0z" id="path63" fill="#fff"/></clipPath></defs></svg>