<?xml version="1.0" encoding="UTF-8"?>
<svg width="82px" height="83px" viewBox="0 0 82 83" version="1.1" xmlns="http://www.w3.org/2000/svg" xmlns:xlink="http://www.w3.org/1999/xlink">
    <!-- Generator: Sketch 49 (51002) - http://www.bohemiancoding.com/sketch -->
    <title>Artboard 4</title>
    <desc>Created with Sketch.</desc>
    <defs>
        <polygon id="path-1" points="0.00016627789 9.94411299 15.9822428 9.94411299 15.9822428 0.00360744448 0.00016627789 0.00360744448"></polygon>
        <polygon id="path-3" points="3.56982422 0 4 0 4 13 0 13 0 4.44970703"></polygon>
    </defs>
    <g id="Artboard-4" stroke="none" stroke-width="1" fill="none" fill-rule="evenodd">
        <g id="Group-19" transform="translate(16.000000, 17.000000)">
            <g id="Group-13">
                <path d="M3,17.3442393 L9.79855851,17.3442393 L9.79855851,10.4189612 C9.79855851,3.93046107 14.4901817,0 22.5807899,0 C23.9405016,0 25.7079503,0.249433107 27,0.686210992 L27,5.73966094 C25.7079503,5.30288306 24.0764139,5.11607818 22.5807899,5.11607818 C18.1615798,5.11607818 16.18938,6.92527805 16.18938,10.4189612 L16.18938,17.3442393 L27,17.3442393 L27,22.3971493 L16.18938,22.3971493 L16.18938,35 L9.79855851,35 L9.79855851,22.3971493 L3,22.3971493" id="Fill-5" fill="#FFFFFF"></path>
                <g id="Group-9" transform="translate(0.000000, 40.000000)">
                    <mask id="mask-2" fill="white">
                        <use xlink:href="#path-1"></use>
                    </mask>
                    <g id="Clip-8"></g>
                    <path d="M15.9822428,0.00360744448 C15.2666937,6.23835833 11.014968,9.94435927 4.13383463,9.94435927 C2.86180877,9.94435927 1.20845228,9.65928228 0.00016627789,9.1617829 L0.00016627789,3.39867128 C1.20845228,3.89617066 2.73488332,4.10982447 4.13383463,4.10982447 C7.53255472,4.10982447 9.3837819,2.71460963 9.93471597,0.00360744448 L15.9822428,0.00360744448 Z" id="Fill-7" fill="#FFFFFF" mask="url(#mask-2)"></path>
                </g>
            </g>
            <g id="Group-12" transform="translate(32.000000, 3.000000)">
                <g id="Group" transform="translate(0.000000, 1.000000)">
                    <g id="Rectangle-3">
                        <mask id="mask-4" fill="white">
                            <use xlink:href="#path-3"></use>
                        </mask>
                        <use id="Mask" fill="#0FDBC6" xlink:href="#path-3"></use>
                    </g>
                </g>
                <g id="Group-2" transform="translate(8.000000, 0.000000)" stroke="#0FDBC6" stroke-width="3.5">
                    <path d="M7.33874343,14.9944002 C8.92172508,14.2821883 10,12.8695121 10,11.2431148 C10,8.89970722 7.76142375,7 5,7 C2.23857625,7 0,8.89970722 0,11.2431148 C0,12.8737857 1.08394898,14.2896108 2.6737455,15" id="Oval"></path>
                    <ellipse id="Oval" cx="5" cy="3.5" rx="4" ry="3.5"></ellipse>
                </g>
            </g>
        </g>
    </g>
</svg>