<?xml version="1.0" encoding="UTF-8"?>
<svg width="1607px" height="617px" viewBox="0 0 1607 617" version="1.1" xmlns="http://www.w3.org/2000/svg" xmlns:xlink="http://www.w3.org/1999/xlink">
    <!-- Generator: Sketch 49 (51002) - http://www.bohemiancoding.com/sketch -->
    <title>logo</title>
    <desc>Created with Sketch.</desc>
    <defs>
        <polygon id="path-1" points="0.00115355287 72.5920248 110.87681 72.5920248 110.87681 0.0263343447 0.00115355287 0.0263343447"></polygon>
        <polygon id="path-3" points="20.5264893 0 23 0 23 73 0 73 0 24.9868164"></polygon>
        <polygon id="path-5" points="0.315884602 0.643684267 351.901267 0.643684267 351.901267 107.897401 0.315884602 107.897401"></polygon>
        <polygon id="path-7" points="0.486171482 0.628130319 540.174231 0.628130319 540.174231 7.7782128 0.486171482 7.7782128"></polygon>
    </defs>
    <g id="logo" stroke="none" stroke-width="1" fill="none" fill-rule="evenodd">
        <g id="Group-4" transform="translate(38.000000, 58.000000)">
            <g id="Group-3">
                <path d="M787.501659,313 C780.922537,313 774.777949,312.464036 769,311.519401 L769,278.400205 C774.058252,280.269378 780.179076,281.25756 787.501659,281.25756 C796.13124,281.25756 805.54502,279.709966 813,277 L813,308.74244 C805.54502,311.063832 795.347041,313 787.501659,313 Z" id="Fill-1" fill="#FFFFFF"></path>
                <path d="M814,160.192756 L814,128.235508 L751.842318,128.235508 L751.842318,73 L715.095095,78.5242337 L715.095095,128.235508 L676,128.235508 L676,160.192756 L715.095095,160.192756 L715.095095,251.328954 C715.095095,253.26824 715.21012,255.132413 715.328528,257 L752.160329,257 C751.970876,255.180212 751.842318,253.309211 751.842318,251.328954 L751.842318,160.192756 L814,160.192756 Z" id="Fill-3" fill="#FFFFFF"></path>
                <path d="M23,125.374073 L68.6069966,125.374073 L68.6069966,75.3142055 C68.6069966,28.4116186 100.079969,0 154.354465,0 C163.475865,0 175.3325,1.80304503 184,4.96032517 L184,41.4895491 C175.3325,38.332269 164.38761,36.9819365 154.354465,36.9819365 C124.708931,36.9819365 111.478758,50.059867 111.478758,75.3142055 L111.478758,125.374073 L184,125.374073 L184,161.899394 L111.478758,161.899394 L111.478758,253 L68.6069966,253 L68.6069966,161.899394 L23,161.899394" id="Fill-5" fill="#F0F0F0"></path>
                <g id="Group-9" transform="translate(0.000000, 304.000000)">
                    <mask id="mask-2" fill="white">
                        <use xlink:href="#path-1"></use>
                    </mask>
                    <g id="Clip-8"></g>
                    <path d="M110.87681,0.0263343447 C105.912687,45.5400158 76.4163405,72.5938227 28.6784778,72.5938227 C19.8537984,72.5938227 8.38363771,70.5127606 0.00115355287,66.8810152 L0.00115355287,24.8103003 C8.38363771,28.4420458 18.973253,30.0017187 28.6784778,30.0017187 C52.2570983,30.0017187 65.0999869,19.8166503 68.9220921,0.0263343447 L110.87681,0.0263343447 Z" id="Fill-7" fill="#F0F0F0" mask="url(#mask-2)"></path>
                </g>
                <path d="M608.104125,154.728091 C575.332746,157.507169 556.883393,178.21012 556.883393,218.397009 C556.883393,261.319078 578.309777,282.001768 616.005104,282.001768 C631.875737,282.001768 649.731057,278.881636 666,273.806358 L666,305.412885 C651.317433,310.096459 631.082548,314 616.005104,314 C554.105517,314 518,278.101604 518,218.397009 C518,160.914326 551.042643,125.927656 608.093824,123 L608.104125,154.728091 Z" id="Fill-10" fill="#F0F0F0"></path>
                <path d="M304.010263,270.473234 C304.010263,279.497751 307.935257,283.81471 316.960028,283.81471 C320.430049,283.81471 323.79821,283.281458 327,282.496865 L326.996605,313.568102 C320.935952,314.957273 314.067212,316 307.544795,316 C295.773208,316 284.78594,312.073639 277.723667,305.008907 C263.208658,311.683041 247.121614,316 229.465931,316 C180.814338,316 151,290.488844 151,247.315857 L151,128 L187.876611,128 L187.876611,247.315857 C187.876611,271.254431 202.004553,283.81471 229.465931,283.81471 C243.590478,283.81471 255.362065,281.066936 267.133652,276.359379" id="Fill-12" fill="#F0F0F0"></path>
                <path d="M340,138.779832 C362.359606,133.003494 392.178072,128 414.537678,128 C463.184929,128 493,152.637712 493,195.363954 L493,312 L456.123286,312 L456.123286,195.363954 C456.123286,171.499086 441.606178,159.18023 414.537678,159.18023 C401.592464,159.18023 388.647251,161.105676 376.876714,164.183724" id="Fill-14" fill="#F0F0F0"></path>
                <polygon id="Fill-14" fill="#F0F0F0" points="378 138 378 235 340 235 340 138"></polygon>
                <polygon id="Fill-14" fill="#F0F0F0" points="303 197 303 294 267 294 267 197"></polygon>
                <polygon id="Fill-16" fill="#F0F0F0" points="845 312 883 312 883 128 845 128"></polygon>
                <path d="M1091,224.134164 C1091,164.493019 1056.81252,128 1002.19892,128 C947.578524,128 913,164.493019 913,224.134164 C913,270.37269 934.06199,302.98788 969.269586,315.083175 L969.269586,276.138499 C957.956502,265.584828 951.50937,248.14818 951.50937,224.134164 C951.50937,182.150384 971.1568,159.783257 1002.19892,159.783257 C1032.8432,159.783257 1052.49403,182.150384 1052.49403,224.134164 C1052.49403,249.961456 1045.03358,268.182498 1032.17672,278.406791 L1032.17672,316 C1069.01991,304.723056 1091,271.625684 1091,224.134164" id="Fill-18" fill="#FFFFFF"></path>
                <path d="M1091,224.134164 C1091,164.493019 1056.81252,128 1002.19892,128 C947.578524,128 913,164.493019 913,224.134164 C913,270.37269 934.06199,302.98788 969.269586,315.083175 L969.269586,276.138499 C957.956502,265.584828 951.50937,248.14818 951.50937,224.134164 C951.50937,182.150384 971.1568,159.783257 1002.19892,159.783257 C1032.8432,159.783257 1052.49403,182.150384 1052.49403,224.134164 C1052.49403,249.961456 1045.03358,268.182498 1032.17672,278.406791 L1032.17672,316 C1069.01991,304.723056 1091,271.625684 1091,224.134164" id="Fill-19" fill="#F0F0F0"></path>
                <path d="M1270,196.828388 C1270,153.16991 1240.18766,128 1191.54273,128 C1169.17923,128 1139.3601,133.112266 1117,139.014176 L1117,316 L1153.87753,316 L1153.87753,164.970327 C1165.64833,161.825364 1178.59383,159.858061 1191.54273,159.858061 C1218.60843,159.858061 1233.12586,172.441314 1233.12586,196.828388 L1233.12586,254.220549 L1270,254.220549 L1270,196.828388 Z" id="Fill-20" fill="#FFFFFF"></path>
                <path d="M1270,196.828388 C1270,153.16991 1240.18766,128 1191.54273,128 C1169.17923,128 1139.3601,133.112266 1117,139.014176 L1117,316 L1153.87753,316 L1153.87753,164.970327 C1165.64833,161.825364 1178.59383,159.858061 1191.54273,159.858061 C1218.60843,159.858061 1233.12586,172.441314 1233.12586,196.828388 L1233.12586,254.220549 L1270,254.220549 L1270,196.828388 Z" id="Fill-21" fill="#F0F0F0"></path>
                <path d="M1374.05909,128 C1320.319,128 1296,155.677493 1296,184.518756 C1296,220.771043 1322.28108,240.261665 1366.60792,240.261665 C1390.93031,240.261665 1400.34018,249.227756 1400.34018,263.260464 C1400.34018,275.343435 1390.93031,287.03511 1358.76297,287.03511 C1339.54268,287.03511 1318.36031,283.526933 1296.78416,276.901876 L1296.78416,308.866766 C1317.57276,315.100526 1337.19022,319 1358.76297,319 C1413.28723,319 1438,290.934584 1438,260.919431 C1438,224.27922 1412.1093,205.179895 1366.60792,205.179895 C1343.06969,205.179895 1333.65982,195.822507 1333.65982,182.181096 C1333.65982,171.268641 1342.6793,159.573593 1374.05909,159.573593 C1374.8127,159.573593 1375.59006,159.617446 1376.35046,159.627565 L1376.35046,128.050599 C1375.58328,128.040479 1374.82967,128 1374.05909,128" id="Fill-22" fill="#FFFFFF"></path>
                <path d="M1296,184.518756 C1296,220.771043 1322.28108,240.261665 1366.60792,240.261665 C1390.93031,240.261665 1400.34018,249.227756 1400.34018,263.260464 C1400.34018,275.343435 1390.93031,287.03511 1358.76297,287.03511 C1339.54268,287.03511 1318.36031,283.526933 1296.78416,276.901876 L1296.78416,308.866766 C1317.57276,315.100526 1337.19022,319 1358.76297,319 C1413.28723,319 1438,290.934584 1438,260.919431 C1438,224.27922 1412.1093,205.179895 1366.60792,205.179895 C1343.06969,205.179895 1333.65982,195.822507 1333.65982,182.181096 C1333.65982,171.268641 1342.6793,159.573593 1374.05909,159.573593 C1374.8127,159.573593 1375.59006,159.617446 1376.35046,159.627565 L1376.35046,128.050599 C1375.58328,128.040479 1374.82967,128 1374.05909,128 C1320.319,128 1296,155.677493 1296,184.518756 Z" id="Fill-23" fill="#F0F0F0"></path>
                <path d="M787.501659,313 C795.347041,313 805.54502,311.063832 813,308.74244 L813,277 C805.54502,279.709966 796.13124,281.25756 787.501659,281.25756 C780.179076,281.25756 774.058252,280.269378 769,278.400205 L769,311.519401 C774.777949,312.464036 780.922537,313 787.501659,313" id="Fill-30" fill="#F0F0F0"></path>
                <path d="M814,160.192756 L814,128.235508 L751.842318,128.235508 L751.842318,73 L715.095095,78.5242337 L715.095095,128.235508 L676,128.235508 L676,160.192756 L715.095095,160.192756 L715.095095,251.328954 C715.095095,253.26824 715.21012,255.132413 715.328528,257 L752.160329,257 C751.970876,255.180212 751.842318,253.309211 751.842318,251.328954 L751.842318,160.192756 L814,160.192756 Z" id="Fill-31" fill="#F0F0F0"></path>
                <g id="Group" transform="translate(1434.000000, 91.000000)">
                    <g id="Rectangle-3">
                        <mask id="mask-4" fill="white">
                            <use xlink:href="#path-3"></use>
                        </mask>
                        <use id="Mask" fill="#0BB9A7" xlink:href="#path-3"></use>
                    </g>
                </g>
                <g id="Group-2" transform="translate(1478.000000, 79.000000)" stroke="#0BB9A7">
                    <path d="M38.8953402,89.9678013 C47.2851429,85.8725826 53,77.7496946 53,68.3979102 C53,54.9233165 41.1355459,44 26.5,44 C11.8644541,44 0,54.9233165 0,68.3979102 C0,77.7742677 5.7449296,85.9152621 14.1708512,90" id="Oval" stroke-width="20"></path>
                    <ellipse id="Oval" stroke-width="18" cx="26.5" cy="21.5" rx="23.5" ry="21.5"></ellipse>
                </g>
            </g>
            <g id="Group-5" transform="translate(55.000000, 390.000000)">
                <g id="Page-1">
                    <polygon id="Fill-1" fill="#FEFEFE" fill-rule="nonzero" points="33.6627191 2.432585 0 107.844602 15.3837044 107.844602 48.7967893 2.432585"></polygon>
                    <polygon id="Fill-1" fill="#FEFEFE" fill-rule="nonzero" points="1029.66272 2.432585 996 107.844602 1011.3837 107.844602 1044.79679 2.432585"></polygon>
                    <g id="Group-38" transform="translate(48.796789, 0.000000)">
                        <path d="M21.3923948,80.799718 C25.0146576,80.799718 27.790681,80.5382313 29.7227038,80.0107496 C31.6524878,79.4832678 32.6196186,78.412525 32.6196186,76.7895043 C32.6196186,75.736795 32.3173902,74.8441336 31.7129335,74.1137743 C31.1084768,73.3879234 30.2644761,72.7590028 29.1786928,72.2315211 C28.0929094,71.7040394 26.8436989,71.1990996 25.4377773,70.7121934 C24.0273783,70.2252872 22.5565336,69.738381 21.0297208,69.253729 C18.8581541,68.6045207 16.6440515,67.8538736 14.3896518,67.0062961 C12.1352521,66.1542102 10.0845768,65.0812132 8.2331482,63.7827966 C6.38171968,62.4866343 4.85490679,60.84558 3.64599336,58.861888 C2.43931866,56.878196 1.83710067,54.3850559 1.83710067,51.3847218 C1.83710067,48.9569533 2.29827876,46.6644365 3.22287366,44.5184425 C4.14746856,42.3701942 5.59592595,40.4631449 7.57048455,38.8040571 C9.5405657,37.1449692 12.0546579,35.8465527 15.1149999,34.9133158 C18.1731031,33.9845872 21.8334243,33.5157146 26.100441,33.5157146 C29.8010593,33.5157146 33.2419852,33.8019974 36.4209797,34.3678005 C39.5999743,34.9336035 42.3558492,35.7473681 44.6908431,36.7978231 L42.3961463,49.4416053 C41.0282831,49.0358501 38.8970135,48.3663541 36.0000987,47.4331172 C33.1009452,46.5043887 29.8413564,46.0377702 26.2213323,46.0377702 C22.437881,46.0377702 19.8834917,46.5043887 18.5559257,47.4331172 C17.2283596,48.3663541 16.5634572,49.3604543 16.5634572,50.4109093 C16.5634572,51.3058249 16.8656856,52.0947933 17.4679036,52.7823229 C18.0723603,53.4721067 18.8760638,54.1010273 19.8834917,54.6668303 C20.8886809,55.2371418 22.0550584,55.7804029 23.3848632,56.3078846 C24.7124293,56.8353663 26.1407381,57.3425603 27.6697897,57.8272123 C29.8413564,58.5575716 32.0935174,59.3668278 34.4285113,60.257235 C36.7635052,61.1498964 38.876865,62.2634689 40.7663518,63.602461 C42.6580775,64.9391989 44.2095164,66.6388623 45.4139524,68.7059595 C46.6228659,70.7730567 47.2250838,73.3067723 47.2250838,76.3025981 C47.2250838,78.6559781 46.7840543,80.8831232 45.8975177,82.9885413 C45.0109813,85.0984682 43.544614,86.9198581 41.4917,88.4594736 C39.4410246,89.9990891 36.7635052,91.2141004 33.4636192,92.1045076 C30.1614946,92.9949148 26.100441,93.4412455 21.2715034,93.4412455 C16.3597329,93.4412455 12.1755492,92.8754425 8.71671358,91.7415822 C5.2556392,90.6077219 2.47961577,89.5933339 0.386404552,88.7006725 L2.68110134,76.1808715 C5.49742189,77.3192402 8.49284071,78.3696953 11.674074,79.3435077 C14.8530686,80.3150659 18.0902701,80.799718 21.3923948,80.799718" id="Fill-2" fill="#FEFEFE" fill-rule="nonzero"></path>
                        <path d="M92.9564877,58.0717925 C92.9564877,56.532177 92.7550026,55.0511706 92.3520315,53.6332817 C91.9490604,52.2153928 91.3065451,50.9417724 90.4200082,49.8034037 C89.5357104,48.6740518 88.4096301,47.7588484 87.0417673,47.0713188 C85.6716654,46.381535 83.9814254,46.0366431 81.9710465,46.0366431 C80.039024,46.0366431 78.3666938,46.3612473 76.9585335,47.0104555 C75.552612,47.6596638 74.3839957,48.550071 73.4594007,49.6816771 C72.5325672,50.8200458 71.8094578,52.113954 71.287834,53.5746726 C70.7617328,55.0308829 70.4214461,56.532177 70.2602576,58.0717925 L92.9564877,58.0717925 Z M54.9294443,64.0273768 C54.9294443,59.0050294 55.6928508,54.5868064 57.2241411,50.7772161 C58.750954,46.96988 60.763571,43.7892103 63.2575146,41.2352068 C65.753697,38.6834576 68.6103147,36.7606289 71.8296064,35.4622123 C75.0466593,34.16605 78.348784,33.5168417 81.729264,33.5168417 C90.0976318,33.5168417 96.4556207,36.0099818 100.803231,40.9917537 C105.148604,45.978034 107.322409,53.2500685 107.322409,62.8123655 C107.322409,63.7839237 107.302261,64.7983117 107.261963,65.851021 C107.219428,66.9037302 107.158982,67.7558161 107.080626,68.4027702 L70.2602576,68.4027702 C70.2602576,72.1312094 71.7870705,75.0706803 74.8496512,77.2144201 C77.9055157,79.3649226 81.8501553,80.4356654 86.6790927,80.4356654 C89.6566016,80.4356654 92.4908328,80.1110612 95.1907391,79.461853 C97.8861682,78.8171531 100.158478,78.1679448 102.009906,77.5164823 L104.06282,90.2819906 C101.486044,91.1769062 98.7503177,91.9230449 95.8534027,92.5316777 C92.9564877,93.1380562 89.696899,93.4423726 86.0746365,93.4423726 C81.245699,93.4423726 76.9182364,92.8134521 73.0967268,91.5601194 C69.2752171,90.3022784 66.0156283,88.4380588 63.3201991,85.9674606 C60.6225311,83.4946082 58.5517071,80.4356654 57.1032498,76.7883772 C55.6525537,73.1433432 54.9294443,68.8874222 54.9294443,64.0273768 Z" id="Fill-4" fill="#FEFEFE" fill-rule="nonzero"></path>
                        <path d="M160.980703,50.1710629 C160.015811,49.9253556 158.869582,49.6819025 157.542017,49.4407036 C156.21445,49.1972505 154.864497,48.9763394 153.496634,48.7712076 C152.126532,48.5728384 150.798966,48.4285699 149.511697,48.3451647 C148.224428,48.268522 147.136406,48.2256923 146.252108,48.2256923 C144.158897,48.2256923 142.108222,48.3271311 140.097844,48.5300087 C138.082987,48.7328863 136.032312,49.1160995 133.94134,49.6819025 L133.94134,92.1058602 L118.970962,92.1058602 L118.970962,38.7445463 C122.913363,37.2838277 126.956507,36.111646 131.102632,35.2167305 C135.248757,34.3263233 140.097844,33.8799926 145.64989,33.8799926 C146.453593,33.8799926 147.599823,33.9228223 149.088578,34.0017191 C150.579571,34.0851244 152.169068,34.2248845 153.859308,34.4277621 C155.549548,34.6306396 157.257698,34.8740928 158.988235,35.1581214 C160.718772,35.4444042 162.267972,35.8253632 163.638075,36.3145236 L160.980703,50.1710629 Z" id="Fill-6" fill="#FEFEFE" fill-rule="nonzero"></path>
                        <path d="M191.46256,92.1049585 C187.840297,84.8960415 184.157589,76.4473174 180.414435,66.7610396 C176.675758,57.0792703 173.113941,46.4845517 169.731222,34.9768841 L185.306056,34.9768841 C186.029166,38.056115 186.891077,41.3382236 187.900743,44.8209555 C188.905932,48.3059416 189.971567,51.8112155 191.099886,55.334523 C192.225966,58.8600847 193.374434,62.2842075 194.540812,65.6068916 C195.707189,68.9295757 196.813121,71.9704853 197.858608,74.7251121 C198.906332,71.9704853 200.07271,68.9295757 201.359979,65.6068916 C202.647248,62.2842075 203.914369,58.8600847 205.163579,55.334523 C206.410551,51.8112155 207.617226,48.3059416 208.785842,44.8209555 C209.949981,41.3382236 210.896963,38.056115 211.622311,34.9768841 L226.711341,34.9768841 C223.330861,46.4845517 219.589946,57.0792703 215.484118,66.7610396 C211.380529,76.4473174 207.518722,84.8960415 203.896459,92.1049585 L191.46256,92.1049585 Z" id="Fill-8" fill="#FEFEFE" fill-rule="nonzero"></path>
                        <path d="M266.936593,58.0717925 C266.936593,56.532177 266.735107,55.0511706 266.332136,53.6332817 C265.929165,52.2153928 265.28665,50.9417724 264.400114,49.8034037 C263.513577,48.6740518 262.389735,47.7588484 261.021872,47.0713188 C259.65177,46.381535 257.96153,46.0366431 255.951152,46.0366431 C254.019129,46.0366431 252.346799,46.3612473 250.938639,47.0104555 C249.532717,47.6596638 248.364101,48.550071 247.439506,49.6816771 C246.512672,50.8200458 245.789563,52.113954 245.267939,53.5746726 C244.741837,55.0308829 244.401551,56.532177 244.240362,58.0717925 L266.936593,58.0717925 Z M228.909549,64.0273768 C228.909549,59.0050294 229.672955,54.5868064 231.204246,50.7772161 C232.731059,46.96988 234.743676,43.7892103 237.237619,41.2352068 C239.733802,38.6834576 242.59042,36.7606289 245.809711,35.4622123 C249.026764,34.16605 252.328889,33.5168417 255.709369,33.5168417 C264.077736,33.5168417 270.435725,36.0099818 274.783336,40.9917537 C279.128708,45.978034 281.302514,53.2500685 281.302514,62.8123655 C281.302514,63.7839237 281.282365,64.7983117 281.242069,65.851021 C281.199532,66.9037302 281.139087,67.7558161 281.060731,68.4027702 L244.240362,68.4027702 C244.240362,72.1312094 245.767176,75.0706803 248.829756,77.2144201 C251.88562,79.3649226 255.830261,80.4356654 260.659198,80.4356654 C263.634468,80.4356654 266.470937,80.1110612 269.170844,79.461853 C271.866273,78.8171531 274.138582,78.1679448 275.990011,77.5164823 L278.042926,90.2819906 C275.466149,91.1769062 272.730422,91.9230449 269.833507,92.5316777 C266.936593,93.1380562 263.677004,93.4423726 260.054741,93.4423726 C255.225804,93.4423726 250.898341,92.8134521 247.076832,91.5601194 C243.255322,90.3022784 239.995733,88.4380588 237.300304,85.9674606 C234.602636,83.4946082 232.531812,80.4356654 231.081115,76.7883772 C229.632659,73.1433432 228.909549,68.8874222 228.909549,64.0273768 Z" id="Fill-10" fill="#FEFEFE" fill-rule="nonzero"></path>
                        <path d="M334.961032,50.1710629 C333.99614,49.9253556 332.849911,49.6819025 331.522345,49.4407036 C330.194779,49.1972505 328.844825,48.9763394 327.476962,48.7712076 C326.106861,48.5728384 324.779294,48.4285699 323.492025,48.3451647 C322.204757,48.268522 321.116735,48.2256923 320.232437,48.2256923 C318.139226,48.2256923 316.08855,48.3271311 314.078172,48.5300087 C312.063316,48.7328863 310.010402,49.1160995 307.921668,49.6819025 L307.921668,92.1058602 L292.95129,92.1058602 L292.95129,38.7445463 C296.893692,37.2838277 300.936835,36.111646 305.082961,35.2167305 C309.229086,34.3263233 314.078172,33.8799926 319.630219,33.8799926 C320.433923,33.8799926 321.580151,33.9228223 323.068906,34.0017191 C324.559899,34.0851244 326.149396,34.2248845 327.839636,34.4277621 C329.529876,34.6306396 331.238026,34.8740928 332.968564,35.1581214 C334.699101,35.4444042 336.248301,35.8253632 337.618403,36.3145236 L334.961032,50.1710629 Z" id="Fill-12" fill="#FEFEFE" fill-rule="nonzero"></path>
                        <path d="M388.887302,89.6747104 C388.647758,89.8392666 388.103747,90.1210411 387.257507,90.5267963 C386.413507,90.9325514 385.305337,91.3585944 383.937473,91.8004167 C382.567371,92.2490016 380.899519,92.6322148 378.929438,92.9568189 C376.954879,93.2791689 374.720628,93.4414709 372.228923,93.4414709 C365.387368,93.4414709 360.397242,91.3969157 357.260784,87.3032968 C354.119847,83.2119321 352.552737,77.2360604 352.552737,69.3756809 L352.552737,20.874412 L336.857012,20.874412 L336.857012,8.47633715 L367.399985,8.47633715 L367.399985,70.4689657 C367.399985,74.359707 368.163392,76.9948615 369.694682,78.3699207 C371.221495,79.7494883 373.153518,80.4370179 375.488511,80.4370179 C378.463782,80.4370179 380.957725,80.0312627 382.972581,79.2220066 C384.98296,78.4127504 386.310526,77.8852687 386.955279,77.6418156 L388.887302,89.6747104 Z" id="Fill-14" fill="#FEFEFE" fill-rule="nonzero"></path>
                        <path d="M431.59799,58.0717925 C431.59799,56.532177 431.396504,55.0511706 430.993533,53.6332817 C430.590562,52.2153928 429.948047,50.9417724 429.06151,49.8034037 C428.177213,48.6740518 427.051132,47.7588484 425.683269,47.0713188 C424.313167,46.381535 422.622927,46.0366431 420.612549,46.0366431 C418.680526,46.0366431 417.008196,46.3612473 415.602274,47.0104555 C414.194114,47.6596638 413.025498,48.550071 412.100902,49.6816771 C411.176308,50.8200458 410.45096,52.113954 409.929336,53.5746726 C409.403234,55.0308829 409.062948,56.532177 408.901759,58.0717925 L431.59799,58.0717925 Z M393.570946,64.0273768 C393.570946,59.0050294 394.334353,54.5868064 395.865643,50.7772161 C397.392456,46.96988 399.405073,43.7892103 401.901255,41.2352068 C404.395199,38.6834576 407.251817,36.7606289 410.471108,35.4622123 C413.688161,34.16605 416.990286,33.5168417 420.370766,33.5168417 C428.739133,33.5168417 435.097123,36.0099818 439.444734,40.9917537 C443.792344,45.978034 445.963911,53.2500685 445.963911,62.8123655 C445.963911,63.7839237 445.943763,64.7983117 445.903466,65.851021 C445.86093,66.9037302 445.800484,67.7558161 445.722129,68.4027702 L408.901759,68.4027702 C408.901759,72.1312094 410.430811,75.0706803 413.491153,77.2144201 C416.547018,79.3649226 420.493896,80.4356654 425.320595,80.4356654 C428.298104,80.4356654 431.132334,80.1110612 433.832241,79.461853 C436.52767,78.8171531 438.799979,78.1679448 440.651408,77.5164823 L442.704322,90.2819906 C440.127546,91.1769062 437.391819,91.9230449 434.494905,92.5316777 C431.59799,93.1380562 428.338401,93.4423726 424.718377,93.4423726 C419.887201,93.4423726 415.559738,92.8134521 411.738229,91.5601194 C407.916719,90.3022784 404.65713,88.4380588 401.961701,85.9674606 C399.264033,83.4946082 397.193209,80.4356654 395.744751,76.7883772 C394.294056,73.1433432 393.570946,68.8874222 393.570946,64.0273768 Z" id="Fill-16" fill="#FEFEFE" fill-rule="nonzero"></path>
                        <path d="M474.766722,80.799718 C478.386746,80.799718 481.162769,80.5382313 483.09703,80.0107496 C485.026815,79.4832678 485.996184,78.412525 485.996184,76.7895043 C485.996184,75.736795 485.693955,74.8441336 485.089498,74.1137743 C484.482803,73.3879234 483.641042,72.7590028 482.55302,72.2315211 C481.464997,71.7040394 480.218025,71.1990996 478.809865,70.7121934 C477.401705,70.2252872 475.933099,69.738381 474.404047,69.253729 C472.23248,68.6045207 470.016139,67.8538736 467.761739,67.0062961 C465.509579,66.1542102 463.458903,65.0812132 461.609714,63.7827966 C459.756046,62.4866343 458.226995,60.84558 457.02032,58.861888 C455.813645,56.878196 455.211428,54.3850559 455.211428,51.3847218 C455.211428,48.9569533 455.672605,46.6644365 456.5972,44.5184425 C457.524034,42.3701942 458.970252,40.4631449 460.942572,38.8040571 C462.914893,37.1449692 465.428985,35.8465527 468.487088,34.9133158 C471.547429,33.9845872 475.207751,33.5157146 479.477006,33.5157146 C483.175386,33.5157146 486.614073,33.8019974 489.795306,34.3678005 C492.974301,34.9336035 495.730176,35.7473681 498.062931,36.7978231 L495.772711,49.4416053 C494.40261,49.0358501 492.269101,48.3663541 489.374425,47.4331172 C486.475272,46.5043887 483.215683,46.0377702 479.59342,46.0377702 C475.812207,46.0377702 473.257818,46.5043887 471.930252,47.4331172 C470.602686,48.3663541 469.937784,49.3604543 469.937784,50.4109093 C469.937784,51.3058249 470.240012,52.0947933 470.84223,52.7823229 C471.446686,53.4721067 472.25039,54.1010273 473.257818,54.6668303 C474.263008,55.2371418 475.429385,55.7804029 476.756951,56.3078846 C478.084517,56.8353663 479.512826,57.3425603 481.044117,57.8272123 C483.215683,58.5575716 485.465605,59.3668278 487.802837,60.257235 C490.137832,61.1498964 492.251191,62.2634689 494.142917,63.602461 C496.032404,64.9391989 497.581604,66.6388623 498.788279,68.7059595 C499.997193,70.7730567 500.599411,73.3067723 500.599411,76.3025981 C500.599411,78.6559781 500.158381,80.8831232 499.269605,82.9885413 C498.387547,85.0984682 496.921179,86.9198581 494.868265,88.4594736 C492.815351,89.9990891 490.137832,91.2141004 486.837946,92.1045076 C483.535821,92.9949148 479.477006,93.4412455 474.64583,93.4412455 C469.736298,93.4412455 465.549876,92.8754425 462.09104,91.7415822 C458.629966,90.6077219 455.853942,89.5933339 453.76297,88.7006725 L456.055428,76.1808715 C458.871748,77.3192402 461.869406,78.3696953 465.0484,79.3435077 C468.227395,80.3150659 471.464596,80.799718 474.766722,80.799718" id="Fill-18" fill="#FEFEFE" fill-rule="nonzero"></path>
                        <path d="M530.214655,80.799718 C533.832441,80.799718 536.610703,80.5382313 538.542725,80.0107496 C540.47251,79.4832678 541.441879,78.412525 541.441879,76.7895043 C541.441879,75.736795 541.13965,74.8441336 540.535194,74.1137743 C539.928498,73.3879234 539.086737,72.7590028 537.998715,72.2315211 C536.912931,71.7040394 535.665959,71.1990996 534.257799,70.7121934 C532.849639,70.2252872 531.378794,69.738381 529.849742,69.253729 C527.678175,68.6045207 525.464073,67.8538736 523.209673,67.0062961 C520.955274,66.1542102 518.906837,65.0812132 517.055409,63.7827966 C515.20398,62.4866343 513.67269,60.84558 512.466015,58.861888 C511.261579,56.878196 510.659361,54.3850559 510.659361,51.3847218 C510.659361,48.9569533 511.120539,46.6644365 512.045134,44.5184425 C512.969729,42.3701942 514.415948,40.4631449 516.388268,38.8040571 C518.362826,37.1449692 520.87468,35.8465527 523.932783,34.9133158 C526.993124,33.9845872 530.653446,33.5157146 534.922701,33.5157146 C538.62332,33.5157146 542.062007,33.8019974 545.241001,34.3678005 C548.422234,34.9336035 551.175871,35.7473681 553.510864,36.7978231 L551.218407,49.4416053 C549.850544,49.0358501 547.717035,48.3663541 544.82012,47.4331172 C541.920967,46.5043887 538.663617,46.0377702 535.039115,46.0377702 C531.257903,46.0377702 528.705752,46.5043887 527.375947,47.4331172 C526.05062,48.3663541 525.383479,49.3604543 525.383479,50.4109093 C525.383479,51.3058249 525.685707,52.0947933 526.287925,52.7823229 C526.892382,53.4721067 527.696085,54.1010273 528.705752,54.6668303 C529.710942,55.2371418 530.87508,55.7804029 532.204885,56.3078846 C533.530212,56.8353663 534.960759,57.3425603 536.489812,57.8272123 C538.663617,58.5575716 540.913539,59.3668278 543.250772,60.257235 C545.583527,61.1498964 547.696887,62.2634689 549.588612,63.602461 C551.478099,64.9391989 553.027299,66.6388623 554.233974,68.7059595 C555.442888,70.7730567 556.045106,73.3067723 556.045106,76.3025981 C556.045106,78.6559781 555.606315,80.8831232 554.717539,82.9885413 C553.833242,85.0984682 552.366874,86.9198581 550.31396,88.4594736 C548.263285,89.9990891 545.583527,91.2141004 542.283641,92.1045076 C538.981516,92.9949148 534.922701,93.4412455 530.091525,93.4412455 C525.181993,93.4412455 520.997809,92.8754425 517.536735,91.7415822 C514.075661,90.6077219 511.299638,89.5933339 509.208665,88.7006725 L511.501123,76.1808715 C514.317443,77.3192402 517.315101,78.3696953 520.494096,79.3435077 C523.67309,80.3150659 526.912531,80.799718 530.214655,80.799718" id="Fill-20" fill="#FEFEFE" fill-rule="nonzero"></path>
                        <polygon id="Fill-22" fill="#FEFEFE" fill-rule="nonzero" points="576.174186 107.057713 560.720242 107.057713 594.529522 2.03700246 609.730489 2.03700246"></polygon>
                        <g id="Group-26" transform="translate(602.000000, 0.000000)">
                            <g id="Fill-24-Clipped">
                                <mask id="mask-6" fill="white">
                                    <use xlink:href="#path-5"></use>
                                </mask>
                                <g id="path-1"></g>
                                <polygon id="Fill-24" fill="#FEFEFE" fill-rule="nonzero" mask="url(#mask-6)" points="321.199568 107.897401 0.315884602 107.897401 31.0178083 0.642782589 351.901491 0.642782589"></polygon>
                            </g>
                        </g>
                        <path d="M686.405151,76.0174423 C699.528578,76.0174423 707.180553,66.5069918 707.180553,55.1954391 C707.180553,43.3834551 700.023337,34.2742513 686.405151,34.2742513 L674.376462,34.2742513 L674.376462,76.0174423 L686.405151,76.0174423 Z M660.256802,21.7612125 L686.405151,21.7612125 C707.180553,21.7612125 721.597964,35.0744907 721.597964,55.1954391 C721.597964,75.3141334 707.180553,88.5304808 686.405151,88.5304808 L660.256802,88.5304808 L660.256802,21.7612125 Z" id="Fill-27" fill="#0BB8A7" fill-rule="nonzero"></path>
                        <path d="M744.946784,64.7045372 L766.919905,64.7045372 L755.983716,34.0722754 L744.946784,64.7045372 Z M770.797383,77.0146984 L741.170049,77.0146984 L736.992581,88.5291283 L721.487147,88.5291283 L747.13626,21.7621142 L764.83341,21.7621142 L790.379542,88.5291283 L774.970373,88.5291283 L770.797383,77.0146984 Z" id="Fill-29" fill="#0BB8A7" fill-rule="nonzero"></path>
                        <polygon id="Fill-31" fill="#0BB8A7" fill-rule="nonzero" points="807.082248 61.1999395 781.536116 21.7605363 797.637052 21.7605363 814.14096 48.5899703 830.445623 21.7605363 846.551035 21.7605363 821.201911 61.1999395 821.201911 88.5298045 807.082248 88.5298045"></polygon>
                        <path d="M853.052751,68.308094 C857.722732,73.2132232 864.980695,77.3158589 874.128141,77.3158589 C881.883094,77.3158589 885.65983,73.61447 885.65983,69.8093881 C885.65983,64.8050743 879.892865,63.1009025 872.240889,61.3020546 C861.40097,58.7976434 847.48503,55.7950551 847.48503,40.8812982 C847.48503,29.7681147 857.02873,20.7603497 872.637143,20.7603497 C883.172602,20.7603497 891.923794,23.9613073 898.485506,30.0679227 L890.632047,40.4777972 C885.265816,35.4757375 878.104119,33.1719498 871.640912,33.1719498 C865.278443,33.1719498 861.900201,35.9739147 861.900201,39.97962 C861.900201,44.4835025 867.465683,45.8878662 875.122131,47.6889684 C886.058324,50.1866169 899.976496,53.4935216 899.976496,68.308094 C899.976496,80.5190706 891.330529,89.7297127 873.43413,89.7297127 C860.7092,89.7297127 851.561754,85.4264537 845.29555,79.1192153 L853.052751,68.308094 Z" id="Fill-33" fill="#0BB8A7" fill-rule="nonzero"></path>
                        <g id="Group-37" transform="translate(3.464289, 103.692990)">
                            <g id="Fill-35-Clipped">
                                <mask id="mask-8" fill="white">
                                    <use xlink:href="#path-7"></use>
                                </mask>
                                <g id="path-3"></g>
                                <path d="M28.8911597,7.77843822 L4.03679501,7.77843822 C2.07566877,7.77843822 0.486171482,6.18021366 0.486171482,4.20328427 C0.486171482,2.22635488 2.07566877,0.628130319 4.03679501,0.628130319 L28.8911597,0.628130319 C30.8522859,0.628130319 32.4417832,2.22635488 32.4417832,4.20328427 C32.4417832,6.18021366 30.8522859,7.77843822 28.8911597,7.77843822 M75.0492654,7.77843822 L50.1949007,7.77843822 C48.2337746,7.77843822 46.6442773,6.18021366 46.6442773,4.20328427 C46.6442773,2.22635488 48.2337746,0.628130319 50.1949007,0.628130319 L75.0492654,0.628130319 C77.0103916,0.628130319 78.599889,2.22635488 78.599889,4.20328427 C78.599889,6.18021366 77.0103916,7.77843822 75.0492654,7.77843822 M121.207371,7.77843822 L96.3530066,7.77843822 C94.3918805,7.77843822 92.8023827,6.18021366 92.8023827,4.20328427 C92.8023827,2.22635488 94.3918805,0.628130319 96.3530066,0.628130319 L121.207371,0.628130319 C123.166258,0.628130319 124.757994,2.22635488 124.757994,4.20328427 C124.757994,6.18021366 123.166258,7.77843822 121.207371,7.77843822 M167.365477,7.77843822 L142.508874,7.77843822 C140.547748,7.77843822 138.960489,6.18021366 138.960489,4.20328427 C138.960489,2.22635488 140.547748,0.628130319 142.508874,0.628130319 L167.365477,0.628130319 C169.324365,0.628130319 170.913862,2.22635488 170.913862,4.20328427 C170.913862,6.18021366 169.324365,7.77843822 167.365477,7.77843822 M213.521344,7.77843822 L188.666979,7.77843822 C186.705853,7.77843822 185.116356,6.18021366 185.116356,4.20328427 C185.116356,2.22635488 186.705853,0.628130319 188.666979,0.628130319 L213.521344,0.628130319 C215.482471,0.628130319 217.071968,2.22635488 217.071968,4.20328427 C217.071968,6.18021366 215.482471,7.77843822 213.521344,7.77843822 M259.67945,7.77843822 L234.825085,7.77843822 C232.863959,7.77843822 231.274462,6.18021366 231.274462,4.20328427 C231.274462,2.22635488 232.863959,0.628130319 234.825085,0.628130319 L259.67945,0.628130319 C261.640576,0.628130319 263.230073,2.22635488 263.230073,4.20328427 C263.230073,6.18021366 261.640576,7.77843822 259.67945,7.77843822 M305.837556,7.77843822 L280.983191,7.77843822 C279.022065,7.77843822 277.432567,6.18021366 277.432567,4.20328427 C277.432567,2.22635488 279.022065,0.628130319 280.983191,0.628130319 L305.837556,0.628130319 C307.798682,0.628130319 309.38594,2.22635488 309.38594,4.20328427 C309.38594,6.18021366 307.798682,7.77843822 305.837556,7.77843822 M351.993423,7.77843822 L327.141297,7.77843822 C325.18017,7.77843822 323.590673,6.18021366 323.590673,4.20328427 C323.590673,2.22635488 325.18017,0.628130319 327.141297,0.628130319 L351.993423,0.628130319 C353.954549,0.628130319 355.544046,2.22635488 355.544046,4.20328427 C355.544046,6.18021366 353.954549,7.77843822 351.993423,7.77843822 M398.151528,7.77843822 L373.297164,7.77843822 C371.336037,7.77843822 369.74654,6.18021366 369.74654,4.20328427 C369.74654,2.22635488 371.336037,0.628130319 373.297164,0.628130319 L398.151528,0.628130319 C400.112654,0.628130319 401.702152,2.22635488 401.702152,4.20328427 C401.702152,6.18021366 400.112654,7.77843822 398.151528,7.77843822 M444.309634,7.77843822 L419.45527,7.77843822 C417.494144,7.77843822 415.904646,6.18021366 415.904646,4.20328427 C415.904646,2.22635488 417.494144,0.628130319 419.45527,0.628130319 L444.309634,0.628130319 C446.270761,0.628130319 447.860258,2.22635488 447.860258,4.20328427 C447.860258,6.18021366 446.270761,7.77843822 444.309634,7.77843822 M490.46774,7.77843822 L465.613375,7.77843822 C463.650011,7.77843822 462.062752,6.18021366 462.062752,4.20328427 C462.062752,2.22635488 463.650011,0.628130319 465.613375,0.628130319 L490.46774,0.628130319 C492.431105,0.628130319 494.018364,2.22635488 494.018364,4.20328427 C494.018364,6.18021366 492.431105,7.77843822 490.46774,7.77843822 M536.623607,7.77843822 L511.769242,7.77843822 C509.805878,7.77843822 508.218619,6.18021366 508.218619,4.20328427 C508.218619,2.22635488 509.805878,0.628130319 511.769242,0.628130319 L536.623607,0.628130319 C538.586972,0.628130319 540.174231,2.22635488 540.174231,4.20328427 C540.174231,6.18021366 538.586972,7.77843822 536.623607,7.77843822" id="Fill-35" fill="#0BB8A7" fill-rule="nonzero" mask="url(#mask-8)"></path>
                            </g>
                        </g>
                    </g>
                </g>
                <text id="TORONTO" font-family="Lato-Bold, Lato" font-size="75" font-weight="bold" fill="#FEFEFE">
                    <tspan x="1053.34375" y="85">TORONTO</tspan>
                </text>
            </g>
        </g>
    </g>
</svg>