<svg width="2160" height="1080" fill="none" xmlns="http://www.w3.org/2000/svg"><g clip-path="url(#clip0)"><path fill-rule="evenodd" clip-rule="evenodd" d="M0 0h2160v1080H0V0z" fill="#1C1E35"/><g opacity=".5"><path d="M1872.993 1148.53L6.38-417.743" stroke="#4A90E2" stroke-width="30" stroke-linecap="square"/><path d="M1892.993 1125.53L26.38-440.743" stroke="#333B97" stroke-width="30" stroke-linecap="square"/><path d="M1851.993 1169.53L-14.62-396.743" stroke="#883397" stroke-width="30" stroke-linecap="square"/><path d="M1831.993 1191.53L-34.62-374.743" stroke="#653397" stroke-width="30" stroke-linecap="square"/><path fill-rule="evenodd" clip-rule="evenodd" d="M1440.718 720.794c-18.201 10.508-41.475 4.272-51.984-13.93-10.508-18.2-4.272-41.475 13.93-51.984 18.2-10.508 41.475-4.272 51.984 13.93 10.508 18.201 4.272 41.475-13.93 51.984z" fill="#333B97"/><path fill-rule="evenodd" clip-rule="evenodd" d="M1391.905 700.425c-13.762 7.946-31.36 3.23-39.305-10.531-7.946-13.762-3.23-31.36 10.532-39.305 13.762-7.946 31.36-3.23 39.305 10.531 7.945 13.762 3.23 31.36-10.532 39.305zm58.18 44.188c-13.762 7.946-31.36 3.23-39.305-10.531-7.946-13.762-3.23-31.36 10.532-39.305 13.762-7.946 31.36-3.23 39.305 10.531 7.945 13.762 3.23 31.36-10.532 39.305z" fill="#333B97"/><path fill-rule="evenodd" clip-rule="evenodd" d="M568 161.752c13.392-7.732 30.516-3.144 38.248 10.248 7.732 13.393 3.144 30.517-10.248 38.249-13.393 7.732-30.517 3.144-38.249-10.249-7.732-13.392-3.144-30.516 10.249-38.248z" fill="#653397"/><path fill-rule="evenodd" clip-rule="evenodd" d="M603.75 176.88c10.283-5.936 23.432-2.413 29.37 7.87 5.936 10.284 2.413 23.433-7.87 29.37-10.284 5.937-23.433 2.414-29.37-7.87-5.937-10.283-2.414-23.432 7.87-29.37zm-43-33c10.283-5.936 23.432-2.413 29.37 7.87 5.936 10.284 2.413 23.433-7.87 29.37-10.284 5.937-23.433 2.414-29.37-7.87-5.937-10.283-2.414-23.432 7.87-29.37z" fill="#653397"/><path fill-rule="evenodd" clip-rule="evenodd" d="M1472.285 625.819a7.425 7.425 0 1 1-7.426-12.861 7.425 7.425 0 0 1 7.426 12.86zm-77.708-68.141c-5.772 3.332-13.151 1.355-16.483-4.416-3.332-5.771-1.355-13.15 4.416-16.483 5.772-3.332 13.151-1.355 16.483 4.417 3.332 5.77 1.355 13.15-4.416 16.482zm152.163 5.916a8.354 8.354 0 1 1-8.354-14.47 8.354 8.354 0 0 1 8.353 14.47z" fill="#333B97"/><path fill-rule="evenodd" clip-rule="evenodd" d="M1384.68 68.91a6.5 6.5 0 1 0-9.958 8.355 6.5 6.5 0 0 0 9.958-8.356zm-141.517 365.038a3.264 3.264 0 1 0-5.001 4.196 3.264 3.264 0 0 0 5.001-4.196z" fill="#4A90E2"/><path fill-rule="evenodd" clip-rule="evenodd" d="M1397.31 300.19a6.5 6.5 0 1 0-9.958 8.357 6.5 6.5 0 0 0 9.958-8.357z" fill="#333B97"/><path fill-rule="evenodd" clip-rule="evenodd" d="M1560.142 410.756a4.5 4.5 0 1 0-6.895 5.785 4.5 4.5 0 0 0 6.895-5.785z" fill="#4A90E2"/><path fill-rule="evenodd" clip-rule="evenodd" d="M1283.237 358.707a4 4 0 1 0-6.128 5.142 4 4 0 0 0 6.128-5.142zM1182.94 226.833a8.367 8.367 0 1 0-12.818 10.756 8.367 8.367 0 0 0 12.819-10.756z" fill="#883397"/><path fill-rule="evenodd" clip-rule="evenodd" d="M1188.299 340.464a2 2 0 1 0-3.065 2.57 2 2 0 0 0 3.065-2.57z" fill="#653397"/><path fill-rule="evenodd" clip-rule="evenodd" d="M327.681 383.91a6.5 6.5 0 1 0-9.958 8.356 6.5 6.5 0 0 0 9.958-8.357zM186.162 748.948a3.264 3.264 0 1 0-5.001 4.196 3.264 3.264 0 0 0 5.001-4.196z" fill="#4A90E2"/><path fill-rule="evenodd" clip-rule="evenodd" d="M451.982 283.101a5.178 5.178 0 1 0-7.933 6.657 5.178 5.178 0 0 0 7.933-6.657z" fill="#883397"/><path fill-rule="evenodd" clip-rule="evenodd" d="M340.313 615.19a6.5 6.5 0 1 0-9.958 8.357 6.5 6.5 0 0 0 9.958-8.357z" fill="#333B97"/><path fill-rule="evenodd" clip-rule="evenodd" d="M503.146 725.756a4.5 4.5 0 1 0-6.895 5.785 4.5 4.5 0 0 0 6.895-5.785z" fill="#4A90E2"/><path fill-rule="evenodd" clip-rule="evenodd" d="M226.24 673.707a4 4 0 1 0-6.13 5.142 4 4 0 0 0 6.13-5.142zm68.847-466.643a4 4 0 1 0-6.128 5.142 4 4 0 0 0 6.128-5.142zm-169.15 334.769a8.367 8.367 0 1 0-12.82 10.756 8.367 8.367 0 0 0 12.82-10.756z" fill="#883397"/><path fill-rule="evenodd" clip-rule="evenodd" d="M131.3 655.464a2 2 0 1 0-3.064 2.57 2 2 0 0 0 3.065-2.57z" fill="#653397"/><path fill-rule="evenodd" clip-rule="evenodd" d="M979.673 943.833a6.5 6.5 0 1 0-2.258-12.803 6.5 6.5 0 0 0 2.258 12.803zM734.3 638.753a3.264 3.264 0 1 0-1.134-6.43 3.264 3.264 0 0 0 1.133 6.43z" fill="#4A90E2"/><path fill-rule="evenodd" clip-rule="evenodd" d="M773.06 839.132a6.5 6.5 0 1 0-2.257-12.803 6.5 6.5 0 0 0 2.258 12.803z" fill="#333B97"/><path fill-rule="evenodd" clip-rule="evenodd" d="M595.892 924.866a4.5 4.5 0 1 0-1.562-8.863 4.5 4.5 0 0 0 1.562 8.863z" fill="#4A90E2"/><path fill-rule="evenodd" clip-rule="evenodd" d="M779.421 711.082a4 4 0 1 0-1.389-7.879 4 4 0 0 0 1.39 7.879zm369.697 292.945a4 4 0 1 0-1.389-7.879 4 4 0 0 0 1.39 7.879zM943.779 690.155a8.367 8.367 0 1 0-2.906-16.48 8.367 8.367 0 0 0 2.906 16.48z" fill="#883397"/><path fill-rule="evenodd" clip-rule="evenodd" d="M842.69 637.985a2 2 0 1 0-.695-3.94 2 2 0 0 0 .694 3.94z" fill="#653397"/><path fill-rule="evenodd" clip-rule="evenodd" d="M1827.9 436.623a6.5 6.5 0 1 0 9.958-8.357 6.5 6.5 0 0 0-9.958 8.357zm141.517-365.04a3.264 3.264 0 1 0 5.001-4.196 3.264 3.264 0 0 0-5.001 4.196z" fill="#4A90E2"/><path fill-rule="evenodd" clip-rule="evenodd" d="M1703.595 537.43a5.178 5.178 0 1 0 7.933-6.656 5.178 5.178 0 0 0-7.933 6.657z" fill="#883397"/><path fill-rule="evenodd" clip-rule="evenodd" d="M1815.26 205.34a6.5 6.5 0 1 0 9.958-8.356 6.5 6.5 0 0 0-9.958 8.357z" fill="#333B97"/><path fill-rule="evenodd" clip-rule="evenodd" d="M1652.428 94.776a4.5 4.5 0 1 0 6.895-5.785 4.5 4.5 0 0 0-6.895 5.785z" fill="#4A90E2"/><path fill-rule="evenodd" clip-rule="evenodd" d="M1929.343 146.824a4 4 0 1 0 6.128-5.142 4 4 0 0 0-6.128 5.142zm-68.85 466.643a4 4 0 1 0 6.128-5.142 4 4 0 0 0-6.128 5.142zm169.147-334.768a8.367 8.367 0 1 0 12.818-10.756 8.367 8.367 0 0 0-12.819 10.756z" fill="#883397"/><path fill-rule="evenodd" clip-rule="evenodd" d="M2024.271 165.068a2 2 0 1 0 3.065-2.57 2 2 0 0 0-3.065 2.57z" fill="#653397"/></g><path d="M789.351 723.52h-11.136V754h-4.632v-30.48h-11.16v-3.912h26.928v3.912zm14.508 15.672c0-.992-.144-1.896-.432-2.712-.272-.832-.68-1.544-1.224-2.136a5.166 5.166 0 0 0-1.944-1.392c-.768-.336-1.64-.504-2.616-.504-2.048 0-3.672.6-4.872 1.8-1.184 1.184-1.92 2.832-2.208 4.944h13.296zm3.456 11.4c-.528.64-1.16 1.2-1.896 1.68-.736.464-1.528.848-2.376 1.152-.832.304-1.696.528-2.592.672-.896.16-1.784.24-2.664.24-1.68 0-3.232-.28-4.656-.84A10.543 10.543 0 0 1 789.46 751c-1.024-1.104-1.824-2.464-2.4-4.08-.576-1.616-.864-3.472-.864-5.568 0-1.696.256-3.28.768-4.752.528-1.472 1.28-2.744 2.256-3.816.976-1.088 2.168-1.936 3.576-2.544 1.408-.624 2.992-.936 4.752-.936 1.456 0 2.8.248 4.032.744a8.798 8.798 0 0 1 3.216 2.112c.912.912 1.624 2.048 2.136 3.408.512 1.344.768 2.88.768 4.608 0 .672-.072 1.12-.216 1.344-.144.224-.416.336-.816.336H790.42c.048 1.536.256 2.872.624 4.008.384 1.136.912 2.088 1.584 2.856a6.526 6.526 0 0 0 2.4 1.704c.928.368 1.968.552 3.12.552 1.072 0 1.992-.12 2.76-.36a13.825 13.825 0 0 0 2.016-.816c.56-.288 1.024-.552 1.392-.792.384-.256.712-.384.984-.384.352 0 .624.136.816.408l1.2 1.56zm10.047-31.944V754h-4.271v-35.352h4.272zm26.92 11.04V754h-2.544c-.608 0-.992-.296-1.152-.888l-.336-2.616a13.581 13.581 0 0 1-3.552 2.832c-1.312.704-2.816 1.056-4.512 1.056-1.328 0-2.504-.216-3.528-.648a7.115 7.115 0 0 1-2.544-1.872c-.688-.8-1.208-1.768-1.56-2.904-.336-1.136-.504-2.392-.504-3.768v-15.504h4.272v15.504c0 1.84.416 3.264 1.248 4.272.848 1.008 2.136 1.512 3.864 1.512 1.264 0 2.44-.296 3.528-.888 1.104-.608 2.12-1.44 3.048-2.496v-17.904h4.272zm20.934 4.008a.947.947 0 0 1-.888.528c-.24 0-.512-.088-.816-.264a14.36 14.36 0 0 0-1.128-.576 8.608 8.608 0 0 0-1.56-.6c-.608-.192-1.328-.288-2.16-.288-.72 0-1.368.096-1.944.288a4.637 4.637 0 0 0-1.488.744c-.4.32-.712.696-.936 1.128a3.016 3.016 0 0 0-.312 1.368c0 .624.176 1.144.528 1.56.368.416.848.776 1.44 1.08.592.304 1.264.576 2.016.816.752.224 1.52.472 2.304.744.8.256 1.576.544 2.328.864.752.32 1.424.72 2.016 1.2a5.315 5.315 0 0 1 1.416 1.776c.368.688.552 1.52.552 2.496 0 1.12-.2 2.16-.6 3.12a6.919 6.919 0 0 1-1.776 2.472c-.784.688-1.744 1.232-2.88 1.632-1.136.4-2.448.6-3.936.6-1.696 0-3.232-.272-4.608-.816-1.376-.56-2.544-1.272-3.504-2.136l1.008-1.632c.128-.208.28-.368.456-.48.176-.112.4-.168.672-.168.288 0 .592.112.912.336.32.224.704.472 1.152.744.464.272 1.024.52 1.68.744.656.224 1.472.336 2.448.336.832 0 1.56-.104 2.184-.312.624-.224 1.144-.52 1.56-.888.416-.368.72-.792.912-1.272.208-.48.312-.992.312-1.536 0-.672-.184-1.224-.552-1.656-.352-.448-.824-.824-1.416-1.128a10.425 10.425 0 0 0-2.04-.816l-2.328-.744a31.36 31.36 0 0 1-2.328-.864 8.547 8.547 0 0 1-2.016-1.248 5.78 5.78 0 0 1-1.44-1.824c-.352-.736-.528-1.624-.528-2.664 0-.928.192-1.816.576-2.664a6.416 6.416 0 0 1 1.68-2.256c.736-.656 1.64-1.176 2.712-1.56 1.072-.384 2.296-.576 3.672-.576 1.6 0 3.032.256 4.296.768 1.28.496 2.384 1.184 3.312 2.064l-.96 1.56zm47.759-14.088V754h-4.656v-15.648h-18.552V754h-4.656v-34.392h4.656v15.336h18.552v-15.336h4.656zm20.257 23.448c-1.968.064-3.648.224-5.04.48-1.376.24-2.504.56-3.384.96-.864.4-1.496.872-1.896 1.416a3.09 3.09 0 0 0-.576 1.824c0 .64.104 1.192.312 1.656.208.464.488.848.84 1.152.368.288.792.504 1.272.648a6.319 6.319 0 0 0 1.584.192c.752 0 1.44-.072 2.064-.216a7.949 7.949 0 0 0 1.752-.672 9.275 9.275 0 0 0 1.584-1.032c.512-.4 1.008-.856 1.488-1.368v-5.04zm-13.8-9.936c1.344-1.296 2.792-2.264 4.344-2.904 1.552-.64 3.272-.96 5.16-.96 1.36 0 2.568.224 3.624.672 1.056.448 1.944 1.072 2.664 1.872.72.8 1.264 1.768 1.632 2.904.368 1.136.552 2.384.552 3.744V754h-1.896c-.416 0-.736-.064-.96-.192-.224-.144-.4-.416-.528-.816l-.48-2.304c-.64.592-1.264 1.12-1.872 1.584-.608.448-1.248.832-1.92 1.152-.672.304-1.392.536-2.16.696-.752.176-1.592.264-2.52.264a9.012 9.012 0 0 1-2.664-.384 6.437 6.437 0 0 1-2.184-1.2c-.608-.528-1.096-1.192-1.464-1.992-.352-.816-.528-1.776-.528-2.88 0-.96.264-1.88.792-2.76.528-.896 1.384-1.688 2.568-2.376 1.184-.688 2.728-1.248 4.632-1.68 1.904-.448 4.24-.704 7.008-.768v-1.896c0-1.888-.408-3.312-1.224-4.272-.816-.976-2.008-1.464-3.576-1.464-1.056 0-1.944.136-2.664.408a9.455 9.455 0 0 0-1.848.888c-.512.32-.96.616-1.344.888-.368.256-.736.384-1.104.384-.288 0-.536-.072-.744-.216a2.268 2.268 0 0 1-.528-.576l-.768-1.368zm28.539 1.44c.768-1.664 1.712-2.96 2.832-3.888 1.12-.944 2.488-1.416 4.104-1.416.512 0 1 .056 1.464.168.48.112.904.288 1.272.528l-.312 3.192c-.096.4-.336.6-.72.6-.224 0-.552-.048-.984-.144a6.775 6.775 0 0 0-1.464-.144c-.768 0-1.456.112-2.064.336a4.862 4.862 0 0 0-1.608 1.008c-.464.432-.888.976-1.272 1.632-.368.64-.704 1.376-1.008 2.208V754h-4.296v-24.312h2.448c.464 0 .784.088.96.264.176.176.296.48.36.912l.288 3.696zm17.725 13.584c.784 1.056 1.64 1.8 2.568 2.232.944.432 1.976.648 3.096.648 2.288 0 4.04-.808 5.256-2.424 1.216-1.616 1.824-4.024 1.824-7.224 0-2.976-.544-5.16-1.632-6.552-1.072-1.408-2.608-2.112-4.608-2.112-1.392 0-2.608.32-3.648.96-1.024.64-1.976 1.544-2.856 2.712v11.76zm0-14.952c1.024-1.184 2.176-2.128 3.456-2.832 1.296-.704 2.784-1.056 4.464-1.056 1.424 0 2.704.272 3.84.816a7.922 7.922 0 0 1 2.928 2.376c.8 1.024 1.408 2.272 1.824 3.744.432 1.472.648 3.128.648 4.968 0 1.968-.24 3.76-.72 5.376-.48 1.616-1.176 3-2.088 4.152a9.488 9.488 0 0 1-3.288 2.664c-1.296.624-2.752.936-4.368.936-1.6 0-2.952-.296-4.056-.888-1.088-.608-2.04-1.464-2.856-2.568l-.216 2.208c-.128.608-.496.912-1.104.912h-2.76v-35.352h4.296v14.544zm32.811-3.888c1.776 0 3.376.296 4.8.888a10.286 10.286 0 0 1 3.648 2.52c1.008 1.088 1.776 2.408 2.304 3.96.544 1.536.816 3.256.816 5.16 0 1.92-.272 3.648-.816 5.184-.528 1.536-1.296 2.848-2.304 3.936a10.286 10.286 0 0 1-3.648 2.52c-1.424.576-3.024.864-4.8.864-1.792 0-3.408-.288-4.848-.864a10.286 10.286 0 0 1-3.648-2.52c-1.008-1.088-1.784-2.4-2.328-3.936-.528-1.536-.792-3.264-.792-5.184 0-1.904.264-3.624.792-5.16.544-1.552 1.32-2.872 2.328-3.96a10.286 10.286 0 0 1 3.648-2.52c1.44-.592 3.056-.888 4.848-.888zm0 21.696c2.4 0 4.192-.8 5.376-2.4 1.184-1.616 1.776-3.864 1.776-6.744 0-2.896-.592-5.152-1.776-6.768-1.184-1.616-2.976-2.424-5.376-2.424-1.216 0-2.28.208-3.192.624a6.03 6.03 0 0 0-2.256 1.8c-.592.784-1.04 1.752-1.344 2.904-.288 1.136-.432 2.424-.432 3.864 0 2.88.592 5.128 1.776 6.744 1.2 1.6 3.016 2.4 5.448 2.4zm36.978-21.312V754h-2.544c-.608 0-.992-.296-1.152-.888l-.336-2.616a13.585 13.585 0 0 1-3.552 2.832c-1.312.704-2.816 1.056-4.512 1.056-1.328 0-2.504-.216-3.528-.648a7.116 7.116 0 0 1-2.544-1.872c-.688-.8-1.208-1.768-1.56-2.904-.336-1.136-.504-2.392-.504-3.768v-15.504h4.272v15.504c0 1.84.416 3.264 1.248 4.272.848 1.008 2.136 1.512 3.864 1.512 1.264 0 2.44-.296 3.528-.888 1.104-.608 2.12-1.44 3.048-2.496v-17.904h4.272zm10.83 4.872c.768-1.664 1.712-2.96 2.832-3.888 1.12-.944 2.488-1.416 4.104-1.416.512 0 1 .056 1.464.168.48.112.904.288 1.272.528l-.312 3.192c-.096.4-.336.6-.72.6-.224 0-.552-.048-.984-.144a6.775 6.775 0 0 0-1.464-.144c-.768 0-1.456.112-2.064.336a4.862 4.862 0 0 0-1.608 1.008c-.464.432-.888.976-1.272 1.632-.368.64-.704 1.376-1.008 2.208V754h-4.296v-24.312h2.448c.464 0 .784.088.96.264.176.176.296.48.36.912l.288 3.696zm24.294 3.24h11.856v3.624h-11.856V737.8zm50.782 12.144c.464 0 .832.136 1.104.408.272.272.408.624.408 1.056V754h-22.944v-1.464c0-.304.064-.616.192-.936.128-.32.328-.616.6-.888l11.016-11.064a71.506 71.506 0 0 0 2.496-2.664 19.284 19.284 0 0 0 1.92-2.592 12.44 12.44 0 0 0 1.224-2.616 9.278 9.278 0 0 0 .432-2.856c0-1.008-.16-1.888-.48-2.64-.32-.768-.76-1.4-1.32-1.896a5.18 5.18 0 0 0-1.944-1.104 7.473 7.473 0 0 0-2.424-.384c-.88 0-1.688.128-2.424.384a6.525 6.525 0 0 0-1.968 1.08 6.207 6.207 0 0 0-1.416 1.608 6.477 6.477 0 0 0-.816 2.064c-.192.56-.456.936-.792 1.128-.32.176-.776.224-1.368.144l-2.232-.384c.224-1.568.656-2.952 1.296-4.152.656-1.216 1.472-2.232 2.448-3.048a10.383 10.383 0 0 1 3.384-1.848c1.264-.432 2.632-.648 4.104-.648 1.456 0 2.816.216 4.08.648 1.264.432 2.36 1.064 3.288 1.896a8.6 8.6 0 0 1 2.184 3c.528 1.184.792 2.528.792 4.032 0 1.28-.192 2.472-.576 3.576a14.224 14.224 0 0 1-1.56 3.12 23.542 23.542 0 0 1-2.28 2.904 73.647 73.647 0 0 1-2.712 2.856l-9.072 9.264c.64-.176 1.288-.312 1.944-.408a11.267 11.267 0 0 1 1.896-.168h11.52zm12.844-17.352c1.792-.384 3.44-.576 4.944-.576 1.792 0 3.376.264 4.752.792s2.52 1.256 3.432 2.184a8.95 8.95 0 0 1 2.088 3.288c.48 1.264.72 2.64.72 4.128 0 1.824-.32 3.472-.96 4.944a11.096 11.096 0 0 1-2.616 3.792c-1.104 1.04-2.408 1.84-3.912 2.4-1.504.56-3.128.84-4.872.84-1.008 0-1.976-.104-2.904-.312-.928-.192-1.8-.456-2.616-.792-.8-.336-1.544-.72-2.232-1.152a12.904 12.904 0 0 1-1.824-1.368l1.32-1.824c.288-.416.664-.624 1.128-.624.32 0 .68.128 1.08.384.4.24.888.512 1.464.816.576.304 1.248.584 2.016.84.784.24 1.712.36 2.784.36 1.2 0 2.28-.192 3.24-.576a7.092 7.092 0 0 0 2.472-1.632 7.386 7.386 0 0 0 1.584-2.568c.368-.992.552-2.104.552-3.336 0-1.072-.16-2.04-.48-2.904a5.526 5.526 0 0 0-1.416-2.208c-.624-.608-1.408-1.08-2.352-1.416-.944-.336-2.048-.504-3.312-.504-.864 0-1.768.072-2.712.216-.928.144-1.88.376-2.856.696l-2.688-.792 2.76-16.08h16.296v1.872c0 .608-.192 1.112-.576 1.512-.368.384-1.008.576-1.92.576h-10.8l-1.584 9.024zm46.866 7.704V754h-4.656v-13.704l-12.6-20.688h4.08c.416 0 .744.104.984.312.24.192.448.448.624.768l7.872 13.368c.288.56.552 1.088.792 1.584.24.48.448.968.624 1.464.176-.496.376-.984.6-1.464.224-.496.472-1.024.744-1.584l7.848-13.368c.144-.272.344-.52.6-.744.256-.224.584-.336.984-.336h4.104l-12.6 20.688zm21.031-10.992c1.776 0 3.376.296 4.8.888a10.286 10.286 0 0 1 3.648 2.52c1.008 1.088 1.776 2.408 2.304 3.96.544 1.536.816 3.256.816 5.16 0 1.92-.272 3.648-.816 5.184-.528 1.536-1.296 2.848-2.304 3.936a10.286 10.286 0 0 1-3.648 2.52c-1.424.576-3.024.864-4.8.864-1.792 0-3.408-.288-4.848-.864a10.286 10.286 0 0 1-3.648-2.52c-1.008-1.088-1.784-2.4-2.328-3.936-.528-1.536-.792-3.264-.792-5.184 0-1.904.264-3.624.792-5.16.544-1.552 1.32-2.872 2.328-3.96a10.286 10.286 0 0 1 3.648-2.52c1.44-.592 3.056-.888 4.848-.888zm0 21.696c2.4 0 4.192-.8 5.376-2.4 1.184-1.616 1.776-3.864 1.776-6.744 0-2.896-.592-5.152-1.776-6.768-1.184-1.616-2.976-2.424-5.376-2.424-1.216 0-2.28.208-3.192.624a6.03 6.03 0 0 0-2.256 1.8c-.592.784-1.04 1.752-1.344 2.904-.288 1.136-.432 2.424-.432 3.864 0 2.88.592 5.128 1.776 6.744 1.2 1.6 3.016 2.4 5.448 2.4zm21.042-16.44c.768-1.664 1.712-2.96 2.832-3.888 1.12-.944 2.488-1.416 4.104-1.416.512 0 1 .056 1.464.168.48.112.904.288 1.272.528l-.312 3.192c-.096.4-.336.6-.72.6-.224 0-.552-.048-.984-.144a6.775 6.775 0 0 0-1.464-.144c-.768 0-1.456.112-2.064.336a4.862 4.862 0 0 0-1.608 1.008c-.464.432-.888.976-1.272 1.632-.368.64-.704 1.376-1.008 2.208V754h-4.296v-24.312h2.448c.464 0 .784.088.96.264.176.176.296.48.36.912l.288 3.696zm17.725-15.912v20.808h1.104c.32 0 .584-.04.792-.12.224-.096.456-.28.696-.552l7.68-8.232c.224-.272.456-.48.696-.624.256-.16.592-.24 1.008-.24h3.864l-8.952 9.528c-.432.544-.896.968-1.392 1.272.288.192.544.416.768.672.24.24.464.52.672.84l9.504 12h-3.816c-.368 0-.688-.056-.96-.168-.256-.128-.48-.352-.672-.672l-7.992-9.96c-.24-.336-.48-.552-.72-.648-.224-.112-.576-.168-1.056-.168h-1.224V754h-4.296v-35.352h4.296zm50.96 6.336c-.144.24-.304.424-.48.552-.16.112-.36.168-.6.168-.272 0-.592-.136-.96-.408a14.379 14.379 0 0 0-1.392-.888c-.544-.336-1.208-.64-1.992-.912-.768-.272-1.704-.408-2.808-.408-1.04 0-1.96.144-2.76.432-.784.272-1.448.648-1.992 1.128a4.72 4.72 0 0 0-1.2 1.704 5.283 5.283 0 0 0-.408 2.088c0 .96.232 1.76.696 2.4.48.624 1.104 1.16 1.872 1.608.784.448 1.664.84 2.64 1.176.992.32 2 .656 3.024 1.008 1.04.352 2.048.752 3.024 1.2.992.432 1.872.984 2.64 1.656a7.388 7.388 0 0 1 1.872 2.472c.48.976.72 2.176.72 3.6 0 1.504-.256 2.92-.768 4.248a9.71 9.71 0 0 1-2.256 3.432c-.976.976-2.184 1.744-3.624 2.304-1.424.56-3.048.84-4.872.84-2.24 0-4.272-.4-6.096-1.2-1.824-.816-3.384-1.912-4.68-3.288l1.344-2.208c.128-.176.28-.32.456-.432.192-.128.4-.192.624-.192.208 0 .44.088.696.264.272.16.576.368.912.624.336.256.72.536 1.152.84.432.304.92.584 1.464.84.56.256 1.192.472 1.896.648.704.16 1.496.24 2.376.24 1.104 0 2.088-.152 2.952-.456.864-.304 1.592-.728 2.184-1.272a5.609 5.609 0 0 0 1.392-1.992c.32-.768.48-1.624.48-2.568 0-1.04-.24-1.888-.72-2.544-.464-.672-1.08-1.232-1.848-1.68a12.486 12.486 0 0 0-2.64-1.128c-.992-.32-2-.64-3.024-.96a34.544 34.544 0 0 1-3.024-1.152 9.769 9.769 0 0 1-2.64-1.68c-.768-.688-1.392-1.544-1.872-2.568-.464-1.04-.696-2.32-.696-3.84 0-1.216.232-2.392.696-3.528a9.25 9.25 0 0 1 2.064-3.024c.912-.88 2.024-1.584 3.336-2.112 1.328-.528 2.848-.792 4.56-.792 1.92 0 3.664.304 5.232.912a12.359 12.359 0 0 1 4.176 2.64l-1.128 2.208zm13.848 29.4c-1.92 0-3.4-.536-4.44-1.608-1.024-1.072-1.536-2.616-1.536-4.632v-14.88h-2.928a.99.99 0 0 1-.648-.216c-.176-.16-.264-.4-.264-.72v-1.704l3.984-.504.984-7.512c.048-.24.152-.432.312-.576a.96.96 0 0 1 .672-.24h2.16v8.376h7.032v3.096h-7.032v14.592c0 1.024.248 1.784.744 2.28.496.496 1.136.744 1.92.744.448 0 .832-.056 1.152-.168.336-.128.624-.264.864-.408.24-.144.44-.272.6-.384.176-.128.328-.192.456-.192.224 0 .424.136.6.408l1.248 2.04c-.736.688-1.624 1.232-2.664 1.632a9.214 9.214 0 0 1-3.216.576zm13.796-19.824c.768-1.664 1.712-2.96 2.832-3.888 1.119-.944 2.487-1.416 4.103-1.416.512 0 1 .056 1.465.168.48.112.903.288 1.271.528l-.312 3.192c-.096.4-.335.6-.719.6-.224 0-.552-.048-.984-.144a6.775 6.775 0 0 0-1.464-.144c-.769 0-1.457.112-2.065.336a4.862 4.862 0 0 0-1.608 1.008c-.463.432-.887.976-1.272 1.632-.368.64-.704 1.376-1.008 2.208V754h-4.295v-24.312h2.448c.464 0 .784.088.959.264.176.176.297.48.361.912l.288 3.696zm28.716 4.632c0-.992-.144-1.896-.433-2.712-.272-.832-.68-1.544-1.224-2.136a5.155 5.155 0 0 0-1.943-1.392c-.768-.336-1.641-.504-2.616-.504-2.048 0-3.672.6-4.873 1.8-1.184 1.184-1.92 2.832-2.208 4.944h13.297zm3.455 11.4a8.32 8.32 0 0 1-1.895 1.68c-.736.464-1.528.848-2.376 1.152-.833.304-1.697.528-2.593.672-.896.16-1.784.24-2.664.24-1.68 0-3.232-.28-4.655-.84a10.557 10.557 0 0 1-3.673-2.496c-1.024-1.104-1.823-2.464-2.399-4.08-.577-1.616-.865-3.472-.865-5.568 0-1.696.256-3.28.769-4.752.528-1.472 1.28-2.744 2.256-3.816.976-1.088 2.168-1.936 3.576-2.544 1.408-.624 2.992-.936 4.751-.936 1.457 0 2.801.248 4.032.744a8.798 8.798 0 0 1 3.216 2.112c.913.912 1.625 2.048 2.137 3.408.511 1.344.767 2.88.767 4.608 0 .672-.072 1.12-.215 1.344-.144.224-.416.336-.817.336h-16.247c.047 1.536.255 2.872.623 4.008.384 1.136.912 2.088 1.585 2.856a6.526 6.526 0 0 0 2.4 1.704c.928.368 1.967.552 3.119.552 1.072 0 1.992-.12 2.76-.36a13.825 13.825 0 0 0 2.016-.816c.56-.288 1.024-.552 1.392-.792.384-.256.712-.384.985-.384.352 0 .624.136.815.408l1.2 1.56zm21.904-11.4c0-.992-.144-1.896-.432-2.712-.272-.832-.68-1.544-1.224-2.136a5.166 5.166 0 0 0-1.944-1.392c-.768-.336-1.64-.504-2.616-.504-2.048 0-3.672.6-4.872 1.8-1.184 1.184-1.92 2.832-2.208 4.944h13.296zm3.456 11.4c-.528.64-1.16 1.2-1.896 1.68-.736.464-1.528.848-2.376 1.152-.832.304-1.696.528-2.592.672-.896.16-1.784.24-2.664.24-1.68 0-3.232-.28-4.656-.84a10.543 10.543 0 0 1-3.672-2.496c-1.024-1.104-1.824-2.464-2.4-4.08-.576-1.616-.864-3.472-.864-5.568 0-1.696.256-3.28.768-4.752.528-1.472 1.28-2.744 2.256-3.816.976-1.088 2.168-1.936 3.576-2.544 1.408-.624 2.992-.936 4.752-.936 1.456 0 2.8.248 4.032.744a8.798 8.798 0 0 1 3.216 2.112c.912.912 1.624 2.048 2.136 3.408.512 1.344.768 2.88.768 4.608 0 .672-.072 1.12-.216 1.344-.144.224-.416.336-.816.336h-16.248c.048 1.536.256 2.872.624 4.008.384 1.136.912 2.088 1.584 2.856a6.526 6.526 0 0 0 2.4 1.704c.928.368 1.968.552 3.12.552 1.072 0 1.992-.12 2.76-.36a13.825 13.825 0 0 0 2.016-.816c.56-.288 1.024-.552 1.392-.792.384-.256.712-.384.984-.384.352 0 .624.136.816.408l1.2 1.56zm12.908 3.792c-1.92 0-3.4-.536-4.44-1.608-1.024-1.072-1.536-2.616-1.536-4.632v-14.88h-2.928a.99.99 0 0 1-.648-.216c-.176-.16-.264-.4-.264-.72v-1.704l3.984-.504.984-7.512c.048-.24.152-.432.312-.576a.96.96 0 0 1 .672-.24h2.16v8.376h7.032v3.096h-7.032v14.592c0 1.024.248 1.784.744 2.28.496.496 1.136.744 1.92.744.448 0 .832-.056 1.152-.168.336-.128.624-.264.864-.408.24-.144.44-.272.6-.384.176-.128.328-.192.456-.192.224 0 .424.136.6.408l1.248 2.04c-.736.688-1.624 1.232-2.664 1.632a9.214 9.214 0 0 1-3.216.576z" fill="#E8E8E8"/><path d="M898.61 1012.798a1.723 1.723 0 0 1-.45.517.957.957 0 0 1-.563.157c-.255 0-.555-.127-.9-.382a13.48 13.48 0 0 0-1.305-.832c-.51-.315-1.132-.6-1.867-.855-.72-.255-1.597-.383-2.632-.383-.975 0-1.838.135-2.588.405-.735.255-1.357.607-1.867 1.058-.495.45-.87.982-1.125 1.597a4.953 4.953 0 0 0-.383 1.957c0 .9.218 1.65.653 2.25.45.585 1.035 1.088 1.755 1.508.735.42 1.56.787 2.475 1.102.93.3 1.875.615 2.835.945.975.33 1.92.705 2.835 1.125a9.47 9.47 0 0 1 2.475 1.553 6.926 6.926 0 0 1 1.755 2.317c.45.916.675 2.04.675 3.376 0 1.41-.24 2.737-.72 3.982a9.103 9.103 0 0 1-2.115 3.218c-.915.915-2.048 1.635-3.398 2.16-1.335.525-2.857.787-4.567.787-2.1 0-4.005-.375-5.715-1.125-1.71-.765-3.173-1.792-4.388-3.082l1.26-2.07c.12-.165.262-.3.427-.405.18-.12.375-.18.585-.18.196 0 .413.082.653.247.255.15.54.345.855.585.315.24.675.503 1.08.788a9.15 9.15 0 0 0 1.373.787c.525.24 1.117.442 1.777.608.66.15 1.403.225 2.228.225 1.035 0 1.957-.143 2.767-.428.81-.285 1.493-.683 2.048-1.193a5.258 5.258 0 0 0 1.305-1.867c.3-.72.45-1.523.45-2.408 0-.975-.225-1.77-.675-2.385a5.327 5.327 0 0 0-1.733-1.575c-.72-.42-1.545-.772-2.475-1.057-.93-.3-1.875-.6-2.835-.9a32.385 32.385 0 0 1-2.835-1.08 9.158 9.158 0 0 1-2.475-1.575c-.72-.645-1.305-1.448-1.755-2.408-.435-.975-.652-2.175-.652-3.6 0-1.14.217-2.242.652-3.307a8.671 8.671 0 0 1 1.935-2.835c.855-.825 1.897-1.485 3.127-1.98 1.246-.495 2.67-.743 4.276-.743 1.8 0 3.435.285 4.905.855 1.485.57 2.79 1.395 3.915 2.475l-1.058 2.07zm22.12 13.32c0-.93-.136-1.778-.406-2.543a5.39 5.39 0 0 0-1.147-2.002 4.844 4.844 0 0 0-1.823-1.305c-.72-.315-1.537-.473-2.452-.473-1.92 0-3.443.563-4.568 1.688-1.11 1.11-1.8 2.655-2.07 4.635h12.465zm3.24 10.687a7.826 7.826 0 0 1-1.778 1.575c-.69.435-1.433.795-2.228 1.08-.78.285-1.59.495-2.43.63-.84.15-1.672.225-2.497.225-1.575 0-3.03-.262-4.365-.787a9.884 9.884 0 0 1-3.443-2.34c-.96-1.035-1.71-2.31-2.25-3.825-.54-1.515-.81-3.255-.81-5.22 0-1.59.24-3.075.72-4.455.495-1.38 1.2-2.573 2.115-3.578.915-1.02 2.033-1.815 3.353-2.385 1.32-.585 2.805-.877 4.455-.877 1.365 0 2.625.232 3.78.697a8.248 8.248 0 0 1 3.015 1.98c.855.855 1.522 1.92 2.002 3.195.48 1.26.72 2.7.72 4.32 0 .63-.067 1.05-.202 1.26-.135.21-.39.315-.765.315h-15.233c.045 1.44.24 2.693.585 3.758.36 1.065.855 1.957 1.485 2.677a6.118 6.118 0 0 0 2.25 1.598c.87.345 1.845.517 2.925.517 1.005 0 1.868-.112 2.588-.337a12.96 12.96 0 0 0 1.89-.765c.525-.27.96-.518 1.305-.743.36-.24.667-.36.922-.36.33 0 .585.127.765.383l1.125 1.462zm9.306-2.295c.735.99 1.538 1.688 2.408 2.093.87.404 1.845.607 2.925.607 2.13 0 3.765-.758 4.905-2.273 1.14-1.514 1.71-3.674 1.71-6.48 0-1.485-.135-2.76-.405-3.825-.255-1.065-.63-1.935-1.125-2.61-.495-.69-1.103-1.192-1.823-1.507-.72-.315-1.537-.473-2.452-.473-1.305 0-2.453.3-3.443.9-.975.6-1.875 1.448-2.7 2.543v11.025zm-.202-13.77a11.807 11.807 0 0 1 3.33-2.857c1.26-.72 2.7-1.08 4.32-1.08 1.32 0 2.512.255 3.577.765 1.065.495 1.973 1.237 2.723 2.227.75.975 1.327 2.19 1.732 3.645s.608 3.127.608 5.017c0 1.68-.225 3.248-.675 4.703-.45 1.44-1.103 2.693-1.958 3.758a9.182 9.182 0 0 1-3.105 2.497c-1.215.6-2.587.9-4.117.9-1.395 0-2.595-.232-3.6-.697a8.63 8.63 0 0 1-2.633-1.98v10.08h-4.027v-30.51h2.407c.57 0 .923.277 1.058.832l.36 2.7zm28.09 19.62c-1.8 0-3.188-.502-4.163-1.508-.96-1.005-1.44-2.452-1.44-4.342v-13.95h-2.745a.928.928 0 0 1-.608-.202c-.165-.15-.247-.375-.247-.675v-1.598l3.735-.473.922-7.042a.954.954 0 0 1 .293-.54.9.9 0 0 1 .63-.225h2.025v7.853h6.592v2.902h-6.592v13.68c0 .96.232 1.672.697 2.137.465.466 1.065.698 1.8.698.42 0 .78-.053 1.08-.158.315-.12.585-.247.81-.382.225-.135.413-.255.563-.36.165-.12.307-.18.427-.18.21 0 .398.128.563.383l1.17 1.912c-.69.645-1.523 1.155-2.498 1.53-.975.36-1.98.54-3.015.54zm24.253-14.242c0-.93-.135-1.778-.405-2.543a5.391 5.391 0 0 0-1.148-2.003 4.842 4.842 0 0 0-1.822-1.305c-.72-.315-1.538-.472-2.453-.472-1.92 0-3.442.562-4.567 1.687-1.11 1.11-1.8 2.655-2.07 4.635h12.465zm3.24 10.687a7.828 7.828 0 0 1-1.778 1.575c-.69.435-1.432.795-2.227 1.08-.78.285-1.59.495-2.43.63-.84.15-1.673.225-2.498.225-1.575 0-3.03-.263-4.365-.788a9.884 9.884 0 0 1-3.442-2.34c-.96-1.034-1.71-2.31-2.25-3.824-.54-1.516-.81-3.256-.81-5.22 0-1.59.24-3.076.72-4.456.495-1.38 1.2-2.572 2.115-3.577.915-1.02 2.032-1.815 3.352-2.385 1.32-.585 2.805-.878 4.455-.878 1.365 0 2.625.233 3.78.698a8.248 8.248 0 0 1 3.015 1.98c.855.855 1.523 1.92 2.003 3.195.48 1.26.72 2.7.72 4.32 0 .63-.068 1.05-.203 1.26-.135.21-.39.315-.765.315h-15.232c.045 1.44.24 2.692.585 3.758.36 1.064.855 1.957 1.485 2.677a6.118 6.118 0 0 0 2.25 1.598c.87.345 1.845.517 2.925.517 1.005 0 1.867-.112 2.587-.337a12.96 12.96 0 0 0 1.89-.766c.525-.27.96-.517 1.305-.742.36-.24.668-.36.923-.36.33 0 .585.127.765.382l1.125 1.463zm5.279 3.195v-22.793h2.408c.57 0 .922.278 1.057.833l.293 2.34a11.6 11.6 0 0 1 2.835-2.543c1.05-.66 2.265-.99 3.645-.99 1.53 0 2.767.428 3.712 1.283.96.855 1.65 2.01 2.07 3.465.33-.825.75-1.538 1.26-2.138a7.45 7.45 0 0 1 1.755-1.485 7.414 7.414 0 0 1 2.048-.855 9.327 9.327 0 0 1 2.227-.27c1.2 0 2.265.195 3.195.585.945.375 1.74.93 2.385 1.665.66.735 1.163 1.643 1.508 2.723.345 1.065.517 2.287.517 3.667V1040h-4.027v-14.513c0-1.785-.39-3.135-1.17-4.05-.78-.93-1.905-1.395-3.375-1.395-.66 0-1.29.12-1.89.36a4.418 4.418 0 0 0-1.553 1.013c-.45.45-.81 1.02-1.08 1.71-.255.675-.382 1.462-.382 2.362V1040h-4.028v-14.512c0-1.83-.367-3.196-1.102-4.096-.735-.9-1.808-1.35-3.218-1.35-.99 0-1.905.27-2.745.81-.84.525-1.612 1.245-2.317 2.16V1040h-4.028zm41.03-5.49c.735.99 1.537 1.687 2.407 2.092.885.405 1.853.608 2.903.608 2.145 0 3.787-.758 4.927-2.273 1.14-1.515 1.71-3.772 1.71-6.772 0-2.79-.51-4.838-1.53-6.143-1.005-1.32-2.445-1.98-4.32-1.98-1.305 0-2.445.3-3.42.9-.96.6-1.852 1.448-2.677 2.543v11.025zm0-14.018c.96-1.11 2.04-1.995 3.24-2.655 1.215-.66 2.61-.99 4.185-.99 1.335 0 2.535.255 3.6.765a7.427 7.427 0 0 1 2.745 2.228c.75.96 1.32 2.13 1.71 3.51.405 1.38.607 2.932.607 4.657 0 1.845-.225 3.525-.675 5.04-.45 1.515-1.102 2.813-1.957 3.893a8.896 8.896 0 0 1-3.083 2.497c-1.215.585-2.58.878-4.095.878-1.5 0-2.767-.278-3.802-.833-1.02-.57-1.913-1.372-2.678-2.407l-.202 2.07c-.12.57-.465.855-1.035.855h-2.588v-33.143h4.028v13.635zm36.408 5.625c0-.93-.135-1.777-.405-2.542a5.391 5.391 0 0 0-1.148-2.003 4.842 4.842 0 0 0-1.822-1.305c-.72-.315-1.538-.472-2.453-.472-1.92 0-3.442.562-4.567 1.687-1.11 1.11-1.8 2.655-2.07 4.635h12.465zm3.24 10.688a7.828 7.828 0 0 1-1.778 1.575c-.69.435-1.432.795-2.227 1.08-.78.285-1.59.495-2.43.63-.84.15-1.673.225-2.498.225-1.575 0-3.03-.263-4.365-.788a9.882 9.882 0 0 1-3.442-2.34c-.96-1.034-1.71-2.31-2.25-3.824-.54-1.516-.81-3.256-.81-5.22 0-1.59.24-3.076.72-4.456.495-1.38 1.2-2.572 2.115-3.577.915-1.02 2.032-1.815 3.352-2.385 1.32-.585 2.805-.878 4.455-.878 1.365 0 2.625.233 3.78.698a8.248 8.248 0 0 1 3.015 1.98c.855.855 1.523 1.92 2.003 3.195.48 1.26.72 2.7.72 4.32 0 .63-.068 1.05-.203 1.26-.135.21-.39.315-.765.315h-15.232c.045 1.44.24 2.692.585 3.758.36 1.064.855 1.957 1.485 2.677a6.118 6.118 0 0 0 2.25 1.598c.87.345 1.845.517 2.925.517 1.005 0 1.867-.112 2.587-.337a12.96 12.96 0 0 0 1.89-.766c.525-.27.96-.517 1.305-.742.36-.24.668-.36.923-.36.33 0 .585.127.765.382l1.125 1.463zm9.082-15.03c.72-1.56 1.605-2.775 2.655-3.645 1.05-.885 2.332-1.328 3.847-1.328.48 0 .938.053 1.373.158a3.7 3.7 0 0 1 1.192.495l-.292 2.992c-.09.375-.315.563-.675.563-.21 0-.518-.045-.923-.135a6.347 6.347 0 0 0-1.372-.135c-.72 0-1.365.105-1.935.315a4.56 4.56 0 0 0-1.508.945c-.435.405-.832.915-1.192 1.53-.345.6-.66 1.29-.945 2.07v14.4h-4.028v-22.793h2.295c.435 0 .735.083.9.248.165.165.278.45.338.855l.27 3.465zm42.171 14.422c.435 0 .78.128 1.035.383.255.255.382.585.382.99v2.43h-21.51v-1.373c0-.285.06-.577.18-.877.12-.3.308-.578.563-.833l10.327-10.372a67.037 67.037 0 0 0 2.34-2.498c.705-.81 1.305-1.62 1.8-2.43.495-.81.878-1.627 1.148-2.452.27-.84.405-1.732.405-2.677 0-.946-.15-1.77-.45-2.476-.3-.72-.713-1.312-1.238-1.777a4.854 4.854 0 0 0-1.822-1.035 7.01 7.01 0 0 0-2.273-.36c-.825 0-1.582.12-2.272.36-.69.24-1.305.577-1.845 1.012a5.82 5.82 0 0 0-1.328 1.508 6.072 6.072 0 0 0-.765 1.935c-.18.525-.427.877-.742 1.057-.3.165-.728.21-1.283.135l-2.092-.36c.21-1.47.615-2.767 1.215-3.892.615-1.14 1.38-2.093 2.295-2.858a9.731 9.731 0 0 1 3.172-1.732c1.185-.405 2.468-.607 3.848-.607 1.365 0 2.64.202 3.825.607 1.185.405 2.212.997 3.082 1.777a8.064 8.064 0 0 1 2.048 2.813c.495 1.11.742 2.37.742 3.78 0 1.2-.18 2.317-.54 3.352a13.333 13.333 0 0 1-1.462 2.925 22.076 22.076 0 0 1-2.138 2.723 69.023 69.023 0 0 1-2.542 2.678l-8.505 8.684a15.12 15.12 0 0 1 1.822-.382 10.568 10.568 0 0 1 1.778-.157h10.8zm16.946.968c1.05 0 1.987-.143 2.812-.428.84-.3 1.545-.712 2.115-1.237a5.298 5.298 0 0 0 1.328-1.913c.315-.75.472-1.575.472-2.475 0-1.11-.187-2.055-.562-2.835-.36-.795-.855-1.44-1.485-1.935a5.875 5.875 0 0 0-2.138-1.08 8.9 8.9 0 0 0-2.542-.36c-.885 0-1.733.12-2.543.36a6.13 6.13 0 0 0-2.16 1.08c-.615.495-1.11 1.14-1.485 1.935-.36.78-.54 1.725-.54 2.835 0 .9.15 1.725.45 2.475a5.695 5.695 0 0 0 1.328 1.913c.585.525 1.29.937 2.115 1.237.84.285 1.785.428 2.835.428zm0-26.663c-.96 0-1.808.143-2.543.428a5.292 5.292 0 0 0-1.822 1.17 5.102 5.102 0 0 0-1.103 1.732c-.24.66-.36 1.365-.36 2.115a7.3 7.3 0 0 0 .315 2.138 5.05 5.05 0 0 0 1.013 1.845c.465.525 1.065.952 1.8 1.282.75.315 1.65.473 2.7.473 1.05 0 1.942-.158 2.677-.473.75-.33 1.358-.757 1.823-1.282a5.047 5.047 0 0 0 1.012-1.845 7.3 7.3 0 0 0 .315-2.138c0-.75-.127-1.455-.382-2.115a4.686 4.686 0 0 0-1.103-1.732c-.48-.495-1.087-.885-1.822-1.17-.72-.285-1.56-.428-2.52-.428zm4.612 12.69c2.01.57 3.555 1.523 4.635 2.858 1.08 1.335 1.62 3.045 1.62 5.13 0 1.41-.27 2.685-.81 3.825a8.194 8.194 0 0 1-2.227 2.88c-.945.795-2.085 1.41-3.42 1.845-1.335.42-2.805.63-4.41.63s-3.075-.21-4.41-.63c-1.335-.435-2.483-1.05-3.443-1.845a8.194 8.194 0 0 1-2.227-2.88c-.525-1.14-.788-2.415-.788-3.825 0-2.085.54-3.795 1.62-5.13s2.625-2.288 4.635-2.858c-1.695-.63-2.977-1.567-3.847-2.812-.855-1.26-1.283-2.76-1.283-4.5a7.97 7.97 0 0 1 2.678-6.03c.855-.765 1.875-1.365 3.06-1.8 1.2-.435 2.535-.653 4.005-.653 1.455 0 2.782.218 3.982.653 1.2.435 2.228 1.035 3.083 1.8a7.97 7.97 0 0 1 2.677 6.03c0 1.74-.435 3.24-1.305 4.5-.855 1.245-2.13 2.182-3.825 2.812zm11.366 22.253a1.02 1.02 0 0 1-.247-.293.751.751 0 0 1-.068-.337c0-.105.03-.21.09-.315.075-.105.158-.203.248-.293.15-.165.337-.382.562-.652.24-.27.48-.593.72-.968.24-.36.458-.765.653-1.215.21-.435.36-.9.45-1.395a.502.502 0 0 1-.158.023h-.135c-.78 0-1.417-.255-1.912-.765-.48-.525-.72-1.193-.72-2.003 0-.705.24-1.305.72-1.8.495-.495 1.147-.742 1.957-.742.45 0 .848.082 1.193.247.345.165.63.398.855.698.24.285.42.622.54 1.012.12.375.18.788.18 1.238 0 .675-.098 1.38-.293 2.115a9.402 9.402 0 0 1-.832 2.137 12.556 12.556 0 0 1-3.128 3.96l-.675-.652zm40.992-9.248c.435 0 .78.128 1.035.383.255.255.382.585.382.99v2.43h-21.51v-1.373c0-.285.06-.577.18-.877.12-.3.308-.578.563-.833l10.327-10.372a67.037 67.037 0 0 0 2.34-2.498c.705-.81 1.305-1.62 1.8-2.43.495-.81.878-1.627 1.148-2.452.27-.84.405-1.732.405-2.677 0-.946-.15-1.77-.45-2.476-.3-.72-.713-1.312-1.238-1.777a4.854 4.854 0 0 0-1.822-1.035 7.01 7.01 0 0 0-2.273-.36c-.825 0-1.582.12-2.272.36-.69.24-1.305.577-1.845 1.012a5.82 5.82 0 0 0-1.328 1.508 6.072 6.072 0 0 0-.765 1.935c-.18.525-.427.877-.742 1.057-.3.165-.728.21-1.283.135l-2.092-.36c.21-1.47.615-2.767 1.215-3.892.615-1.14 1.38-2.093 2.295-2.858a9.731 9.731 0 0 1 3.172-1.732c1.185-.405 2.468-.607 3.848-.607 1.365 0 2.64.202 3.825.607 1.185.405 2.212.997 3.082 1.777a8.064 8.064 0 0 1 2.048 2.813c.495 1.11.742 2.37.742 3.78 0 1.2-.18 2.317-.54 3.352a13.333 13.333 0 0 1-1.462 2.925 22.076 22.076 0 0 1-2.138 2.723 69.023 69.023 0 0 1-2.542 2.678l-8.505 8.684a15.12 15.12 0 0 1 1.822-.382 10.568 10.568 0 0 1 1.778-.157h10.8zm28.646-12.307c0 2.82-.308 5.265-.923 7.335-.6 2.055-1.425 3.757-2.475 5.107s-2.295 2.355-3.735 3.015c-1.425.66-2.955.99-4.59.99-1.65 0-3.187-.33-4.612-.99-1.41-.66-2.64-1.665-3.69-3.015-1.05-1.35-1.875-3.052-2.475-5.107-.6-2.07-.9-4.515-.9-7.335 0-2.82.3-5.265.9-7.335.6-2.07 1.425-3.78 2.475-5.13 1.05-1.365 2.28-2.378 3.69-3.038 1.425-.66 2.962-.99 4.612-.99 1.635 0 3.165.33 4.59.99 1.44.66 2.685 1.673 3.735 3.038 1.05 1.35 1.875 3.06 2.475 5.13.615 2.07.923 4.515.923 7.335zm-4.163 0c0-2.46-.21-4.523-.63-6.188-.405-1.68-.96-3.03-1.665-4.05-.69-1.02-1.492-1.747-2.407-2.182a6.4 6.4 0 0 0-2.858-.675c-.99 0-1.942.225-2.857.675-.915.435-1.718 1.162-2.408 2.182s-1.245 2.37-1.665 4.05c-.405 1.665-.607 3.728-.607 6.188 0 2.46.202 4.522.607 6.187.42 1.665.975 3.008 1.665 4.028.69 1.02 1.493 1.755 2.408 2.205a6.577 6.577 0 0 0 5.715 0c.915-.45 1.717-1.185 2.407-2.205.705-1.02 1.26-2.363 1.665-4.028.42-1.665.63-3.727.63-6.187zm28.421 13.05v3.06h-17.28v-3.06h6.908v-21.983c0-.66.022-1.327.067-2.002l-5.737 4.927c-.195.165-.39.27-.585.315-.195.03-.375.03-.54 0a1.402 1.402 0 0 1-.473-.18 1.194 1.194 0 0 1-.315-.292l-1.26-1.733 9.608-8.302h3.262v29.25h6.345zm16.249.225c1.05 0 1.987-.143 2.812-.428.84-.3 1.545-.712 2.115-1.237a5.298 5.298 0 0 0 1.328-1.913c.315-.75.472-1.575.472-2.475 0-1.11-.187-2.055-.562-2.835-.36-.795-.855-1.44-1.485-1.935a5.875 5.875 0 0 0-2.138-1.08 8.9 8.9 0 0 0-2.542-.36c-.885 0-1.733.12-2.543.36a6.13 6.13 0 0 0-2.16 1.08c-.615.495-1.11 1.14-1.485 1.935-.36.78-.54 1.725-.54 2.835 0 .9.15 1.725.45 2.475a5.695 5.695 0 0 0 1.328 1.913c.585.525 1.29.937 2.115 1.237.84.285 1.785.428 2.835.428zm0-26.663c-.96 0-1.808.143-2.543.428a5.292 5.292 0 0 0-1.822 1.17 5.102 5.102 0 0 0-1.103 1.732c-.24.66-.36 1.365-.36 2.115a7.3 7.3 0 0 0 .315 2.138 5.05 5.05 0 0 0 1.013 1.845c.465.525 1.065.952 1.8 1.282.75.315 1.65.473 2.7.473 1.05 0 1.942-.158 2.677-.473.75-.33 1.358-.757 1.823-1.282a5.047 5.047 0 0 0 1.012-1.845 7.3 7.3 0 0 0 .315-2.138c0-.75-.127-1.455-.382-2.115a4.686 4.686 0 0 0-1.103-1.732c-.48-.495-1.087-.885-1.822-1.17-.72-.285-1.56-.428-2.52-.428zm4.612 12.69c2.01.57 3.555 1.523 4.635 2.858 1.08 1.335 1.62 3.045 1.62 5.13 0 1.41-.27 2.685-.81 3.825a8.194 8.194 0 0 1-2.227 2.88c-.945.795-2.085 1.41-3.42 1.845-1.335.42-2.805.63-4.41.63s-3.075-.21-4.41-.63c-1.335-.435-2.483-1.05-3.443-1.845a8.194 8.194 0 0 1-2.227-2.88c-.525-1.14-.788-2.415-.788-3.825 0-2.085.54-3.795 1.62-5.13s2.625-2.288 4.635-2.858c-1.695-.63-2.977-1.567-3.847-2.812-.855-1.26-1.283-2.76-1.283-4.5a7.97 7.97 0 0 1 2.678-6.03c.855-.765 1.875-1.365 3.06-1.8 1.2-.435 2.535-.653 4.005-.653 1.455 0 2.782.218 3.982.653 1.2.435 2.228 1.035 3.083 1.8a7.97 7.97 0 0 1 2.677 6.03c0 1.74-.435 3.24-1.305 4.5-.855 1.245-2.13 2.182-3.825 2.812z" fill="#16F2DC"/><g clip-path="url(#clip1)"><path fill-rule="evenodd" clip-rule="evenodd" d="M1101.502 371c-6.58 0-12.724-.536-18.502-1.48V336.4c5.058 1.87 11.18 2.858 18.502 2.858 8.63 0 18.043-1.548 25.498-4.258v31.742c-7.455 2.322-17.653 4.258-25.498 4.258zM1128 218.193v-31.958h-62.158V131l-36.747 5.524v49.711H990v31.958h39.095v91.136c0 1.939.115 3.803.233 5.671h36.832a54.311 54.311 0 0 1-.318-5.671v-91.136H1128zm-791-34.819h45.607v-50.06C382.607 86.412 414.08 58 468.354 58c9.122 0 20.978 1.803 29.646 4.96v36.53c-8.668-3.158-19.612-4.508-29.646-4.508-29.645 0-42.875 13.078-42.875 38.332v50.06H498v36.525h-72.521V311h-42.872v-91.101H337" fill="#fff"/><mask id="a" maskUnits="userSpaceOnUse" x="314" y="362" width="111" height="73"><path fill-rule="evenodd" clip-rule="evenodd" d="M0 72.566h110.876V0H0v72.566z" transform="translate(314.001 362.026)" fill="#fff"/></mask><g mask="url(#a)"><path fill-rule="evenodd" clip-rule="evenodd" d="M424.877 362.026c-4.964 45.514-34.46 72.567-82.199 72.567-8.824 0-20.295-2.08-28.677-5.712V386.81c8.382 3.632 18.972 5.191 28.677 5.191 23.579 0 36.422-10.185 40.244-29.975h41.955z" fill="#fff"/></g><path fill-rule="evenodd" clip-rule="evenodd" d="M922.104 212.728c-32.771 2.78-51.22 23.482-51.22 63.669 0 42.922 21.426 63.605 59.121 63.605 15.871 0 33.726-3.12 49.995-8.196v31.607c-14.683 4.683-34.917 8.587-49.995 8.587-61.9 0-98.005-35.898-98.005-95.603 0-57.483 33.043-92.47 90.094-95.397l.01 31.728zM618.01 328.473c0 9.025 3.925 13.342 12.95 13.342 3.47 0 6.838-.534 10.04-1.318l-.003 31.071c-6.061 1.389-12.93 2.432-19.452 2.432-11.772 0-22.759-3.926-29.821-10.991C577.209 369.683 561.122 374 543.466 374 494.814 374 465 348.489 465 305.316V186h36.877v119.316c0 23.938 14.128 36.499 41.589 36.499 14.125 0 25.896-2.748 37.668-7.456M654 196.78c22.36-5.777 52.178-10.78 74.538-10.78C777.185 186 807 210.638 807 253.364V370h-36.877V253.364c0-23.865-14.517-36.184-41.585-36.184-12.945 0-25.89 1.926-37.661 5.004" fill="#fff"/><path fill-rule="evenodd" clip-rule="evenodd" d="M692 196v97h-38v-97h38zm-75 59v97h-36v-97h36zm542 115h38V186h-38v184zm246-87.866c0-59.641-34.187-96.134-88.801-96.134-54.62 0-89.199 36.493-89.199 96.134 0 46.239 21.062 78.854 56.27 90.949v-38.944c-11.313-10.554-17.76-27.991-17.76-52.005 0-41.984 19.647-64.35 50.689-64.35 30.644 0 50.295 22.366 50.295 64.35 0 25.827-7.46 44.048-20.317 54.273V374c36.843-11.277 58.823-44.374 58.823-91.866" fill="#fff"/><path fill-rule="evenodd" clip-rule="evenodd" d="M1405 282.134c0-59.641-34.187-96.134-88.801-96.134-54.62 0-89.199 36.493-89.199 96.134 0 46.239 21.062 78.854 56.27 90.949v-38.944c-11.313-10.554-17.76-27.991-17.76-52.005 0-41.984 19.647-64.35 50.689-64.35 30.644 0 50.295 22.366 50.295 64.35 0 25.827-7.46 44.048-20.317 54.273V374c36.843-11.277 58.823-44.374 58.823-91.866m179-27.306c0-43.658-29.812-68.828-78.457-68.828-22.364 0-52.183 5.112-74.543 11.014V374h36.877V222.97c11.771-3.145 24.717-5.112 37.666-5.112 27.065 0 41.583 12.583 41.583 36.97v57.393H1584v-57.393z" fill="#fff"/><path fill-rule="evenodd" clip-rule="evenodd" d="M1584 254.828c0-43.658-29.812-68.828-78.457-68.828-22.364 0-52.183 5.112-74.543 11.014V374h36.877V222.97c11.771-3.145 24.717-5.112 37.666-5.112 27.065 0 41.583 12.583 41.583 36.97v57.393H1584v-57.393zM1688.06 186c-53.741 0-78.06 27.677-78.06 56.519 0 36.252 26.281 55.743 70.608 55.743 24.322 0 33.732 8.966 33.732 22.998 0 12.083-9.41 23.775-41.577 23.775-19.22 0-40.403-3.508-61.979-10.133v31.965c20.789 6.234 40.406 10.133 61.979 10.133 54.524 0 79.237-28.065 79.237-58.081 0-36.64-25.891-55.74-71.392-55.74-23.538 0-32.948-9.356-32.948-22.998 0-10.912 9.02-22.607 40.4-22.607.753 0 1.53.043 2.29.054V186.05c-.767-.01-1.52-.051-2.29-.051" fill="#fff"/><path fill-rule="evenodd" clip-rule="evenodd" d="M1610 242.519c0 36.252 26.281 55.743 70.608 55.743 24.322 0 33.732 8.966 33.732 22.998 0 12.083-9.41 23.775-41.577 23.775-19.22 0-40.403-3.508-61.979-10.133v31.965c20.789 6.234 40.406 10.133 61.979 10.133 54.524 0 79.237-28.065 79.237-58.081 0-36.64-25.891-55.74-71.392-55.74-23.538 0-32.948-9.356-32.948-22.998 0-10.912 9.02-22.607 40.4-22.607.753 0 1.53.043 2.29.054V186.05c-.767-.01-1.52-.051-2.29-.051-53.741 0-78.06 27.677-78.06 56.519zM1101.502 371c7.845 0 18.043-1.936 25.498-4.258V335c-7.455 2.71-16.869 4.258-25.498 4.258-7.323 0-13.444-.989-18.502-2.858v33.12c5.778.944 11.922 1.48 18.502 1.48M1128 218.193v-31.958h-62.158V131l-36.747 5.524v49.711H990v31.958h39.095v91.136c0 1.939.115 3.803.233 5.671h36.832a54.311 54.311 0 0 1-.318-5.671v-91.136H1128z" fill="#fff"/><path fill-rule="evenodd" clip-rule="evenodd" d="M1768.526 149H1771v73h-23v-48.013L1768.526 149z" fill="#0BB9A7"/><path d="M1830.895 226.968c8.39-4.095 14.105-12.218 14.105-21.57 0-13.475-11.864-24.398-26.5-24.398s-26.5 10.923-26.5 24.398c0 9.376 5.745 17.517 14.17 21.602" stroke="#0BB9A7" stroke-width="20"/><path clip-rule="evenodd" d="M1818.5 180c12.979 0 23.5-9.626 23.5-21.5s-10.521-21.5-23.5-21.5-23.5 9.626-23.5 21.5 10.521 21.5 23.5 21.5z" stroke="#0BB9A7" stroke-width="18"/><path d="M1340.086 508.433l-33.546 105.412h15.33l33.297-105.412h-15.081zM936.8 613.058h-15.401l33.692-105.021h15.148l-33.44 105.021zM347.546 508.433L314 613.845h15.33l33.297-105.412h-15.081z" fill="#fff"/><mask id="b" maskUnits="userSpaceOnUse" x="366" y="610" width="539" height="8"><path fill-rule="evenodd" clip-rule="evenodd" d="M0 0h537.813v7.15H0V0z" transform="translate(366.564 610.321)" fill="#fff"/></mask><g mask="url(#b)"><path fill-rule="evenodd" clip-rule="evenodd" d="M370.102 617.471h24.768c1.955 0 3.539-1.598 3.539-3.575s-1.584-3.575-3.539-3.575h-24.768c-1.954 0-3.538 1.598-3.538 3.575s1.584 3.575 3.538 3.575zm45.998 0h24.768c1.954 0 3.538-1.598 3.538-3.575s-1.584-3.575-3.538-3.575H416.1c-1.954 0-3.538 1.598-3.538 3.575s1.584 3.575 3.538 3.575zm70.766 0h-24.768c-1.955 0-3.539-1.598-3.539-3.575s1.584-3.575 3.539-3.575h24.768c1.952 0 3.538 1.598 3.538 3.575s-1.586 3.575-3.538 3.575zm21.227 0h24.77c1.953 0 3.536-1.598 3.536-3.575s-1.583-3.575-3.536-3.575h-24.77c-1.954 0-3.536 1.598-3.536 3.575s1.582 3.575 3.536 3.575zm70.766 0h-24.768c-1.954 0-3.538-1.598-3.538-3.575s1.584-3.575 3.538-3.575h24.768c1.954 0 3.538 1.598 3.538 3.575s-1.584 3.575-3.538 3.575zm21.23 0h24.768c1.954 0 3.538-1.598 3.538-3.575s-1.584-3.575-3.538-3.575h-24.768c-1.955 0-3.539 1.598-3.539 3.575s1.584 3.575 3.539 3.575zm70.765 0h-24.768c-1.954 0-3.538-1.598-3.538-3.575s1.584-3.575 3.538-3.575h24.768c1.955 0 3.536 1.598 3.536 3.575s-1.581 3.575-3.536 3.575zm21.23 0h24.766c1.954 0 3.538-1.598 3.538-3.575s-1.584-3.575-3.538-3.575h-24.766c-1.954 0-3.538 1.598-3.538 3.575s1.584 3.575 3.538 3.575zm70.764 0H738.08c-1.955 0-3.539-1.598-3.539-3.575s1.584-3.575 3.539-3.575h24.768c1.954 0 3.538 1.598 3.538 3.575s-1.584 3.575-3.538 3.575zm21.229 0h24.768c1.955 0 3.539-1.598 3.539-3.575s-1.584-3.575-3.539-3.575h-24.768c-1.954 0-3.538 1.598-3.538 3.575s1.584 3.575 3.538 3.575zm70.766 0h-24.768c-1.957 0-3.538-1.598-3.538-3.575s1.581-3.575 3.538-3.575h24.768c1.956 0 3.538 1.598 3.538 3.575s-1.582 3.575-3.538 3.575zm21.227 0h24.768c1.957 0 3.539-1.598 3.539-3.575s-1.582-3.575-3.539-3.575H876.07c-1.956 0-3.538 1.598-3.538 3.575s1.582 3.575 3.538 3.575z" fill="#0BB8A7"/></g><mask id="c" maskUnits="userSpaceOnUse" x="962" y="506" width="352" height="108"><path fill-rule="evenodd" clip-rule="evenodd" d="M0 0h350.364v107.254H0V0z" transform="translate(962.85 506.644)" fill="#fff"/></mask><g mask="url(#c)"><path d="M1282.619 613.898H962.85l30.595-107.255h319.769l-30.595 107.255z" fill="#FEFEFE"/></g><path d="M1212.72 574.308c4.654 4.905 11.887 9.007 21.002 9.007 7.728 0 11.492-3.7 11.492-7.506 0-5.004-5.747-6.708-13.372-8.507-10.802-2.505-24.67-5.507-24.67-20.421 0-11.113 9.51-20.121 25.065-20.121 10.498 0 19.22 3.201 25.758 9.308l-7.826 10.41c-5.348-5.003-12.484-7.306-18.925-7.306-6.34 0-9.707 2.802-9.707 6.807 0 4.504 5.546 5.909 13.176 7.71 10.898 2.497 24.768 5.804 24.768 20.619 0 12.21-8.616 21.421-26.45 21.421-12.68 0-21.797-4.303-28.041-10.61l7.73-10.811zm-45.813-7.108l-25.457-39.44h16.045l16.447 26.83 16.248-26.83h16.049l-25.261 39.44v27.33h-14.07V567.2z" fill="#0BB8A7"/><path fill-rule="evenodd" clip-rule="evenodd" d="M1097.061 594.529l4.163-11.514h29.525l4.158 11.514h15.356l-25.457-66.767h-17.636l-25.56 66.767h15.451zm29.824-23.825h-21.897l10.999-30.632 10.898 30.632zm-80.237-42.943h-26.058v66.77h26.058c20.703 0 35.07-13.217 35.07-33.336 0-20.12-14.367-33.434-35.07-33.434zm20.703 33.434c0 11.312-7.626 20.822-20.704 20.822h-11.986v-41.743h11.986c13.571 0 20.704 9.11 20.704 20.921z" fill="#0BB8A7"/><path d="M891 586.8c3.605 0 6.374-.261 8.3-.789 1.922-.527 2.888-1.598 2.888-3.221 0-1.053-.301-1.946-.903-2.676-.605-.726-1.444-1.355-2.528-1.882-1.082-.528-2.325-1.033-3.728-1.52a178.35 178.35 0 0 0-4.393-1.458c-2.164-.65-4.37-1.4-6.617-2.247-2.246-.852-4.288-1.925-6.133-3.224-1.845-1.296-3.37-2.937-4.573-4.92-1.2-1.984-1.8-4.478-1.8-7.478 0-2.428.46-4.72 1.38-6.866.922-2.149 2.363-4.056 4.329-5.715 1.967-1.659 4.47-2.957 7.518-3.89 3.05-.93 6.697-1.398 10.952-1.398 3.687 0 7.114.286 10.282.852 3.17.566 5.914 1.38 8.241 2.43l-2.284 12.644a318.75 318.75 0 0 1-6.376-2.009c-2.89-.928-6.135-1.395-9.747-1.395-3.768 0-6.312.467-7.637 1.395-1.32.934-1.985 1.928-1.985 2.978 0 .895.3 1.684.9 2.372.603.69 1.404 1.318 2.41 1.884 1.002.57 2.162 1.114 3.487 1.641a63.13 63.13 0 0 0 4.27 1.52c2.167.73 4.409 1.54 6.738 2.43 2.325.892 4.43 2.006 6.316 3.345 1.883 1.336 3.426 3.036 4.629 5.103 1.205 2.067 1.805 4.601 1.805 7.597 0 2.353-.438 4.58-1.323 6.686-.882 2.11-2.343 3.931-4.389 5.47-2.043 1.54-4.714 2.755-8.002 3.646-3.29.89-7.335 1.336-12.15 1.336-4.892 0-9.062-.565-12.51-1.7-3.45-1.133-6.216-2.147-8.3-3.04l2.284-12.52a109.313 109.313 0 0 0 8.962 3.163A32.853 32.853 0 0 0 891 586.8m-55.255 0c3.607 0 6.374-.261 8.301-.789 1.923-.527 2.89-1.598 2.89-3.221 0-1.053-.302-1.946-.904-2.676-.605-.726-1.444-1.355-2.528-1.882-1.084-.528-2.327-1.033-3.73-1.52a178.113 178.113 0 0 0-4.39-1.458c-2.165-.65-4.373-1.4-6.62-2.247-2.244-.852-4.288-1.925-6.13-3.224-1.848-1.296-3.371-2.937-4.574-4.92-1.202-1.984-1.803-4.478-1.803-7.478 0-2.428.46-4.72 1.381-6.866.924-2.149 2.365-4.056 4.33-5.715 1.966-1.659 4.472-2.957 7.519-3.89 3.05-.93 6.697-1.398 10.952-1.398 3.685 0 7.112.286 10.282.852 3.168.566 5.914 1.38 8.239 2.43l-2.282 12.644a304.076 304.076 0 0 1-6.376-2.009c-2.89-.928-6.138-1.395-9.747-1.395-3.768 0-6.314.467-7.637 1.395-1.323.934-1.985 1.928-1.985 2.978 0 .895.3 1.684.9 2.372.603.69 1.404 1.318 2.408 1.884 1.002.57 2.164 1.114 3.487 1.641a63.205 63.205 0 0 0 4.272 1.52c2.164.73 4.407 1.54 6.736 2.43 2.327.892 4.433 2.006 6.318 3.345 1.883 1.336 3.426 3.036 4.629 5.103 1.205 2.067 1.805 4.601 1.805 7.597 0 2.353-.44 4.58-1.326 6.686-.879 2.11-2.34 3.931-4.386 5.47-2.045 1.54-4.713 2.755-8.002 3.646-3.29.89-7.335 1.336-12.15 1.336-4.892 0-9.064-.565-12.51-1.7-3.45-1.133-6.216-2.147-8.3-3.04l2.284-12.52a109.313 109.313 0 0 0 8.962 3.163 32.838 32.838 0 0 0 9.685 1.456" fill="#fff"/><path fill-rule="evenodd" clip-rule="evenodd" d="M757.118 556.777c-1.526 3.81-2.287 8.228-2.287 13.25 0 4.86.72 9.116 2.166 12.761 1.444 3.648 3.507 6.707 6.196 9.18 2.686 2.47 5.934 4.334 9.742 5.592 3.808 1.254 8.12 1.883 12.935 1.883 3.608 0 6.856-.305 9.743-.911 2.887-.609 5.613-1.355 8.18-2.25l-2.045-12.765c-1.845.651-4.11 1.3-6.796 1.945-2.69.65-5.515.974-8.482.974-4.81 0-8.743-1.07-11.788-3.221-3.05-2.144-4.574-5.084-4.574-8.812h36.693c.078-.647.138-1.5.18-2.552.04-1.052.06-2.067.06-3.038 0-9.563-2.163-16.835-6.496-21.821-4.332-4.982-10.668-7.475-19.007-7.475-3.369 0-6.66.65-9.866 1.945-3.208 1.299-6.054 3.222-8.54 5.773-2.487 2.554-4.493 5.735-6.014 9.542zm35.006 2.856c.401 1.418.602 2.9.602 4.439h-22.617c.16-1.54.5-3.041 1.024-4.497a13.122 13.122 0 0 1 2.164-3.893c.921-1.132 2.086-2.022 3.489-2.671 1.4-.65 3.067-.974 4.993-.974 2.003 0 3.687.345 5.053 1.034 1.363.688 2.485 1.603 3.366 2.732a11.118 11.118 0 0 1 1.926 3.83z" fill="#fff"/><path d="M750.163 595.674c-.238.165-.78.447-1.624.853-.84.405-1.945.831-3.308 1.273-1.365.449-3.027.832-4.99 1.156-1.968.323-4.195.485-6.678.485-6.818 0-11.79-2.044-14.916-6.138-3.13-4.091-4.692-10.067-4.692-17.928v-48.5h-15.641v-12.399h30.437v61.993c0 3.89.76 6.525 2.287 7.9 1.521 1.38 3.446 2.068 5.773 2.068 2.965 0 5.45-.406 7.458-1.215a253.88 253.88 0 0 1 3.97-1.58l1.924 12.032zm-53.738-39.503a51.042 51.042 0 0 0-3.427-.73 125.465 125.465 0 0 0-4.031-.67 50.381 50.381 0 0 0-3.971-.426 56.425 56.425 0 0 0-3.249-.12c-2.086 0-4.13.102-6.132.305a37.91 37.91 0 0 0-6.136 1.152v42.424h-14.918v-53.361a88.222 88.222 0 0 1 12.09-3.528c4.131-.89 8.964-1.337 14.496-1.337.801 0 1.943.043 3.427.122a74.5 74.5 0 0 1 4.754.426c1.685.203 3.387.446 5.111.73 1.725.286 3.269.667 4.634 1.157l-2.648 13.856z" fill="#fff"/><path fill-rule="evenodd" clip-rule="evenodd" d="M593.028 556.777c-1.526 3.81-2.287 8.228-2.287 13.25 0 4.86.72 9.116 2.164 12.761 1.446 3.648 3.51 6.707 6.198 9.18 2.686 2.47 5.934 4.334 9.742 5.592 3.808 1.254 8.12 1.883 12.933 1.883 3.61 0 6.858-.305 9.745-.911 2.887-.609 5.613-1.355 8.18-2.25l-2.045-12.765c-1.845.651-4.11 1.3-6.796 1.945-2.69.65-5.517.974-8.482.974-4.812 0-8.743-1.07-11.788-3.221-3.052-2.144-4.573-5.084-4.573-8.812h36.692c.078-.647.138-1.5.18-2.552.04-1.052.06-2.067.06-3.038 0-9.563-2.165-16.835-6.496-21.821-4.332-4.982-10.668-7.475-19.007-7.475-3.369 0-6.66.65-9.866 1.945-3.208 1.299-6.054 3.222-8.542 5.773-2.485 2.554-4.49 5.735-6.012 9.542zm35.006 2.856c.401 1.418.602 2.9.602 4.439h-22.617c.16-1.54.5-3.041 1.024-4.497a13.07 13.07 0 0 1 2.164-3.893c.921-1.132 2.085-2.022 3.487-2.671 1.403-.65 3.07-.974 4.995-.974 2.003 0 3.687.345 5.053 1.034 1.363.688 2.483 1.603 3.366 2.732a11.12 11.12 0 0 1 1.926 3.83z" fill="#fff"/><path d="M553.425 598.105c-3.61-7.209-7.28-15.658-11.01-25.344-3.726-9.682-7.275-20.276-10.646-31.784h15.52c.721 3.08 1.58 6.361 2.586 9.844a378.438 378.438 0 0 0 3.188 10.514 382.174 382.174 0 0 0 3.43 10.272 388.932 388.932 0 0 0 3.306 9.118 1585.44 1585.44 0 0 1 3.489-9.118 377.372 377.372 0 0 0 3.79-10.272 669.349 669.349 0 0 0 3.61-10.514c1.16-3.483 2.104-6.765 2.826-9.844h15.037c-3.369 11.508-7.097 22.102-11.188 31.784-4.09 9.686-7.938 18.135-11.548 25.344h-12.39zm-30.376-41.934a51.042 51.042 0 0 0-3.427-.73 125.465 125.465 0 0 0-4.031-.67 50.381 50.381 0 0 0-3.971-.426 56.425 56.425 0 0 0-3.249-.12c-2.086 0-4.13.102-6.132.305a37.957 37.957 0 0 0-6.136 1.152v42.424h-14.918v-53.361a88.222 88.222 0 0 1 12.09-3.528c4.131-.89 8.964-1.337 14.496-1.337.801 0 1.943.043 3.427.122a74.5 74.5 0 0 1 4.754.426c1.685.203 3.387.446 5.111.73 1.725.286 3.269.667 4.634 1.157l-2.648 13.856z" fill="#fff"/><path fill-rule="evenodd" clip-rule="evenodd" d="M419.653 556.777c-1.526 3.81-2.287 8.228-2.287 13.25 0 4.86.72 9.116 2.166 12.761 1.444 3.648 3.507 6.707 6.196 9.18 2.686 2.47 5.934 4.334 9.742 5.592 3.808 1.254 8.12 1.883 12.933 1.883 3.61 0 6.858-.305 9.745-.911 2.887-.609 5.613-1.355 8.18-2.25l-2.045-12.765c-1.845.651-4.11 1.3-6.795 1.945-2.691.65-5.516.974-8.483.974-4.812 0-8.743-1.07-11.788-3.221-3.052-2.144-4.573-5.084-4.573-8.812h36.692c.078-.647.138-1.5.18-2.552.04-1.052.06-2.067.06-3.038 0-9.563-2.165-16.835-6.496-21.821-4.332-4.982-10.668-7.475-19.007-7.475-3.369 0-6.66.65-9.866 1.945-3.208 1.299-6.054 3.222-8.542 5.773-2.485 2.554-4.49 5.735-6.012 9.542zm35.005 2.856c.402 1.418.603 2.9.603 4.439h-22.618c.161-1.54.5-3.041 1.025-4.497a13.07 13.07 0 0 1 2.164-3.893c.92-1.132 2.085-2.022 3.487-2.671 1.403-.65 3.07-.974 4.995-.974 2.003 0 3.687.345 5.053 1.034 1.363.688 2.485 1.603 3.366 2.732a11.12 11.12 0 0 1 1.926 3.83z" fill="#fff"/><path d="M383.945 586.8c3.61 0 6.376-.261 8.301-.789 1.923-.527 2.887-1.598 2.887-3.221 0-1.053-.301-1.946-.903-2.676-.603-.726-1.444-1.355-2.526-1.882-1.082-.528-2.327-1.033-3.728-1.52a184.753 184.753 0 0 0-4.392-1.458c-2.164-.65-4.37-1.4-6.617-2.247-2.247-.852-4.29-1.925-6.136-3.224-1.845-1.296-3.366-2.937-4.57-4.92-1.203-1.984-1.803-4.478-1.803-7.478 0-2.428.46-4.72 1.38-6.866.922-2.149 2.365-4.056 4.333-5.715 1.963-1.659 4.469-2.957 7.518-3.89 3.048-.93 6.696-1.398 10.948-1.398 3.688 0 7.116.286 10.284.852 3.168.566 5.915 1.38 8.242 2.43l-2.287 12.644a316.845 316.845 0 0 1-6.374-2.009c-2.89-.928-6.137-1.395-9.745-1.395-3.77 0-6.316.467-7.639 1.395-1.323.934-1.985 1.928-1.985 2.978 0 .895.301 1.684.901 2.372.603.69 1.403 1.318 2.407 1.884 1.002.57 2.164 1.114 3.49 1.641a63.584 63.584 0 0 0 4.27 1.52c2.164.73 4.408 1.54 6.735 2.43 2.327.892 4.433 2.006 6.316 3.345 1.885 1.336 3.43 3.036 4.631 5.103 1.205 2.067 1.805 4.601 1.805 7.597 0 2.353-.44 4.58-1.323 6.686-.883 2.11-2.345 3.931-4.39 5.47-2.044 1.54-4.712 2.755-8 3.646-3.291.89-7.338 1.336-12.15 1.336-4.895 0-9.065-.565-12.512-1.7-3.449-1.133-6.215-2.147-8.301-3.04l2.287-12.52a109.022 109.022 0 0 0 8.961 3.163 32.839 32.839 0 0 0 9.685 1.456m988.108-32.328h-12.947V542.13h12.947v-14.278l14.883-2.42v16.698h23.837v12.342h-23.837v22.99c0 2.097.202 3.791.605 5.082.403 1.29.968 2.299 1.694 3.025s1.613 1.21 2.662 1.452 2.218.363 3.509.363c1.371 0 2.622-.04 3.751-.121 1.21-.08 2.34-.202 3.388-.363a26.71 26.71 0 0 0 3.388-.968c1.21-.403 2.5-.928 3.872-1.573l2.057 12.826c-2.743 1.13-5.727 1.936-8.954 2.42a60.448 60.448 0 0 1-9.196.726c-3.469 0-6.534-.282-9.196-.847s-4.92-1.654-6.776-3.267c-1.855-1.613-3.267-3.872-4.235-6.776-.968-2.985-1.452-6.857-1.452-11.616v-23.353zm96.309 15.972c0 4.517-.645 8.631-1.936 12.342-1.291 3.63-3.106 6.776-5.445 9.438-2.339 2.662-5.163 4.719-8.47 6.171-3.227 1.452-6.857 2.178-10.89 2.178s-7.704-.726-11.011-2.178c-3.227-1.452-6.05-3.509-8.47-6.171-2.34-2.662-4.154-5.808-5.445-9.438-1.29-3.71-1.936-7.825-1.936-12.342 0-4.437.645-8.47 1.936-12.1 1.371-3.71 3.227-6.857 5.566-9.438a23.792 23.792 0 0 1 8.591-6.05c3.307-1.452 6.897-2.178 10.769-2.178 3.953 0 7.542.726 10.769 2.178 3.307 1.371 6.131 3.388 8.47 6.05 2.42 2.581 4.275 5.727 5.566 9.438 1.291 3.63 1.936 7.663 1.936 12.1zm-38.478.121c0 5.082.887 9.196 2.662 12.342 1.855 3.146 4.8 4.719 8.833 4.719 3.872 0 6.776-1.573 8.712-4.719 2.017-3.146 3.025-7.26 3.025-12.342 0-5.082-.928-9.156-2.783-12.221-1.775-3.146-4.679-4.719-8.712-4.719-3.872 0-6.816 1.573-8.833 4.719-1.936 3.065-2.904 7.139-2.904 12.221zm90.743-13.31a52.077 52.077 0 0 0-3.509-.726 59.248 59.248 0 0 0-3.993-.605 35.848 35.848 0 0 0-3.993-.484 53.773 53.773 0 0 0-3.267-.121c-2.097 0-4.154.121-6.171.363a34.204 34.204 0 0 0-6.171 1.089V599h-15.004v-53.119a90.212 90.212 0 0 1 12.1-3.509c4.195-.887 9.075-1.331 14.641-1.331.807 0 1.936.04 3.388.121 1.533.08 3.146.242 4.84.484a55.01 55.01 0 0 1 5.082.726c1.775.242 3.348.605 4.719 1.089l-2.662 13.794zm60.735 13.189c0 4.517-.645 8.631-1.936 12.342-1.291 3.63-3.106 6.776-5.445 9.438-2.339 2.662-5.163 4.719-8.47 6.171-3.227 1.452-6.857 2.178-10.89 2.178s-7.704-.726-11.011-2.178c-3.227-1.452-6.05-3.509-8.47-6.171-2.339-2.662-4.154-5.808-5.445-9.438-1.291-3.71-1.936-7.825-1.936-12.342 0-4.437.645-8.47 1.936-12.1 1.371-3.71 3.227-6.857 5.566-9.438a23.795 23.795 0 0 1 8.591-6.05c3.307-1.452 6.897-2.178 10.769-2.178 3.953 0 7.542.726 10.769 2.178 3.307 1.371 6.131 3.388 8.47 6.05 2.42 2.581 4.275 5.727 5.566 9.438 1.291 3.63 1.936 7.663 1.936 12.1zm-38.478.121c0 5.082.887 9.196 2.662 12.342 1.855 3.146 4.8 4.719 8.833 4.719 3.872 0 6.776-1.573 8.712-4.719 2.017-3.146 3.025-7.26 3.025-12.342 0-5.082-.928-9.156-2.783-12.221-1.775-3.146-4.679-4.719-8.712-4.719-3.872 0-6.816 1.573-8.833 4.719-1.936 3.065-2.904 7.139-2.904 12.221zm45.489-26.62c2.662-.726 5.929-1.412 9.801-2.057 3.953-.645 8.228-.968 12.826-.968 4.517 0 8.268.645 11.253 1.936 2.985 1.21 5.324 2.985 7.018 5.324 1.775 2.259 3.025 5.001 3.751 8.228.726 3.146 1.089 6.655 1.089 10.527V599h-14.883v-30.129c0-5.324-.605-9.156-1.815-11.495-1.21-2.34-3.67-3.509-7.381-3.509-1.129 0-2.259.04-3.388.121-1.049.08-2.178.202-3.388.363V599h-14.883v-55.055zm66.18 10.527h-12.947V542.13h12.947v-14.278l14.883-2.42v16.698h23.837v12.342h-23.837v22.99c0 2.097.202 3.791.605 5.082.403 1.29.968 2.299 1.694 3.025s1.613 1.21 2.662 1.452 2.218.363 3.509.363c1.371 0 2.622-.04 3.751-.121a39.59 39.59 0 0 0 3.388-.363 26.71 26.71 0 0 0 3.388-.968 35.551 35.551 0 0 0 3.872-1.573l2.057 12.826c-2.743 1.13-5.727 1.936-8.954 2.42a60.445 60.445 0 0 1-9.196.726c-3.469 0-6.534-.282-9.196-.847s-4.921-1.654-6.776-3.267c-1.855-1.613-3.267-3.872-4.235-6.776-.968-2.985-1.452-6.857-1.452-11.616v-23.353zm96.309 15.972c0 4.517-.645 8.631-1.936 12.342-1.291 3.63-3.106 6.776-5.445 9.438-2.339 2.662-5.163 4.719-8.47 6.171-3.227 1.452-6.857 2.178-10.89 2.178s-7.704-.726-11.011-2.178c-3.227-1.452-6.05-3.509-8.47-6.171-2.339-2.662-4.154-5.808-5.445-9.438-1.291-3.71-1.936-7.825-1.936-12.342 0-4.437.645-8.47 1.936-12.1 1.371-3.71 3.227-6.857 5.566-9.438a23.795 23.795 0 0 1 8.591-6.05c3.307-1.452 6.897-2.178 10.769-2.178 3.953 0 7.542.726 10.769 2.178 3.307 1.371 6.131 3.388 8.47 6.05 2.42 2.581 4.275 5.727 5.566 9.438 1.291 3.63 1.936 7.663 1.936 12.1zm-38.478.121c0 5.082.887 9.196 2.662 12.342 1.855 3.146 4.8 4.719 8.833 4.719 3.872 0 6.776-1.573 8.712-4.719 2.017-3.146 3.025-7.26 3.025-12.342 0-5.082-.928-9.156-2.783-12.221-1.775-3.146-4.679-4.719-8.712-4.719-3.872 0-6.816 1.573-8.833 4.719-1.936 3.065-2.904 7.139-2.904 12.221z" fill="#fff"/></g><path d="M600 819h959a6 6 0 0 1 6 6v134a6 6 0 0 1-6 6H600a6 6 0 0 1-6-6V825a6 6 0 0 1 6-6z" fill="#1C1E35" stroke="#19DECA" stroke-width="4"/><path d="M646.114 892.47c1.773 0 3.313-.222 4.62-.665 1.33-.443 2.415-1.05 3.255-1.82a7.444 7.444 0 0 0 1.925-2.8c.42-1.073.63-2.252.63-3.535 0-2.567-.852-4.538-2.555-5.915-1.68-1.377-4.259-2.065-7.735-2.065h-6.02v16.8h5.88zm24.22 26.53h-8.505c-1.61 0-2.777-.63-3.5-1.89l-10.64-16.205c-.397-.607-.84-1.038-1.33-1.295-.467-.257-1.167-.385-2.1-.385h-4.025V919h-9.415v-50.61h15.435c3.43 0 6.37.362 8.82 1.085 2.473.7 4.491 1.692 6.055 2.975 1.586 1.283 2.753 2.823 3.5 4.62.746 1.773 1.12 3.733 1.12 5.88 0 1.703-.257 3.313-.77 4.83a13.454 13.454 0 0 1-2.17 4.13c-.934 1.237-2.1 2.322-3.5 3.255-1.377.933-2.952 1.668-4.725 2.205a8.78 8.78 0 0 1 1.68 1.26 8.37 8.37 0 0 1 1.4 1.68l12.67 18.69zm14.915-43.12v14.035h17.71v7.245h-17.71v14.315h22.47V919H675.8v-50.61h31.92v7.49h-22.47zm71.44 17.745V914.1c-2.567 1.89-5.308 3.278-8.225 4.165-2.893.863-5.997 1.295-9.31 1.295-4.13 0-7.875-.642-11.235-1.925-3.337-1.283-6.195-3.068-8.575-5.355-2.357-2.287-4.177-5.017-5.46-8.19-1.283-3.173-1.925-6.638-1.925-10.395 0-3.803.618-7.292 1.855-10.465s2.987-5.903 5.25-8.19c2.287-2.287 5.052-4.06 8.295-5.32 3.243-1.26 6.883-1.89 10.92-1.89 2.053 0 3.967.163 5.74.49 1.797.327 3.453.782 4.97 1.365 1.54.56 2.94 1.248 4.2 2.065a24.957 24.957 0 0 1 3.465 2.695l-2.695 4.27c-.42.677-.968 1.097-1.645 1.26-.677.14-1.412-.035-2.205-.525l-2.31-1.33a14.695 14.695 0 0 0-2.59-1.155c-.933-.327-1.995-.595-3.185-.805-1.167-.21-2.52-.315-4.06-.315-2.497 0-4.76.42-6.79 1.26-2.007.84-3.722 2.042-5.145 3.605-1.423 1.563-2.52 3.442-3.29 5.635-.77 2.193-1.155 4.643-1.155 7.35 0 2.893.408 5.483 1.225 7.77.84 2.263 2.007 4.188 3.5 5.775 1.517 1.563 3.337 2.765 5.46 3.605 2.123.817 4.492 1.225 7.105 1.225 1.867 0 3.535-.198 5.005-.595a24.607 24.607 0 0 0 4.305-1.61v-9.17h-6.37c-.607 0-1.085-.163-1.435-.49a1.78 1.78 0 0 1-.49-1.26v-5.32h16.8zM775.21 919h-9.45v-50.61h9.45V919zm38.281-41.405c-.28.49-.583.852-.91 1.085-.303.21-.688.315-1.155.315-.49 0-1.026-.175-1.61-.525a30.575 30.575 0 0 0-2.03-1.225c-.793-.443-1.726-.84-2.8-1.19-1.05-.373-2.298-.56-3.745-.56-1.306 0-2.45.163-3.43.49-.98.303-1.808.735-2.485 1.295a5.299 5.299 0 0 0-1.47 2.03c-.326.77-.49 1.622-.49 2.555 0 1.19.327 2.182.98 2.975.677.793 1.564 1.47 2.66 2.03 1.097.56 2.345 1.062 3.745 1.505 1.4.443 2.835.922 4.305 1.435 1.47.49 2.905 1.073 4.305 1.75 1.4.653 2.649 1.493 3.745 2.52 1.097 1.003 1.972 2.24 2.625 3.71.677 1.47 1.015 3.255 1.015 5.355 0 2.287-.396 4.433-1.19 6.44a14.705 14.705 0 0 1-3.43 5.215c-1.493 1.47-3.325 2.637-5.495 3.5-2.17.84-4.655 1.26-7.455 1.26-1.61 0-3.196-.163-4.76-.49a24.56 24.56 0 0 1-4.515-1.33 24.386 24.386 0 0 1-4.025-2.1 19.494 19.494 0 0 1-3.36-2.73l2.765-4.515a2.77 2.77 0 0 1 .91-.805 2.21 2.21 0 0 1 1.19-.35c.584 0 1.214.245 1.89.735a64.59 64.59 0 0 0 2.415 1.575c.934.583 2.019 1.12 3.255 1.61 1.26.467 2.765.7 4.515.7 2.684 0 4.76-.63 6.23-1.89 1.47-1.283 2.205-3.115 2.205-5.495 0-1.33-.338-2.415-1.015-3.255-.653-.84-1.528-1.54-2.625-2.1-1.096-.583-2.345-1.073-3.745-1.47s-2.823-.828-4.27-1.295a36.88 36.88 0 0 1-4.27-1.68 13.837 13.837 0 0 1-3.745-2.555c-1.096-1.05-1.983-2.357-2.66-3.92-.653-1.587-.98-3.535-.98-5.845 0-1.843.362-3.64 1.085-5.39a14.144 14.144 0 0 1 3.22-4.655c1.4-1.353 3.127-2.438 5.18-3.255 2.054-.817 4.41-1.225 7.07-1.225 2.987 0 5.74.467 8.26 1.4 2.52.933 4.667 2.24 6.44 3.92l-2.345 4.445zm46.818-1.47h-15.26V919h-9.415v-42.875h-15.26v-7.735h39.935v7.735zm21.918 16.345c1.773 0 3.313-.222 4.62-.665 1.33-.443 2.415-1.05 3.255-1.82a7.447 7.447 0 0 0 1.925-2.8c.42-1.073.63-2.252.63-3.535 0-2.567-.852-4.538-2.555-5.915-1.68-1.377-4.258-2.065-7.735-2.065h-6.02v16.8h5.88zm24.22 26.53h-8.505c-1.61 0-2.777-.63-3.5-1.89l-10.64-16.205c-.397-.607-.84-1.038-1.33-1.295-.467-.257-1.167-.385-2.1-.385h-4.025V919h-9.415v-50.61h15.435c3.43 0 6.37.362 8.82 1.085 2.473.7 4.492 1.692 6.055 2.975 1.587 1.283 2.753 2.823 3.5 4.62.747 1.773 1.12 3.733 1.12 5.88 0 1.703-.257 3.313-.77 4.83a13.447 13.447 0 0 1-2.17 4.13c-.933 1.237-2.1 2.322-3.5 3.255-1.377.933-2.952 1.668-4.725 2.205a8.76 8.76 0 0 1 1.68 1.26 8.38 8.38 0 0 1 1.4 1.68l12.67 18.69zm32.205-19.11l-6.16-16.835a37.167 37.167 0 0 1-.945-2.66 88.505 88.505 0 0 1-.98-3.325 66.524 66.524 0 0 1-.945 3.36 42.19 42.19 0 0 1-.945 2.695l-6.125 16.765h16.1zM955.277 919h-7.28c-.816 0-1.481-.198-1.995-.595a3.958 3.958 0 0 1-1.155-1.54l-3.78-10.325h-20.965l-3.78 10.325c-.186.537-.548 1.027-1.085 1.47-.536.443-1.201.665-1.995.665h-7.35l19.915-50.61h9.59l19.88 50.61zm35.667-42.875h-15.26V919h-9.415v-42.875h-15.26v-7.735h39.935v7.735zM1007.017 919h-9.45v-50.61h9.45V919zm59.596-25.305c0 3.71-.618 7.152-1.855 10.325-1.213 3.15-2.94 5.88-5.18 8.19-2.24 2.31-4.935 4.118-8.085 5.425-3.15 1.283-6.65 1.925-10.5 1.925-3.827 0-7.315-.642-10.465-1.925-3.15-1.307-5.857-3.115-8.12-5.425-2.24-2.31-3.978-5.04-5.215-8.19-1.237-3.173-1.855-6.615-1.855-10.325 0-3.71.618-7.14 1.855-10.29 1.237-3.173 2.975-5.915 5.215-8.225 2.263-2.31 4.97-4.107 8.12-5.39 3.15-1.307 6.638-1.96 10.465-1.96 2.567 0 4.982.303 7.245.91 2.263.583 4.34 1.423 6.23 2.52a22.003 22.003 0 0 1 5.075 3.955 23.35 23.35 0 0 1 3.85 5.18c1.05 1.913 1.843 3.99 2.38 6.23.56 2.24.84 4.597.84 7.07zm-9.625 0c0-2.777-.373-5.262-1.12-7.455-.747-2.217-1.808-4.095-3.185-5.635s-3.057-2.718-5.04-3.535c-1.96-.817-4.177-1.225-6.65-1.225-2.473 0-4.702.408-6.685 1.225a13.996 13.996 0 0 0-5.04 3.535c-1.377 1.54-2.438 3.418-3.185 5.635-.747 2.193-1.12 4.678-1.12 7.455s.373 5.273 1.12 7.49c.747 2.193 1.808 4.06 3.185 5.6 1.4 1.517 3.08 2.683 5.04 3.5 1.983.817 4.212 1.225 6.685 1.225s4.69-.408 6.65-1.225c1.983-.817 3.663-1.983 5.04-3.5 1.377-1.54 2.438-3.407 3.185-5.6.747-2.217 1.12-4.713 1.12-7.49zm60.558-25.305V919h-4.83c-.747 0-1.377-.117-1.89-.35-.49-.257-.968-.677-1.435-1.26l-26.425-33.74c.14 1.54.21 2.963.21 4.27V919h-8.295v-50.61h4.935c.397 0 .735.023 1.015.07.303.023.56.093.77.21.233.093.455.245.665.455.21.187.443.443.7.77l26.53 33.88a91.97 91.97 0 0 1-.175-2.415 37.435 37.435 0 0 1-.07-2.205V868.39h8.295zm70.957 0V919h-4.83c-.747 0-1.377-.117-1.89-.35-.49-.257-.968-.677-1.435-1.26l-26.425-33.74c.14 1.54.21 2.963.21 4.27V919h-8.295v-50.61h4.935c.397 0 .735.023 1.015.07.303.023.56.093.77.21.233.093.455.245.665.455.21.187.443.443.7.77l26.53 33.88a91.97 91.97 0 0 1-.175-2.415 37.435 37.435 0 0 1-.07-2.205V868.39h8.295zm59.536 25.305c0 3.71-.619 7.152-1.855 10.325-1.214 3.15-2.94 5.88-5.18 8.19-2.24 2.31-4.935 4.118-8.085 5.425-3.15 1.283-6.65 1.925-10.5 1.925-3.827 0-7.315-.642-10.465-1.925-3.15-1.307-5.857-3.115-8.12-5.425-2.24-2.31-3.979-5.04-5.215-8.19-1.237-3.173-1.855-6.615-1.855-10.325 0-3.71.618-7.14 1.855-10.29 1.236-3.173 2.975-5.915 5.215-8.225 2.263-2.31 4.97-4.107 8.12-5.39 3.15-1.307 6.638-1.96 10.465-1.96 2.566 0 4.981.303 7.245.91 2.263.583 4.34 1.423 6.23 2.52a22.025 22.025 0 0 1 5.075 3.955 23.382 23.382 0 0 1 3.85 5.18c1.05 1.913 1.843 3.99 2.38 6.23.56 2.24.84 4.597.84 7.07zm-9.625 0c0-2.777-.374-5.262-1.12-7.455-.747-2.217-1.809-4.095-3.185-5.635-1.377-1.54-3.057-2.718-5.04-3.535-1.96-.817-4.177-1.225-6.65-1.225-2.474 0-4.702.408-6.685 1.225a13.996 13.996 0 0 0-5.04 3.535c-1.377 1.54-2.439 3.418-3.185 5.635-.747 2.193-1.12 4.678-1.12 7.455s.373 5.273 1.12 7.49c.746 2.193 1.808 4.06 3.185 5.6 1.4 1.517 3.08 2.683 5.04 3.5 1.983.817 4.211 1.225 6.685 1.225 2.473 0 4.69-.408 6.65-1.225 1.983-.817 3.663-1.983 5.04-3.5 1.376-1.54 2.438-3.407 3.185-5.6.746-2.217 1.12-4.713 1.12-7.49zm84.207-25.305L1306.906 919h-8.505l-11.06-34.58c-.303-.84-.583-1.867-.84-3.08-.14.583-.28 1.132-.42 1.645-.14.513-.291.992-.455 1.435L1274.461 919h-8.54l-15.68-50.61h7.875c.817 0 1.494.198 2.03.595.56.373.934.887 1.12 1.54l8.61 30.275c.187.747.362 1.563.525 2.45.187.863.374 1.773.56 2.73.187-.98.385-1.902.595-2.765a38.72 38.72 0 0 1 .735-2.415l9.94-30.275c.187-.537.549-1.027 1.085-1.47.56-.443 1.237-.665 2.03-.665h2.765c.817 0 1.482.198 1.995.595.514.397.899.91 1.155 1.54l9.905 30.275c.49 1.447.934 3.115 1.33 5.005a63.247 63.247 0 0 1 1.015-5.005l8.61-30.275c.14-.583.49-1.085 1.05-1.505.584-.42 1.272-.63 2.065-.63h7.385zm71.023 25.305c0 3.71-.618 7.152-1.855 10.325-1.213 3.15-2.94 5.88-5.18 8.19-2.24 2.31-4.935 4.118-8.085 5.425-3.15 1.283-6.65 1.925-10.5 1.925-3.827 0-7.315-.642-10.465-1.925-3.15-1.307-5.857-3.115-8.12-5.425-2.24-2.31-3.978-5.04-5.215-8.19-1.237-3.173-1.855-6.615-1.855-10.325 0-3.71.618-7.14 1.855-10.29 1.237-3.173 2.975-5.915 5.215-8.225 2.263-2.31 4.97-4.107 8.12-5.39 3.15-1.307 6.638-1.96 10.465-1.96 2.567 0 4.982.303 7.245.91 2.263.583 4.34 1.423 6.23 2.52a22.003 22.003 0 0 1 5.075 3.955 23.35 23.35 0 0 1 3.85 5.18c1.05 1.913 1.843 3.99 2.38 6.23.56 2.24.84 4.597.84 7.07zm-9.625 0c0-2.777-.373-5.262-1.12-7.455-.747-2.217-1.808-4.095-3.185-5.635s-3.057-2.718-5.04-3.535c-1.96-.817-4.177-1.225-6.65-1.225-2.473 0-4.702.408-6.685 1.225a13.996 13.996 0 0 0-5.04 3.535c-1.377 1.54-2.438 3.418-3.185 5.635-.747 2.193-1.12 4.678-1.12 7.455s.373 5.273 1.12 7.49c.747 2.193 1.808 4.06 3.185 5.6 1.4 1.517 3.08 2.683 5.04 3.5 1.983.817 4.212 1.225 6.685 1.225s4.69-.408 6.65-1.225c1.983-.817 3.663-1.983 5.04-3.5 1.377-1.54 2.438-3.407 3.185-5.6.747-2.217 1.12-4.713 1.12-7.49zm34.343.14c1.727 0 3.232-.21 4.515-.63 1.284-.443 2.345-1.062 3.185-1.855a7.582 7.582 0 0 0 1.925-2.94c.42-1.167.63-2.462.63-3.885 0-1.353-.21-2.578-.63-3.675a7.264 7.264 0 0 0-1.89-2.8c-.84-.77-1.901-1.353-3.185-1.75-1.283-.42-2.8-.63-4.55-.63h-7.035v18.165h7.035zm0-25.445c3.384 0 6.312.397 8.785 1.19 2.474.793 4.515 1.902 6.125 3.325a13.022 13.022 0 0 1 3.57 5.11c.794 1.983 1.19 4.153 1.19 6.51 0 2.45-.408 4.702-1.225 6.755a13.996 13.996 0 0 1-3.675 5.25c-1.633 1.47-3.686 2.613-6.16 3.43-2.45.817-5.32 1.225-8.61 1.225h-7.035V919h-9.415v-50.61h16.45zm36.34 7.49v14.035h17.71v7.245h-17.71v14.315h22.47V919h-31.92v-50.61h31.92v7.49h-22.47zm73.479-7.49V919h-4.83c-.747 0-1.377-.117-1.89-.35-.49-.257-.968-.677-1.435-1.26l-26.425-33.74c.14 1.54.21 2.963.21 4.27V919h-8.295v-50.61h4.935c.397 0 .735.023 1.015.07.303.023.56.093.77.21.233.093.455.245.665.455.21.187.443.443.7.77l26.53 33.88a91.97 91.97 0 0 1-.175-2.415 37.435 37.435 0 0 1-.07-2.205V868.39h8.295z" fill="#fff"/></g><defs><clipPath id="clip0"><path fill="#fff" d="M0 0h2160v1080H0z"/></clipPath><clipPath id="clip1"><path fill="#fff" transform="translate(276)" d="M0 0h1607v617H0z"/></clipPath></defs></svg>