<?xml version="1.0" encoding="UTF-8"?>
<svg width="407px" height="406px" viewBox="0 0 407 406" version="1.1" xmlns="http://www.w3.org/2000/svg" xmlns:xlink="http://www.w3.org/1999/xlink">
    <!-- Generator: Sketch 49 (51002) - http://www.bohemiancoding.com/sketch -->
    <title>purple3</title>
    <desc>Created with Sketch.</desc>
    <defs>
        <circle id="path-1" cx="204" cy="203" r="200"></circle>
        <filter x="-3.6%" y="-2.7%" width="109.6%" height="110.6%" filterUnits="objectBoundingBox" id="filter-3">
            <feOffset dx="3" dy="6" in="SourceAlpha" result="shadowOffsetOuter1"></feOffset>
            <feGaussianBlur stdDeviation="3" in="shadowOffsetOuter1" result="shadowBlurOuter1"></feGaussianBlur>
            <feColorMatrix values="0 0 0 0 0.0920227466   0 0 0 0 0.0920227466   0 0 0 0 0.0920227466  0 0 0 0.5 0" type="matrix" in="shadowBlurOuter1" result="shadowMatrixOuter1"></feColorMatrix>
            <feMerge>
                <feMergeNode in="shadowMatrixOuter1"></feMergeNode>
                <feMergeNode in="SourceGraphic"></feMergeNode>
            </feMerge>
        </filter>
    </defs>
    <g id="purple3" stroke="none" stroke-width="1" fill="none" fill-rule="evenodd">
        <mask id="mask-2" fill="white">
            <use xlink:href="#path-1"></use>
        </mask>
        <use id="Oval-4" fill="#BA2872" xlink:href="#path-1"></use>
        <g id="Group-4" mask="url(#mask-2)">
            <g transform="translate(74.000000, 86.000000)" id="Group-3">
                <g filter="url(#filter-3)" transform="translate(129.854891, 117.293417) rotate(2.000000) translate(-129.854891, -117.293417) translate(4.854891, 4.293417)">
                    <polygon id="Path-4" fill="#02014F" transform="translate(73.607259, 193.329309) rotate(1.000000) translate(-73.607259, -193.329309) " points="106.010631 167.551485 53.0014222 219.107133 41.2038868 184.797362"></polygon>
                    <polygon id="Path-5" fill="#02014F" transform="translate(134.286980, 150.597293) rotate(1.000000) translate(-134.286980, -150.597293) " points="107.141204 168.438961 161.432756 171.643609 132.093995 129.550977"></polygon>
                    <polygon id="Path-6" fill="#0B0569" transform="translate(161.759633, 151.180965) rotate(1.000000) translate(-161.759633, -151.180965) " points="160.96952 172.091674 191.278222 149.783728 132.241043 130.270256"></polygon>
                    <polygon id="Path-7" fill="#02014F" transform="translate(162.402786, 126.703638) rotate(1.000000) translate(-162.402786, -126.703638) " points="192.021291 149.87137 165.023233 103.535906 132.78428 130.320636"></polygon>
                    <polygon id="Path-8" fill="#0B0569" transform="translate(186.628410, 127.087542) rotate(1.000000) translate(-186.628410, -127.087542) " points="191.929466 150.137333 208.236882 104.525244 165.019938 104.037751"></polygon>
                    <polygon id="Path-9" fill="#02014F" transform="translate(218.079490, 127.619903) rotate(1.000000) translate(-218.079490, -127.619903) " points="192.017724 150.524056 244.141255 128.368082 208.233608 104.71575"></polygon>
                    <polygon id="Path-10" fill="#5C0297" transform="translate(228.212202, 96.134065) rotate(1.000000) translate(-228.212202, -96.134065) " points="244.786233 128.580549 247.596767 63.68758 208.827636 105.073736"></polygon>
                    <polygon id="Path-11" fill="#34036E" transform="translate(225.972389, 82.353741) rotate(1.000000) translate(-225.972389, -82.353741) " points="247.997508 63.539339 203.947271 59.8050742 209.115017 104.902408"></polygon>
                    <polygon id="Path-12" fill="#5C0297" transform="translate(187.503477, 81.867994) rotate(1.000000) translate(-187.503477, -81.867994) " points="165.69893 104.084029 203.902509 59.1511425 209.308024 104.584845"></polygon>
                    <polygon id="Path-13" fill="#C024FF" transform="translate(226.629658, 43.611505) rotate(1.000000) translate(-226.629658, -43.611505) " points="213.635212 23.747946 248.663803 63.4750633 204.595513 59.8604067"></polygon>
                    <polygon id="Path-14" fill="#A900E7" transform="translate(195.030790, 41.254281) rotate(1.000000) translate(-195.030790, -41.254281) " points="213.757642 23.0298593 176.303937 31.4645287 204.569942 59.4787018"></polygon>
                    <polygon id="Path-15" fill="#B734F2" transform="translate(191.003906, 16.787396) rotate(1.000000) translate(-191.003906, -16.787396) " points="213.974508 23.0173876 168.033304 2.12939649 176.720416 31.4453951"></polygon>
                    <polygon id="Path-16" fill="#8603B8" transform="translate(149.430446, 17.176815) rotate(1.000000) translate(-149.430446, -17.176815) " points="167.989563 1.36537764 122.110745 32.988252 176.750148 30.8050448"></polygon>
                    <polygon id="Path-17" fill="#B734F2" transform="translate(134.299651, 17.072248) rotate(1.000000) translate(-134.299651, -17.072248) " points="100.763182 3.96620235 122.057902 32.9681706 167.836121 1.17632486"></polygon>
                    <polygon id="Path-18" fill="#8603B8" transform="translate(89.970133, 34.965452) rotate(1.000000) translate(-89.970133, -34.965452) " points="121.713058 31.9333237 58.2272087 66.7853945 100.366757 3.1455094"></polygon>
                    <polygon id="Path-19" fill="#C024FF" transform="translate(169.194657, 53.452443) rotate(1.000000) translate(-169.194657, -53.452443) " points="133.904832 75.8228656 176.053051 31.0820195 204.484482 59.1232272"></polygon>
                    <polygon id="Path-20" fill="#34036E" transform="translate(168.871893, 81.397011) rotate(1.000000) translate(-168.871893, -81.397011) " points="133.563153 75.7696655 165.789262 103.741937 204.180633 59.0520847"></polygon>
                    <polygon id="Path-21" fill="#5C0297" transform="translate(149.309848, 102.848526) rotate(1.000000) translate(-149.309848, -102.848526) " points="133.06903 75.365803 132.98955 130.331249 165.630146 103.377135"></polygon>
                    <polygon id="Path-22" fill="#34036E" transform="translate(110.109271, 102.174321) rotate(1.000000) translate(-110.109271, -102.174321) " points="133.085528 74.7705892 87.133014 111.620896 133.0403 129.578053"></polygon>
                    <polygon id="Path-23" fill="#5C0297" transform="translate(95.103059, 89.175629) rotate(1.000000) translate(-95.103059, -89.175629) " points="132.932963 74.7649318 57.273156 66.8376418 87.3103222 111.513616"></polygon>
                    <polygon id="Path-24" fill="#0B0569" transform="translate(109.195749, 139.875502) rotate(1.000000) translate(-109.195749, -139.875502) " points="86.0692921 111.459351 107.068473 168.291654 132.322207 129.420871"></polygon>
                    <polygon id="Path-25" fill="#02014F" transform="translate(74.816005, 139.504337) rotate(1.000000) translate(-74.816005, -139.504337) " points="86.2967771 111.432921 42.6028855 144.760772 107.029124 167.575752"></polygon>
                    <polygon id="Path-26" fill="#34076E" transform="translate(22.416265, 123.029071) rotate(1.000000) translate(-22.416265, -123.029071) " points="42.8635302 143.986753 38.661575 102.071389 1.96899985 140.7245"></polygon>
                    <polygon id="Path-27" fill="#02014F" transform="translate(21.817107, 162.485435) rotate(1.000000) translate(-21.817107, -162.485435) " points="1.08403036 140.631915 42.1987572 184.338956 42.5501834 144.011722"></polygon>
                    <polygon id="Path-28" fill="#4D058F" transform="translate(20.388500, 109.394619) rotate(1.000000) translate(-20.388500, -109.394619) " points="1.9631349 140.851229 17.7049111 77.9380099 38.8138642 102.288669"></polygon>
                    <polygon id="Path-29" fill="#8603B8" transform="translate(37.773453, 84.382939) rotate(1.000000) translate(-37.773453, -84.382939) " points="18.1252827 78.1963443 57.4216229 65.9049867 39.283163 102.860891"></polygon>
                    <polygon id="Path-30" fill="#4D058F" transform="translate(62.778487, 123.811811) rotate(1.000000) translate(-62.778487, -123.811811) " points="38.6635375 102.94954 86.8934364 110.997322 42.8039459 144.674082"></polygon>
                    <polygon id="Path-31" fill="#AA04F0" transform="translate(38.193063, 59.212733) rotate(1.000000) translate(-38.193063, -59.212733) " points="18.6114978 78.16912 44.0512797 40.2563454 57.7746285 65.9638308"></polygon>
                    <polygon id="Path-32" fill="#B734F2" transform="translate(72.428328, 34.672182) rotate(1.000000) translate(-72.428328, -34.672182) " points="44.4672021 40.9651957 100.389454 2.85602567 58.1534685 66.4883389"></polygon>
                    <polygon id="Path-33" fill="#0B0569" transform="translate(39.774298, 204.690973) rotate(1.000000) translate(-39.774298, -204.690973) " points="41.3270411 184.266569 26.750526 225.115378 52.7980704 218.451346"></polygon>
                    <polygon id="Path-34" fill="#A900E7" transform="translate(148.767933, 53.160449) rotate(1.000000) translate(-148.767933, -53.160449) " points="121.473385 33.0528487 133.695756 75.655268 176.062482 30.6656299"></polygon>
                    <polygon id="Path-35" fill="#C024FF" transform="translate(95.816886, 53.387108) rotate(1.000000) translate(-95.816886, -53.387108) " points="121.569365 31.9793013 133.667383 74.7949147 57.9663899 66.8860734"></polygon>
                    <polygon id="Path-36" fill="#34036E" transform="translate(63.272397, 88.654545) rotate(1.000000) translate(-63.272397, -88.654545) " points="57.3418108 66.3628545 39.2827169 103.029634 87.2620768 110.946235"></polygon>
                    <polygon id="Path-37" fill="#0B0569" transform="translate(74.582357, 164.641165) rotate(1.000000) translate(-74.582357, -164.641165) " points="42.1070028 144.639588 107.05771 167.459378 42.1637982 184.642742"></polygon>
                </g>
            </g>
        </g>
    </g>
</svg>